<?xml version="1.0" encoding="utf-8"?>
<!-- Generator: Adobe Illustrator 22.0.0, SVG Export Plug-In . SVG Version: 6.00 Build 0)  -->
<svg version="1.1" id="Layer_1" xmlns="http://www.w3.org/2000/svg" xmlns:xlink="http://www.w3.org/1999/xlink" x="0px" y="0px"
	 viewBox="0 0 375 667" style="enable-background:new 0 0 375 667;" xml:space="preserve">
<style type="text/css">
	.st0{fill:#DCF0F9;}
	.st1{fill:#FFBB99;}
	.st2{fill:#FFAA99;}
	.st3{fill:#FF775C;}
	.st4{fill:#97D2ED;}
	.st5{fill:#EB996E;}
	.st6{fill:#FFC197;}
	.st7{fill:#155A79;}
	.st8{fill:#FFEEEB;}
	.st9{fill:#FFDDD6;}
	.st10{fill:#BAE1F3;}
	.st11{fill:#DFEBFD;}
	.st12{fill:#F99746;}
	.st13{fill:#FF917A;}
	.st14{fill:#86EAE8;}
	.st15{fill:#FFFFFF;}
	.st16{fill:#BAF3F2;}
	.st17{fill:#CBF6F5;}
	.st18{fill:#74E7E5;}
	.st19{fill:#1C739C;}
	.st20{fill:#FFD3B6;}
</style>
<rect class="st0" width="375" height="667"/>
<path class="st1" d="M210.8,194.3c0,0-11.5,23-23.2,38.9c-4.6,6.3-9.3,11.5-13.3,13.7c-3.9,2.1-7.2,5.4-9.9,9
	c-5.5,7.3-8.7,16.1-9.9,19.6h-1.6L124.2,232c0,0,1-44.1,4.6-51.5c5.2-10.8,7.7-32.5,9.8-36.8c1.5-3.2,5.7-19.8,6.1-21
	c0.2-0.5,1.6-1.3,3.4-1.3c1.5,0,4,1.4,4.6,4.4c3.2,14.8-0.6,24.6-0.6,25c1.1,11.4-2.3,19.8,0.1,22c0.1,0.1,0.3,0,0.5-0.1
	c4.1-2.6,29.6-39.9,32.8-40.7C188.9,131.1,210.8,194.3,210.8,194.3z"/>
<path class="st2" d="M162.9,275.5c0.1-4.7,0.2-7.3,0.2-7.3c-1.9-19.2-44.7-20.5-44.7-20.5s-5.4,11.1-13.4,27.8H162.9z"/>
<path class="st3" d="M162.6,275.5v-11.8l-41.5-20.8l-10,20.1c0,0,6.9,6.6,14.4,12.5H162.6z"/>
<g>
	<path class="st4" d="M267.2,171.2H260v-5.9h-5.9v-7.2h5.9v-5.9h7.2v5.9h5.9v7.2h-5.9V171.2z M261,170.2h5.2v-5.9h5.9v-5.2h-5.9
		v-5.9H261v5.9h-5.9v5.2h5.9V170.2z"/>
</g>
<g>
	<path class="st2" d="M95.6,142.1c-3.3,0-6-2.7-6-6s2.7-6,6-6s6,2.7,6,6S98.9,142.1,95.6,142.1z M95.6,131.1c-2.8,0-5,2.2-5,5
		s2.2,5,5,5s5-2.2,5-5S98.4,131.1,95.6,131.1z"/>
</g>
<g>
	<path class="st2" d="M241.7,89.9c-2.5,0-4.5-2-4.5-4.5s2-4.5,4.5-4.5s4.5,2,4.5,4.5S244.2,89.9,241.7,89.9z M241.7,81.9
		c-1.9,0-3.5,1.6-3.5,3.5s1.6,3.5,3.5,3.5s3.5-1.6,3.5-3.5S243.6,81.9,241.7,81.9z"/>
</g>
<path class="st1" d="M236.9,116.6l-9.2,13.5l-9.1,13.3c-0.6,0.7-1.2,0.9-1.9,0.8c-2.2-0.2-4.9-3.3-7-5.1l-0.2-0.2
	c-2.8-2.3-3.2-6.4-0.9-9.2l13.9-16.8l0,0l4.1-5c2.3-2.8,6.4-3.2,9.2-0.9l0.2,0.2C238.8,109.7,239.2,113.8,236.9,116.6z"/>
<path class="st5" d="M227.7,130.1l-9.1,13.3c-0.6,0.7-1.2,0.9-1.9,0.8l5.8-31.2C222.6,113.2,223.6,127.2,227.7,130.1z"/>
<path class="st5" d="M187.7,233.2c-4.6,6.3-9.3,11.5-13.3,13.7c-3.9,2.1-7.2,5.4-9.9,9c-3.1-1.5-6.7-3.2-10.2-4.9
	c-4.3-2.1-4.4-8.1-0.3-10.4c0,0,0.1,0,0.1-0.1c3.9-2.2,7.9-10.2,7.9-10.2L187.7,233.2z"/>
<path class="st6" d="M144.5,123.3l-2.4,9.8c0,0,2.1,0.9,3.5,0.2C146.9,132.6,148.1,123.9,144.5,123.3z"/>
<g>
	<path class="st7" d="M214.1,237.8h-52c-5.1,0-9.3-4.2-9.3-9.3V114.2c0-5.1,4.2-9.3,9.3-9.3h52c5.1,0,9.3,4.2,9.3,9.3v114.3
		C223.4,233.6,219.2,237.8,214.1,237.8z"/>
	<g>
		<path class="st8" d="M219.9,115.1v111.6c0,3.8-3.1,6.9-6.8,6.9h-49.9c-3.8,0-6.8-3.1-6.8-6.9V115.1c0-3.8,3.1-6.9,6.8-6.9H213
			C216.8,108.2,219.9,111.3,219.9,115.1z"/>
		<path class="st9" d="M213,108.2l-49.3,125.4h-0.6c-3.8,0-6.8-3.1-6.8-6.9V115.1c0-3.8,3.1-6.9,6.8-6.9H213z"/>
	</g>
	<path class="st7" d="M198.5,112.4h-20.9c-1.7,0-3.1-1.4-3.1-3.1v-0.5c0-1.7,1.4-3.1,3.1-3.1h20.9c1.7,0,3.1,1.4,3.1,3.1v0.5
		C201.6,111,200.2,112.4,198.5,112.4z"/>
</g>
<path class="st10" d="M132.9,275.5h4l12.9-14.7l-1.5,14.7h17.4c-0.1-6.1-0.1-14.5-0.1-21c0,0-13.2-3.7-24.9-10
	c-7.1-3.9-13.6-8.6-16.3-14.1c0,0-9.3,14-18.6,28.9c0,0,2.1,1.5,5.4,3.6C116.8,266.6,125.9,272.4,132.9,275.5z"/>
<path class="st5" d="M152.8,202.8c0,0-2-17.8-3.9-21.3s-3.5-10.4-0.6-15.6c2.9-5.2,3.9-15.1,3.9-15.1c1.1,11.4-2.3,19.8,0.1,22
	c0.1,0.1,0.3,0,0.5-0.1V202.8z"/>
<g>
	<path class="st11" d="M212.4,89.9h-11.6c-3,0-5.5-2.5-5.5-5.5v-9.5c0-3,2.5-5.5,5.5-5.5h11.6c3,0,5.5,2.5,5.5,5.5v9.5
		C218,87.4,215.5,89.9,212.4,89.9z"/>
	<g>
		<path class="st12" d="M200.6,79.4c0.6,1.7,6,6,6,6s1.8-1.4,3.4-3c1.2-1.1,2.4-2.3,2.6-3c0.6-1.6,0-4-2.4-4.4
			c-2.3-0.4-3.6,2.1-3.6,2.1s-1.3-2.5-3.6-2.1c-0.4,0.1-0.8,0.2-1.1,0.4C200.5,76.2,200.1,78.1,200.6,79.4z"/>
	</g>
</g>
<g>
	<path class="st7" d="M165.9,115.2l-0.7,0.5l-0.7-0.5c0.2-0.2,0.4-0.4,0.7-0.4C165.5,114.8,165.7,115,165.9,115.2z"/>
	<g>
		<path class="st7" d="M165.2,113.6c-0.7,0-1.3,0.4-1.7,0.9l0.5,0.3c0.3-0.4,0.8-0.7,1.3-0.7s1,0.3,1.3,0.7l0.4-0.3
			C166.5,113.9,165.9,113.6,165.2,113.6z"/>
	</g>
	<g>
		<path class="st7" d="M165.2,111.2c-1.5,0-2.9,0.8-3.7,1.9l0.5,0.3c0.7-1,1.9-1.7,3.2-1.7s2.5,0.6,3.2,1.6l0.4-0.3
			C168,112,166.7,111.2,165.2,111.2z"/>
	</g>
	<g>
		<path class="st7" d="M165.2,112.5c-1.1,0-2,0.5-2.6,1.3l0.5,0.3c0.5-0.7,1.3-1.1,2.2-1.1s1.7,0.4,2.1,1.1l0.4-0.3
			C167.2,113,166.3,112.5,165.2,112.5z"/>
	</g>
</g>
<g>
	<g>
		<rect x="161.6" y="187.1" class="st13" width="54" height="0.8"/>
	</g>
	<g>
		<rect x="161.6" y="177.1" class="st13" width="54" height="0.8"/>
	</g>
	<g>
		<rect x="161.6" y="167.1" class="st13" width="54" height="0.8"/>
	</g>
	<path class="st14" d="M167.4,176.7h1c1.1,0,2,0.9,2,2v18.8h-5v-18.8C165.4,177.6,166.3,176.7,167.4,176.7z"/>
	<path class="st14" d="M177.8,172h1c1.1,0,2,0.9,2,2v23.4h-5V174C175.8,172.9,176.7,172,177.8,172z"/>
	<path class="st14" d="M188.1,168.5h1c1.1,0,2,0.9,2,2v26.9h-5v-26.9C186.1,169.4,187,168.5,188.1,168.5z"/>
	<path class="st14" d="M198.5,180.9h1c1.1,0,2,0.9,2,2v14.5h-5v-14.5C196.5,181.8,197.4,180.9,198.5,180.9z"/>
	<path class="st14" d="M208.8,173.2h1c1.1,0,2,0.9,2,2v22.2h-5v-22.2C206.8,174.1,207.7,173.2,208.8,173.2z"/>
	<g>
		<g>
			<polygon class="st13" points="215.6,197.8 161.3,197.8 161.3,163.3 162,163.3 162,197.1 215.6,197.1 			"/>
		</g>
		<g>
			<g>
				<polygon class="st13" points="162.8,163.7 161.6,161.7 160.5,163.7 				"/>
			</g>
		</g>
	</g>
	<path class="st13" d="M171,202.7h-6.1c-0.2,0-0.4-0.2-0.4-0.4v-0.4c0-0.2,0.2-0.4,0.4-0.4h6.1c0.2,0,0.4,0.2,0.4,0.4v0.4
		C171.4,202.5,171.2,202.7,171,202.7z"/>
	<path class="st13" d="M181.3,202.7h-6.1c-0.2,0-0.4-0.2-0.4-0.4v-0.4c0-0.2,0.2-0.4,0.4-0.4h6.1c0.2,0,0.4,0.2,0.4,0.4v0.4
		C181.8,202.5,181.6,202.7,181.3,202.7z"/>
	<path class="st13" d="M191.7,202.7h-6.1c-0.2,0-0.4-0.2-0.4-0.4v-0.4c0-0.2,0.2-0.4,0.4-0.4h6.1c0.2,0,0.4,0.2,0.4,0.4v0.4
		C192.1,202.5,191.9,202.7,191.7,202.7z"/>
	<path class="st13" d="M202.1,202.7H196c-0.2,0-0.4-0.2-0.4-0.4v-0.4c0-0.2,0.2-0.4,0.4-0.4h6.1c0.2,0,0.4,0.2,0.4,0.4v0.4
		C202.5,202.5,202.3,202.7,202.1,202.7z"/>
	<path class="st13" d="M212.4,202.7h-6.1c-0.2,0-0.4-0.2-0.4-0.4v-0.4c0-0.2,0.2-0.4,0.4-0.4h6.1c0.2,0,0.4,0.2,0.4,0.4v0.4
		C212.9,202.5,212.7,202.7,212.4,202.7z"/>
</g>
<path class="st13" d="M132.2,156.7h66.5c2.3,0,4.2-1.9,4.2-4.2v-26.6c0-2.3-1.9-4.2-4.2-4.2h-66.5c-2.3,0-4.2,1.9-4.2,4.2v26.6
	C128,154.8,129.9,156.7,132.2,156.7z"/>
<path class="st15" d="M131.2,155.7h66.5c2.3,0,4.2-1.9,4.2-4.2v-26.6c0-2.3-1.9-4.2-4.2-4.2h-66.5c-2.3,0-4.2,1.9-4.2,4.2v26.6
	C127,153.8,128.9,155.7,131.2,155.7z"/>
<g>
	<path class="st16" d="M176.7,139.4h-12.6c-0.3,0-0.6-0.3-0.6-0.6l0,0c0-0.3,0.3-0.6,0.6-0.6h12.6c0.3,0,0.6,0.3,0.6,0.6l0,0
		C177.3,139.1,177,139.4,176.7,139.4z"/>
	<path class="st16" d="M176.5,132.4h-12.3c-0.4,0-0.8-0.3-0.8-0.8v-0.4c0-0.4,0.3-0.8,0.8-0.8h12.3c0.4,0,0.8,0.3,0.8,0.8v0.4
		C177.3,132.1,177,132.4,176.5,132.4z"/>
	<path class="st16" d="M188.6,132.4h-8.9c-0.4,0-0.7-0.3-0.7-0.7v-0.6c0-0.4,0.3-0.7,0.7-0.7h8.9c0.4,0,0.7,0.3,0.7,0.7v0.6
		C189.2,132.1,188.9,132.4,188.6,132.4z"/>
	<path class="st16" d="M171.1,142.3h-7.2c-0.3,0-0.5-0.2-0.5-0.5v-0.3c0-0.3,0.2-0.5,0.5-0.5h7.2c0.3,0,0.5,0.2,0.5,0.5v0.3
		C171.6,142.1,171.4,142.3,171.1,142.3z"/>
	<path class="st16" d="M185.7,142.3h-11.6c-0.3,0-0.6-0.3-0.6-0.6l0,0c0-0.3,0.3-0.6,0.6-0.6h11.6c0.3,0,0.6,0.3,0.6,0.6l0,0
		C186.3,142,186.1,142.3,185.7,142.3z"/>
	<path class="st16" d="M196.6,139.4H180c-0.3,0-0.6-0.3-0.6-0.6l0,0c0-0.3,0.3-0.6,0.6-0.6h16.6c0.3,0,0.6,0.3,0.6,0.6l0,0
		C197.2,139.1,196.9,139.4,196.6,139.4z"/>
	<path class="st16" d="M176.7,145.3h-12.6c-0.3,0-0.6-0.3-0.6-0.6l0,0c0-0.3,0.3-0.6,0.6-0.6h12.6c0.3,0,0.6,0.3,0.6,0.6l0,0
		C177.3,145,177,145.3,176.7,145.3z"/>
	<path class="st16" d="M196.6,145.3H180c-0.3,0-0.6-0.3-0.6-0.6l0,0c0-0.3,0.3-0.6,0.6-0.6h16.6c0.3,0,0.6,0.3,0.6,0.6l0,0
		C197.2,145,196.9,145.3,196.6,145.3z"/>
</g>
<g>
	<g>
		<path class="st17" d="M211.9,221.4h-35.3c-2.1,0-3.7-1.7-3.7-3.7v-5.3c0-2.1,1.7-3.7,3.7-3.7h35.3c2.1,0,3.7,1.7,3.7,3.7v5.3
			C215.6,219.8,214,221.4,211.9,221.4z"/>
	</g>
	<g>
		<path class="st18" d="M194.9,212.6H178c-0.3,0-0.6-0.3-0.6-0.6v-0.3c0-0.3,0.3-0.6,0.6-0.6h16.9c0.3,0,0.6,0.3,0.6,0.6v0.3
			C195.5,212.3,195.2,212.6,194.9,212.6z"/>
		<g>
			<path class="st18" d="M195,216.3h-17.1c-0.3,0-0.5-0.2-0.5-0.5l0,0c0-0.3,0.2-0.5,0.5-0.5H195c0.3,0,0.5,0.2,0.5,0.5l0,0
				C195.5,216.1,195.2,216.3,195,216.3z"/>
			<path class="st18" d="M190.7,218.6h-12.9c-0.2,0-0.4-0.2-0.4-0.4V218c0-0.2,0.2-0.4,0.4-0.4h12.9c0.2,0,0.4,0.2,0.4,0.4v0.2
				C191.1,218.4,190.9,218.6,190.7,218.6z"/>
			<path class="st18" d="M201.8,218.6H193c-0.3,0-0.5-0.2-0.5-0.5l0,0c0-0.3,0.2-0.5,0.5-0.5h8.8c0.3,0,0.5,0.2,0.5,0.5l0,0
				C202.3,218.4,202.1,218.6,201.8,218.6z"/>
			<path class="st18" d="M210.1,216.3h-12.6c-0.3,0-0.5-0.2-0.5-0.5l0,0c0-0.3,0.2-0.5,0.5-0.5h12.6c0.3,0,0.5,0.2,0.5,0.5l0,0
				C210.5,216.1,210.3,216.3,210.1,216.3z"/>
		</g>
		<path class="st18" d="M204,212.6h-6.7c-0.3,0-0.5-0.2-0.5-0.5v-0.5c0-0.3,0.2-0.5,0.5-0.5h6.7c0.3,0,0.5,0.2,0.5,0.5v0.5
			C204.5,212.4,204.3,212.6,204,212.6z"/>
	</g>
</g>
<g>
	<g>
		<path class="st15" d="M165.1,219.4c-1,0-1.9-0.3-2.7-0.9c-0.3-0.3-0.6-0.5-0.9-0.9c-0.6-0.8-1-1.8-1-2.8c0-2.5,2.1-4.6,4.6-4.6
			s4.6,2.1,4.6,4.6c0,1-0.3,2-1,2.8c-0.2,0.3-0.4,0.5-0.7,0.7C167.2,219,166.2,219.4,165.1,219.4z"/>
	</g>
	<g>
		<circle class="st18" cx="165.1" cy="213" r="1.4"/>
		<path class="st18" d="M165.1,218.3c1,0,2-0.4,2.7-1v-1c0-0.5-0.3-1-0.8-1.2s-1.2-0.4-1.9-0.4s-1.4,0.2-1.9,0.4s-0.8,0.7-0.8,1.2v1
			c0.1,0.1,0.1,0.1,0.2,0.2C163.3,218.1,164.2,218.3,165.1,218.3z"/>
	</g>
</g>
<path class="st3" d="M126.5,265.9c0-1.3,1.1-2.3,2.3-2.3c1.2,0,2.3,1.1,2.3,2.3c0,1.3-1.1,2.3-2.3,2.3
	C127.6,268.2,126.5,267.2,126.5,265.9z"/>
<g>
	
		<rect x="107.7" y="158.5" transform="matrix(0.7071 -0.7071 0.7071 0.7071 -75.5136 135.7121)" class="st19" width="36.8" height="1"/>
</g>
<g>
	
		<rect x="137.1" y="109.3" transform="matrix(0.3945 -0.9189 0.9189 0.3945 -4.0027 213.453)" class="st19" width="45.7" height="1"/>
</g>
<g>
	
		<rect x="125.6" y="101" transform="matrix(0.7071 -0.7071 0.7071 0.7071 -47.4698 124.1563)" class="st19" width="1" height="36.8"/>
</g>
<path class="st19" d="M113.3,201.7H62.4c-1.7,0-3-1.3-3-3v-25.5c0-1.7,1.3-3,3-3h50.8c1.7,0,3,1.3,3,3v25.5
	C116.3,200.3,114.9,201.7,113.3,201.7z"/>
<path class="st15" d="M111.8,200.2H62.4c-1.6,0-2.9-1.3-2.9-2.9v-24.1c0-1.6,1.3-2.9,2.9-2.9h49.5c1.6,0,2.9,1.3,2.9,2.9v24.1
	C114.8,198.8,113.5,200.2,111.8,200.2z"/>
<g>
	<path class="st16" d="M91.6,185.3H111c0.4,0,0.8-0.4,0.8-0.9l0,0c0-0.5-0.4-0.9-0.8-0.9H91.6c-0.4,0-0.8,0.4-0.8,0.9l0,0
		C90.8,184.9,91.1,185.3,91.6,185.3z"/>
	<path class="st16" d="M91.5,189.3H111c0.4,0,0.8-0.4,0.8-0.9l0,0c0-0.5-0.3-0.9-0.8-0.9H91.5c-0.4,0-0.8,0.4-0.8,0.9l0,0
		C90.8,188.9,91.1,189.3,91.5,189.3z"/>
	<path class="st16" d="M91.5,193.4H111c0.4,0,0.8-0.4,0.8-0.9l0,0c0-0.5-0.3-0.9-0.8-0.9H91.5c-0.4,0-0.8,0.4-0.8,0.9l0,0
		C90.8,192.9,91.1,193.4,91.5,193.4z"/>
	<path class="st16" d="M98.6,179.1h12.3c0.5,0,0.9-0.5,0.9-1.1l0,0c0-0.6-0.4-1.1-0.9-1.1H98.6c-0.5,0-0.9,0.5-0.9,1.1l0,0
		C97.7,178.6,98.1,179.1,98.6,179.1z"/>
	<path class="st16" d="M91.5,179.1h2.8c0.4,0,0.7-0.4,0.7-0.8v-0.4c0-0.5-0.3-0.8-0.7-0.8h-2.8c-0.4,0-0.7,0.4-0.7,0.8v0.4
		C90.8,178.7,91.1,179.1,91.5,179.1z"/>
</g>
<path class="st19" d="M113.3,110.1H62.4c-1.7,0-3-1.3-3-3V81.6c0-1.7,1.3-3,3-3h50.8c1.7,0,3,1.3,3,3v25.5
	C116.3,108.8,114.9,110.1,113.3,110.1z"/>
<path class="st15" d="M111.8,108.6H62.4c-1.6,0-2.9-1.3-2.9-2.9V81.6c0-1.6,1.3-2.9,2.9-2.9h49.5c1.6,0,2.9,1.3,2.9,2.9v24.1
	C114.8,107.3,113.5,108.6,111.8,108.6z"/>
<g>
	<path class="st16" d="M91.6,93.8H111c0.4,0,0.8-0.4,0.8-0.9l0,0c0-0.5-0.4-0.9-0.8-0.9H91.6c-0.4,0-0.8,0.4-0.8,0.9l0,0
		C90.8,93.4,91.1,93.8,91.6,93.8z"/>
	<path class="st16" d="M91.5,97.8H111c0.4,0,0.8-0.4,0.8-0.9l0,0c0-0.5-0.3-0.9-0.8-0.9H91.5c-0.4,0-0.8,0.4-0.8,0.9l0,0
		C90.8,97.4,91.1,97.8,91.5,97.8z"/>
	<path class="st16" d="M91.5,101.8H111c0.4,0,0.8-0.4,0.8-0.9l0,0c0-0.5-0.3-0.9-0.8-0.9H91.5c-0.4,0-0.8,0.4-0.8,0.9l0,0
		C90.8,101.4,91.1,101.8,91.5,101.8z"/>
	<path class="st16" d="M98.6,87.6h12.3c0.5,0,0.9-0.5,0.9-1.1l0,0c0-0.6-0.4-1.1-0.9-1.1H98.6c-0.5,0-0.9,0.5-0.9,1.1l0,0
		C97.7,87.1,98.1,87.6,98.6,87.6z"/>
	<path class="st16" d="M91.5,87.6h2.8c0.4,0,0.7-0.4,0.7-0.8v-0.4c0-0.5-0.3-0.8-0.7-0.8h-2.8c-0.4,0-0.7,0.4-0.7,0.8v0.4
		C90.8,87.2,91.1,87.6,91.5,87.6z"/>
</g>
<path class="st19" d="M164.1,90.1H215c1.7,0,3-1.3,3-3V61.6c0-1.7-1.3-3-3-3h-50.8c-1.7,0-3,1.3-3,3v25.5
	C161.1,88.7,162.5,90.1,164.1,90.1z"/>
<path class="st15" d="M165.6,88.6H215c1.6,0,2.9-1.3,2.9-2.9V61.5c0-1.6-1.3-2.9-2.9-2.9h-49.5c-1.6,0-2.9,1.3-2.9,2.9v24.1
	C162.6,87.3,163.9,88.6,165.6,88.6z"/>
<g>
	<path class="st16" d="M190.5,73.7h-23.8c-0.6,0-1.1-0.4-1.1-0.9l0,0c0-0.5,0.5-0.9,1.1-0.9h23.8c0.6,0,1.1,0.4,1.1,0.9l0,0
		C191.6,73.3,191.1,73.7,190.5,73.7z"/>
	<path class="st16" d="M190.6,77.8h-23.9c-0.6,0-1-0.4-1-0.9l0,0c0-0.5,0.5-0.9,1-0.9h23.9c0.6,0,1,0.4,1,0.9l0,0
		C191.6,77.4,191.1,77.8,190.6,77.8z"/>
	<path class="st16" d="M190.6,81.8h-23.9c-0.6,0-1-0.4-1-0.9l0,0c0-0.5,0.5-0.9,1-0.9h23.9c0.6,0,1,0.4,1,0.9l0,0
		C191.6,81.4,191.1,81.8,190.6,81.8z"/>
	<path class="st16" d="M180.8,67.5h-14c-0.7,0-1.2-0.5-1.2-1.1l0,0c0-0.6,0.5-1.1,1.2-1.1h14c0.6,0,1.2,0.5,1.2,1.1l0,0
		C182,67,181.5,67.5,180.8,67.5z"/>
	<path class="st16" d="M190.6,67.5h-3.9c-0.6,0-1-0.4-1-0.8v-0.4c0-0.5,0.5-0.8,1-0.8h3.9c0.6,0,1,0.4,1,0.8v0.4
		C191.6,67.1,191.2,67.5,190.6,67.5z"/>
</g>
<g>
	<path class="st1" d="M210.4,275.5c-0.3-1-0.6-1.9-1-2.9c-2.1-6.5-3.8-12-4.1-13.3c-0.1-0.4-0.2-1.3-0.2-2.5l0,0
		c-0.1-4.2,0.1-12.4,0.3-18.9l0,0v-0.1c0-0.3,0-0.6,0-0.8l0,0v-0.1c0-1.1,0.1-2.2,0.1-3.2c0.1-2.4,0.2-4.2,0.2-4.9v-0.3l0,0
		c0.1,0,2.7-1.5,6.3,1.1c0.9,0.6,1.6,2.1,2.4,4.1c0.5,1.2,0.9,2.7,1.3,4.2c1.6,5.8,2.7,12.7,3.3,14.6c1,3,12.2,16.2,13,17l0,0v-20.8
		l-8.5-22.8l-3.5-9.4l-1.8-4.7c0,0-2.7-4.4-5-9.8c-1-2.3-1.9-4.8-2.5-7.2c-0.1-0.6-0.2-1.1-0.3-1.7l0,0c-0.3-2-0.4-3.9,0.1-5.4
		c0.8-2.7,2.7-3.2,4.1-3.2c0.1,0,0.3,0,0.4,0c0.1,0,0.3,0,0.4,0.1c0.3,0.1,0.5,0.2,0.7,0.3l0,0c0.4,0.2,0.7,0.5,0.9,0.9
		c0,0,1.2,1.6,2.8,3.7c1.1,1.4,2.3,3,3.5,4.6c2.1,2.8,4.1,5.4,4.6,6.2c2.9,4.1,10.8,17.6,10.8,17.6l9.2,0.4c1.5,0.1,2.9,0.6,3.9,1.6
		c3.3,3.1,10.4,9.7,11.2,10.7c0,0.3,5.5,3,9.8,5.3c3,1.3,8.8,5.8,8.8,5.8c1.2,1.1,2.1,2.1,2.6,3.1c1.2,2.5,3.5,16.1,5.7,30.7
		L210.4,275.5z"/>
	<path class="st5" d="M238.8,217.7c0,0,8.6,14,9.7,14.6c1.1,0.6,5.5,1.5,6,0C255.1,230.8,238.8,217.7,238.8,217.7z"/>
	<path class="st5" d="M281.9,241.6C281.8,241.6,281.8,241.6,281.9,241.6c0,0-5.8-4.6-8.9-5.9c-3.9-2.2-8.9-4.6-9.6-5.2
		c0.9,1,7.3,8.3,9.7,8.8C275.2,239.8,280.1,241.1,281.9,241.6z"/>
	<path class="st5" d="M231.9,269.3v-20.8c0,0,4.9,8.3,5.3,12.8S235.2,273.1,231.9,269.3z"/>
	<path class="st20" d="M214,193c-0.7-1.2-2-3.5-2.5-4.7c-0.1-0.4-0.1-1.1,0.3-1.8c0.3-0.5,0.7-0.9,1.3-1.3c0.3-0.2,0.6-0.4,0.9-0.5
		c0.4-0.1,0.8-0.2,1.2-0.2s0.7,0.2,1,0.6l0,0c0.9,1.2,1.9,2.9,2.7,4.5c0.5,1.1,0.3,2.3-0.4,2.8l-0.3,0.3l-1.8,1.3
		C215.6,194.3,214.6,194,214,193z"/>
	<path class="st6" d="M214,193c-0.7-1.2-2-3.5-2.5-4.7c-0.1-0.4-0.1-1.1,0.3-1.8c0.1-0.1,0.2-0.2,0.4-0.3c0.3-0.2,0.6-0.4,0.9-0.5
		c0.4-0.1,0.8-0.2,1.2-0.2s0.7,0.2,1,0.6l0,0c0.9,1.2,1.9,2.9,2.7,4.5c0.3,0.7,0.4,1.4,0.2,2l-1.8,1.3
		C215.6,194.3,214.6,194,214,193z"/>
	<path class="st5" d="M205.4,236.8L205.4,236.8c1-0.4,2.4-0.6,3.1,0.5c1.1,1.8-2.9,17.5-3.4,19.4L205.4,236.8z"/>
	<path class="st6" d="M205.7,228.3l-0.3,9.5c0,0,2,0.3,3.1-0.5S209,228.2,205.7,228.3z"/>
</g>
<g>
	<g>
		<path class="st1" d="M232.3,167.7l-1.4,0.5l-9.3,3.5c-0.2,0.1-0.4,0.2-0.7,0.2c-3.1,0.8-6.3-0.8-7.5-3.9l-0.1-0.4
			c-1.2-3.2,0.4-6.9,3.7-8.1l8.6-3.3l0.6-0.2l1.4-0.5c3.2-1.2,6.9,0.4,8.1,3.7l0.1,0.4C237.2,162.8,235.6,166.5,232.3,167.7z"/>
		<path class="st20" d="M224.8,167.9c-1.5,0.6-4.3,1.6-5.8,1.8c-0.4,0.1-1.2-0.2-1.9-1c-0.4-0.5-0.9-1.2-1.2-2.1
			c-0.1-0.4-0.3-0.9-0.3-1.3c-0.1-0.5,0-1.1,0.1-1.6s0.4-0.9,0.9-1.1l0,0c1.6-0.8,3.7-1.7,5.6-2.2c1.3-0.4,2.6,0.2,3,1.4l0.2,0.5
			l1,2.7C226.7,166.2,226.1,167.5,224.8,167.9z"/>
		<path class="st6" d="M224.8,167.9c-1.5,0.6-4.3,1.6-5.8,1.8c-0.4,0.1-1.2-0.2-1.9-1c-0.1-0.2-0.1-0.4-0.2-0.6
			c-0.1-0.4-0.3-0.9-0.3-1.3c-0.1-0.5,0-1.1,0.1-1.6s0.4-0.9,0.9-1.1l0,0c1.6-0.8,3.7-1.7,5.6-2.2c0.8-0.2,1.7-0.1,2.3,0.4l1,2.7
			C226.7,166.2,226.1,167.5,224.8,167.9z"/>
	</g>
	<g>
		<path class="st1" d="M228.1,180.7l-7.1,1.9c-2.2,0.6-4.4-0.7-5-2.9l-0.2-0.8c-0.6-2.2,0.7-4.4,2.9-5l7.1-1.9
			c2.2-0.6,4.4,0.7,5,2.9l0.2,0.8C231.6,177.9,230.3,180.2,228.1,180.7z"/>
		<path class="st20" d="M224.3,180.4c-1.3,0.4-3.7,1-4.9,1c-0.5,0-1.4-0.4-1.9-1.5c-0.1-0.3-0.3-0.6-0.4-1c-0.1-0.4-0.2-0.7-0.2-1.1
			c0-0.4,0-0.8,0.2-1.2c0.1-0.4,0.4-0.7,0.8-0.8l0,0c1.4-0.5,3.2-1.1,4.8-1.3c1.1-0.2,2.1,0.3,2.4,1.2l0.2,0.6l0.6,1.9
			C226,179.2,225.3,180.1,224.3,180.4z"/>
		<path class="st6" d="M224.3,180.4c-1.3,0.4-3.7,1-4.9,1c-0.5,0-1.4-0.4-1.9-1.5c-0.1-0.3-0.1-0.7-0.1-1c0-0.4,0-0.8,0.2-1.2
			c0.1-0.4,0.4-0.7,0.8-0.8l0,0c1.4-0.5,3.2-1.1,4.8-1.3c0.9-0.2,1.8,0.2,2.2,0.8l0.6,1.9C226,179.2,225.3,180.1,224.3,180.4z"/>
	</g>
	<g>
		<path class="st1" d="M232.1,154c-0.1,0-0.1,0-0.2,0.1l-9.4,2.4c-4.1,1.1-8.4-1.2-9.5-5l-0.6-1.9c-1-3.6,1.2-7.4,5-8.7l3.1-0.8
			l6.3-1.6c4.1-1.1,8.4,1.2,9.5,5l0.6,1.9C238,149,235.8,152.7,232.1,154z"/>
		<path class="st20" d="M227.8,151.4l-4.6,2.1l0,0c-0.2,0-0.4,0.1-0.6,0.1c-0.1,0-0.2,0-0.2,0h-0.1c-0.5,0-0.8-0.5-0.6-1
			c0.4-0.9,0.5-2,0.3-3.1l-0.1-0.4l0,0l-0.4-1.3c-0.3-1-0.9-1.9-1.6-2.5c-0.1-0.1-0.2-0.1-0.3-0.2c-0.9-0.6-0.7-2,0.4-2.3l0,0l5-0.8
			c1.2-0.3,2.4,0.6,2.8,1.8l0.4,1.5l0.9,3.1C229.3,149.7,229,151.1,227.8,151.4z"/>
		<path class="st6" d="M227.8,151.4l-4.6,2.1l0,0c-0.1,0-0.4,0.1-0.9,0.1s-0.8-0.5-0.6-1c0.4-0.9,0.5-2,0.3-3.1l-0.1-0.4l0,0
			l-0.4-1.3c-0.3-1-0.9-1.9-1.6-2.5c0.2-0.2,0.4-0.4,0.7-0.5l0,0l5-0.8c1-0.3,2,0.3,2.5,1.3l0.9,3.1
			C229.3,149.7,229,151.1,227.8,151.4z"/>
	</g>
</g>
<path class="st4" d="M91.2,230.9c3,0,5.5-2.5,5.5-5.5s-2.5-5.5-5.5-5.5s-5.5,2.5-5.5,5.5S88.1,230.9,91.2,230.9z M91.2,223.3
	c1.2,0,2.2,1,2.2,2.2s-1,2.2-2.2,2.2s-2.2-1-2.2-2.2C88.9,224.3,89.9,223.3,91.2,223.3z"/>
<g>
	<path class="st4" d="M118.9,55.4c1.6-0.3,3.3-0.4,4.9,0c3,0.7,5.4,3.1,6.7,5.8c0.9,1.8,1.5,4,3.2,5.1c1.3,0.9,3,1,4.5,0.9l0.5,4.8
		c0,0-4.6,0.5-7.1-1.4c-2.3-1.7-3.5-3.8-4.4-6.3c-0.6-1.6-1.6-3.2-3.2-4c-1.2-0.7-3.3-1.1-4.7-0.6L118.9,55.4z"/>
</g>
<g>
	<path class="st2" d="M86.8,246.5h-0.5c-10.8-0.3-16.6-6.2-17-17.7v-0.5H77v0.5c0,3.1,0.9,5.4,2.7,7.1c2.7,2.6,6.6,2.5,6.7,2.5h0.5
		L86.8,246.5L86.8,246.5z M70.3,229.3c0.6,10.4,5.7,15.7,15.5,16.2v-6.1c-1.2-0.1-4.5-0.4-6.9-2.7c-1.8-1.7-2.8-4.2-3-7.3
		L70.3,229.3L70.3,229.3z"/>
</g>
<g>
	<g>
		<path class="st4" d="M293.9,90.1c0,1.9-0.2,3.7-1.6,5.1c-0.9,0.8-2.1,1.3-3.2,1.8c-2.1,1-3.8,2.2-5.3,4c-0.2,0.2-0.2,0.5,0,0.7
			c1.1,1,2.2,1.9,3.3,2.9c0.2,0.2,0.6,0.2,0.8-0.1c1.1-2.4,3.7-2.8,5.8-3.9c1.7-0.8,3.3-2.1,4.5-3.6c1.5-2.1,1.8-5,1.5-7.5
			c0-0.2-0.2-0.5-0.5-0.5c-1.6,0.2-3.2,0.4-4.8,0.5c-0.6,0.1-0.6,1.1,0,1c1.3-0.1,3,0,4.1-0.5c0.2-0.1,1,0.1,0.4-0.3
			c-0.5-0.3,0-0.1-0.2,0.2c-0.4,0.8,0,2.6-0.2,3.5c-0.7,3.4-3.5,5.5-6.5,6.7c-1.9,0.8-4,1.7-5,3.7c0.3,0,0.5-0.1,0.8-0.1
			c-0.5-0.4-2.5-1.7-2.7-2.3c-0.2-0.8,0.3-1.1,0.9-1.6c1.6-1.4,3.5-2,5.3-3c2.8-1.5,3.5-3.8,3.5-6.9
			C294.9,89.5,293.9,89.4,293.9,90.1z"/>
	</g>
</g>
<g>
	<rect x="37.5" y="275.5" class="st19" width="300" height="0.8"/>
</g>
<g>
	<circle class="st15" cx="144.5" cy="138.2" r="13"/>
	<path class="st19" d="M144.5,125.7c6.9,0,12.5,5.6,12.5,12.5s-5.6,12.5-12.5,12.5s-12.5-5.6-12.5-12.5S137.6,125.7,144.5,125.7
		 M144.5,124.7c-7.4,0-13.5,6.1-13.5,13.5s6.1,13.5,13.5,13.5s13.5-6.1,13.5-13.5S152,124.7,144.5,124.7L144.5,124.7z"/>
</g>
<g>
	<path class="st13" d="M144.5,135.8c1.3,0,2.5,0.3,3.5,0.7c0.9,0.4,1.5,1.3,1.5,2.3v2.3c0,0.6-0.4,1-1,1h-8c-0.6,0-1-0.4-1-1v-2.3
		c0-1,0.6-1.9,1.5-2.3C142,136.2,143.2,135.8,144.5,135.8z M137.9,136.1c0.9,0,1.7-0.7,1.7-1.7s-0.8-1.7-1.7-1.7s-1.7,0.8-1.7,1.7
		S136.9,136.1,137.9,136.1z M138.8,137c-0.3-0.1-0.6-0.1-0.9-0.1c-0.8,0-1.6,0.2-2.3,0.5c-0.6,0.3-1,0.9-1,1.6v2.2c0,0.6,0.4,1,1,1
		h1.8c0.6,0,1-0.4,1-1v-2.3C138.3,138.2,138.5,137.5,138.8,137z M151.2,136.1c0.9,0,1.7-0.7,1.7-1.7s-0.8-1.7-1.7-1.7
		s-1.7,0.8-1.7,1.7S150.3,136.1,151.2,136.1z M154.5,139c0-0.7-0.4-1.3-1-1.6c-0.7-0.3-1.5-0.5-2.3-0.5c-0.3,0-0.6,0-0.9,0.1
		c0.3,0.6,0.5,1.2,0.5,1.9v2.3c0,0.6,0.4,1,1,1h1.8c0.6,0,1-0.4,1-1L154.5,139z M144.5,130.2c1.4,0,2.5,1.1,2.5,2.5
		s-1.1,2.5-2.5,2.5s-2.5-1.1-2.5-2.5S143.1,130.2,144.5,130.2z"/>
</g>
<g>
	<path class="st13" d="M74.3,176.2l-7.2,2.7v5.5c0,4.5,3.1,8.8,7.2,9.8c4.1-1,7.2-5.3,7.2-9.8v-5.5L74.3,176.2L74.3,176.2z"/>
	<polygon class="st14" points="72.9,186.1 69.8,186.1 69.8,183.4 72.9,183.4 72.9,180.2 75.6,180.2 75.6,183.4 78.8,183.4 
		78.8,186.1 75.6,186.1 75.6,189.2 72.9,189.2 	"/>
</g>
<g>
	<g>
		<g>
			<path class="st13" d="M78.3,84.6h-7.5l-5.3,5.3v7.5l5.3,5.3h7.5l5.3-5.3v-7.5L78.3,84.6z"/>
			<rect x="73.5" y="87.6" class="st14" width="2" height="8"/>
			<rect x="73.5" y="97.6" class="st14" width="2" height="2"/>
		</g>
	</g>
</g>
<g>
	<g>
		<g>
			<path class="st13" d="M195.9,80.8c-0.3,0.6,0.1,1.3,0.7,1.3h16.6c0.6,0,1.1-0.7,0.7-1.3l-8.3-14.3c-0.3-0.6-1.1-0.6-1.5,0
				L195.9,80.8z"/>
			<polygon class="st14" points="205.8,78.1 204.1,78.1 204.1,79.9 205.8,79.9 			"/>
			<polygon class="st14" points="205.8,70.1 204.1,70.1 204.1,76.3 205.8,76.3 			"/>
		</g>
	</g>
</g>
<g>
	<path class="st2" d="M305.7,216.2c-3.3,0-6-2.7-6-6s2.7-6,6-6s6,2.7,6,6S309,216.2,305.7,216.2z M305.7,205.2c-2.8,0-5,2.2-5,5
		s2.2,5,5,5s5-2.2,5-5S308.5,205.2,305.7,205.2z"/>
</g>
<path class="st4" d="M136.8,275.5l12.9-14.7l-1.5,14.7h17.4c-0.1-6.1-0.1-14.5-0.1-21.1c0,0-13.2-3.7-24.9-10
	c0,0-12.6,16.7-29.5,18.5c5.7,3.7,14.8,9.5,21.8,12.6H136.8z"/>
</svg>
