<?xml version="1.0" encoding="utf-8"?>
<!-- Generator: Adobe Illustrator 22.0.0, SVG Export Plug-In . SVG Version: 6.00 Build 0)  -->
<svg version="1.1" id="Layer_1" xmlns="http://www.w3.org/2000/svg" xmlns:xlink="http://www.w3.org/1999/xlink" x="0px" y="0px"
	 viewBox="0 0 375 667" style="enable-background:new 0 0 375 667;" xml:space="preserve">
<style type="text/css">
	.st0{fill:url(#SVGID_1_);}
	.st1{fill:url(#SVGID_2_);}
	.st2{fill:url(#SVGID_3_);}
	.st3{fill:url(#SVGID_4_);}
	.st4{opacity:0.3;fill:#FFFFFF;}
	.st5{fill:#155A79;}
</style>
<linearGradient id="SVGID_1_" gradientUnits="userSpaceOnUse" x1="187.5" y1="667" x2="187.5" y2="2.728484e-12">
	<stop  offset="0" style="stop-color:#FFEBEB"/>
	<stop  offset="1" style="stop-color:#FEAEAE"/>
</linearGradient>
<rect y="0" class="st0" width="375" height="667"/>
<linearGradient id="SVGID_2_" gradientUnits="userSpaceOnUse" x1="187.4989" y1="667" x2="187.4989" y2="140.9851">
	<stop  offset="0" style="stop-color:#FFEBEB"/>
	<stop  offset="1" style="stop-color:#FF9999"/>
</linearGradient>
<path class="st1" d="M0,486.8c6.5-6.4,14.9-10.4,22.6-16c7.3-5.3,12-13.6,15.1-22.1s4.8-17.5,7.8-26c1.9-5.4,7.2-4.2,11.6-5.4
	c4.7-1.3,7.5-6.3,8.5-11.1c1-4.8,0.7-9.8,1.9-14.6c2.5-9.7,15.8-19.3,11.2-28.2c-1.9-3.6-0.1-8.2,2.8-11.1c2.9-2.9,6.7-4.7,9.9-7.2
	c3.9-3,7.1-7,9.1-11.5c0.8-1.8,1.5-3.8,3.2-4.8c2.6-1.5,6,0.2,7.6,2.7c1.6,2.5,2.1,5.6,3,8.4c2.7,8.6,9.7,15,17.1,20.2
	c7.3,5.2,16.3,9.6,25,7.5c9.7-2.4,16.7-11.7,20.2-21.1c2-5.3,6.7-8.9,11.6-11.8c4.8-2.9,10-5.4,13.8-9.5c8.3-9.1,6.1-24.6,15.5-32.5
	c4.4-3.7,7.8-8.4,9.9-13.7c1.1-2.7,1.9-5.7,3.6-8s4.9-4,7.6-3c1.6,0.6,2.7,1.9,3.9,3.2c4.5,5,11,9.3,17.6,7.8
	c5.8-1.4,9.7-6.9,12.2-12.4c2.6-5.4,3.6-11.2,8.8-14.3c5.4-3.2,9.5-8.5,11.2-14.5c1.6-5.6,1.3-11.6,3-17.1c2.5-8.3,9.3-14.6,15.1-21
	c6.1-6.7,11.4-14.1,15.3-22.4c3-6.5,5.1-13.4,8.2-19.8c3.2-6.4,7.7-12.5,14.2-15.6c1-0.5,2.2-0.9,3.3-0.7c1.2,0.3,2.1,1.3,2.8,2.2
	c3.6,4.7,6,10.3,10,14.8c2.8,3.1,6.9,5.6,11,5.8V667H0L0,486.8z"/>
<linearGradient id="SVGID_3_" gradientUnits="userSpaceOnUse" x1="187.4988" y1="667" x2="187.4988" y2="375.7754">
	<stop  offset="0" style="stop-color:#FFEBEB"/>
	<stop  offset="1" style="stop-color:#FF9999"/>
</linearGradient>
<path class="st2" d="M375,490.3c-7.1-4.3-10.5-13.3-12.7-21.6c-2.5-9.2-5-19.4-12.8-24.8c-4-2.8-8.9-3.9-13.3-6.1
	c-10.9-5.3-17.8-16.3-23.4-27c-5.6-10.8-10.7-22.2-19.8-30.2c-3.2-2.8-7.3-5.2-11.5-4.6c-3.8,0.5-6.9,3.5-8.7,6.8
	c-1.8,3.4-2.4,7.2-3,11c-1.3,7.9-2.3,16.3-7.5,22.3c-5.8,6.7-14.6,10.8-18.4,18.8c-2.8,5.9-2.4,13.3-6.5,18.5
	c-3.9,5-11.8,6.4-17.2,2.9c-4.4-2.8-6.8-8.1-11.3-10.7c-7.9-4.7-17.7,0.5-26.6,2.6c-7.8,1.9-16,1.3-23.9,2.1
	c-8,0.9-16.4,3.6-21,10.1c-15,21.2-40.8,35.5-63.5,48.1c-10.4,5.8-22,11.7-26.5,22.6c-3.6,8.7-15.3,14-23.8,17.8
	c-8.4,3.7-17.3,7.2-23.6,13.8V667h375L375,490.3z"/>
<linearGradient id="SVGID_4_" gradientUnits="userSpaceOnUse" x1="187.4988" y1="667" x2="187.4988" y2="503.2603">
	<stop  offset="0" style="stop-color:#FFD7D7"/>
	<stop  offset="0.1161" style="stop-color:#DBC4C9"/>
	<stop  offset="0.3577" style="stop-color:#959FAD"/>
	<stop  offset="0.5756" style="stop-color:#5E8196"/>
	<stop  offset="0.762" style="stop-color:#366C86"/>
	<stop  offset="0.9096" style="stop-color:#1E5F7D"/>
	<stop  offset="1" style="stop-color:#155A79"/>
</linearGradient>
<path class="st3" d="M375,605.4c-17.8-2.4-32-17-49.6-21.4c-6.2-1.6-12.6-1.8-18.9-3.2c-7.3-1.7-14.2-5-20.8-8.5
	c-18.3-9.8-35.5-21.8-51-35.6c-6.2-5.5-12.1-11.3-19-15.9c-6.9-4.6-14.8-7.9-23.1-7.8c-3.5,0-7,0.7-10.6,0.4
	c-3.5-0.3-7.9-0.7-9.5-3.8c-3.1-5.8-11.1-8.2-16.9-5.1c-3,1.6-5.2,4.3-7.3,6.9c-3.8,4.8-7.6,9.5-11.5,14.3
	c-4.3,5.4-9.4,11.3-16.3,11.9c-5.6,0.5-10.8-2.5-16.1-4.2c-18.3-5.8-34.6,3.3-46.5,16.8c-4.5,5.1-8.5,10.9-14.6,13.8
	c-3.5,1.7-7.7,2.3-10.5,5c-3.4,3.3-3.7,8.5-5.5,12.8c-2.2,5-6.7,8.9-11.7,11.1c-4.9,2.2-10.3,3-15.7,3.3V667h375V605.4z"/>
<path class="st4" d="M375,177.5c-9.6-2-19.2-4.1-28.8-6.1c-11.3-2.4-23.1-4.8-34.4-2.5c-8.6,1.7-16.4,6-24.6,9
	c-16,5.8-33.4,6.6-50.5,7.3c-24.1,1-48.3,2-72.4,3c-3.8,0.3-3.1,2.9,1.7,3.5c48.8,4.9,98,5.6,146.7-0.3c20.8-2.5,42-6.7,62.4-2.2
	L375,177.5z"/>
<path class="st4" d="M0,254.6c6.8-1.4,13.5-2.9,20.3-4.3c8-1.7,16.2-3.4,24.2-1.8c6,1.2,11.5,4.2,17.3,6.3
	c11.3,4.1,23.5,4.7,35.5,5.2c17,0.7,34,1.4,51,2.1c2.7,0.2,2.2,2-1.2,2.5c-34.3,3.4-69,4-103.2-0.2c-14.6-1.8-29.6-4.7-43.9-1.6
	L0,254.6z"/>
<path class="st4" d="M0,94.8c5.7-2.6,12.2-3.4,18.5-3.1c8.1,0.3,16.2,2.1,24.3,2.5c29.6,1.7,59.3-13.3,88.1-6.4
	c10.3,2.5,19.7,7.6,29.9,10.3c25.1,6.6,51.3-2.3,77.1-4.2c11-0.8,22-0.3,33.1,0.1c12.5,0.5,24.9,1.1,37.4,1.6c1.4,0.1,2.8,0.2,3.9,1
	c1.1,0.9,1.3,2.8,0.1,3.5c-8,0.2-16,0.4-24,0.6c-18.5,0.4-37.2,0.9-55.2,5.3c-8.9,2.2-17.4,5.3-26.2,7.8
	c-23.9,6.6-49.3,7.9-73.8,3.7c-12.4-2.1-24.5-5.6-37-7.1c-11.1-1.3-22.3-1-33.5-0.8c-20.9,0.5-41.8,1.1-62.8,1.6L0,94.8z"/>
<path class="st5" d="M277.3,667c-11.4-6.7-18.8-20.2-30.9-26.3c-6.5-3.2-13.9-4.1-20.9-6c-7.8-2.1-15.2-5.4-21.8-9.9
	c-9.7-6.5-18.2-15.5-29.6-18.4c-8.1-2-16.6-0.6-24.8-1.3c-13.8-1-27.2-7.7-40.9-5.8c-4.8,0.6-9.7,2.3-14.3,0.8
	c-11.8-3.8-10-22.7-20-30.1c-3.5-2.6-8.1-3.4-11.1-6.5c-2.8-2.9-3.6-7.1-5.3-10.8c-1.6-3.7-4.9-7.4-8.9-6.8
	c-3.6,0.5-6.2,4.2-9.8,4.3c-3.6,0.1-6-3.4-8-6.5c-8.1-12.7-18.7-23.9-31-32.7V667L277.3,667"/>
</svg>
