<?xml version="1.0" encoding="utf-8"?>
<!-- Generator: Adobe Illustrator 22.0.0, SVG Export Plug-In . SVG Version: 6.00 Build 0)  -->
<svg version="1.1" id="Layer_1" xmlns="http://www.w3.org/2000/svg" xmlns:xlink="http://www.w3.org/1999/xlink" x="0px" y="0px"
	 viewBox="0 0 375 667" style="enable-background:new 0 0 375 667;" xml:space="preserve">
<style type="text/css">
	.st0{fill:#FFEBEB;}
	.st1{fill:#FE9A9A;}
	.st2{fill:#155A79;}
	.st3{fill:#228DBF;}
	.st4{fill:#FFC247;}
	.st5{fill:#1C739C;}
	.st6{fill:none;stroke:#1C739C;stroke-width:0.75;stroke-miterlimit:10;}
	.st7{fill:#0F4057;}
	.st8{fill:#97D2ED;}
	.st9{fill:#FE7C7B;}
	.st10{fill:#52B3E0;}
	.st11{fill:#FFBB99;}
	.st12{fill:#EB996E;}
	.st13{fill:#263238;}
	.st14{fill:none;stroke:#FFFFFF;stroke-width:0.5;stroke-linecap:round;stroke-linejoin:round;stroke-miterlimit:10;}
	.st15{fill:#FE7272;}
	.st16{fill:none;stroke:#FE7C7B;stroke-miterlimit:10;}
</style>
<rect class="st0" width="375" height="667"/>
<g>
	<g>
		<path class="st1" d="M151.4,275.5h0.8c-0.6-1.4-1.3-2.8-2.1-4.1c-3.7-6.6-8.7-12.3-13.6-18c-5.3-6.1-10.6-12.4-14-19.8
			c-3.8-8.2-4-17.1-4.3-26c-0.3-9.2-1.5-18-6.3-26c-0.2-0.4-0.9,0-0.6,0.4c4.6,7.7,5.8,15.9,6.2,24.7c0.3,7.8,0.3,15.8,2.9,23.4
			c4.8,14.1,16.8,23.9,25.3,35.8C147.7,268.6,149.8,271.9,151.4,275.5z"/>
	</g>
	<g>
		<path class="st1" d="M116.9,199c-4.2,0.6-8.6-3.6-10.6-6.8c-0.3-0.4-0.9,0-0.6,0.4c2.3,3.6,6.9,7.8,11.4,7.2
			C117.6,199.6,117.4,198.9,116.9,199L116.9,199z"/>
	</g>
	<g>
		<path class="st1" d="M120.8,230.7c-7.6-0.6-12.8-9.1-13.5-16.1c0-0.5-0.8-0.5-0.8,0c0.7,7.5,6.2,16.1,14.3,16.8
			C121.3,231.5,121.3,230.7,120.8,230.7L120.8,230.7z"/>
	</g>
	<g>
		<path class="st1" d="M132.4,226.3c-0.3,5.7-2.1,11.1-5.5,15.7c-0.3,0.4,0.4,0.8,0.6,0.4c3.4-4.7,5.3-10.2,5.6-16.1
			C133.1,225.8,132.4,225.8,132.4,226.3L132.4,226.3z"/>
	</g>
	<g>
		<path class="st1" d="M140.2,258.2c-4.6,1.1-9-0.1-13.3-1.7c-4.1-1.5-7.9-3.8-9.7-8c-0.2-0.4-0.8-0.1-0.6,0.4c1.8,4,5.4,6.4,9.3,8
			c4.7,1.8,9.6,3.2,14.6,2C140.9,258.8,140.7,258.1,140.2,258.2L140.2,258.2z"/>
	</g>
	<g>
		<path class="st1" d="M149.5,270.2c1.2-6.2-0.3-12.5-4.1-17.5c-0.3-0.4-0.9,0-0.6,0.4c3.7,4.9,5.2,10.9,4,16.9
			C148.7,270.5,149.4,270.7,149.5,270.2L149.5,270.2z"/>
	</g>
	<g>
		<path class="st1" d="M123,211.9c0.1,3.6-1.4,6.9-4.2,9.1c-0.4,0.3,0.2,0.8,0.5,0.5c3-2.4,4.6-5.9,4.4-9.7
			C123.7,211.4,123,211.4,123,211.9L123,211.9z"/>
	</g>
</g>
<path class="st1" d="M129.2,268.1c1.3,2.2,1.6,4.8,1.8,7.4h0.7c-0.2-3-0.6-6-2.3-8.4c-2.7-3.7-8.1-5.1-11.9-7.4
	c-4.9-3-9.5-7.6-9.1-13.8c0.3-4.6,3-9.3,1.3-14c-1.5-3.8-5.9-5.4-7.6-9.1c-1.7-3.5-0.8-7.1,1.7-9.9c1.5-1.6,3.1-3,4-5
	c1.9-3.9,0.4-7.4-1.9-10.8c-1.6-2.4-3.7-5.1-3.5-8.2c0.2-3.5,3.5-5.2,6.5-6.1c3.7-1.2,8.2-1.5,11.8,0.2c5,2.4,5.4,7.4,4.4,12.2
	c-0.7,3.4-1.8,7.2-0.1,10.5c2,3.8,6.3,4.9,10,6.3c2.9,1.1,6.1,2.7,7.2,5.9c1,3-1,5-2.6,7.3c-2.2,3.2-3.5,7.5-2.5,11.3
	c1,4,4.4,6.5,7.7,8.6c2,1.3,3.9,2.5,5.6,4.1c2.4,2.4,2.9,5,2.8,8.3c0,2.2,0.1,4.3,1.4,6.2c1.2,1.8,3.2,3,4.8,4.6
	c1.9,1.9,3.2,4.4,3.8,7h0.8c-0.2-1-0.5-1.9-0.9-2.8c-0.7-1.7-1.8-3.3-3.1-4.7c-2.4-2.4-5.4-4-5.8-7.8c-0.3-2.4,0.3-4.9-0.5-7.3
	c-0.6-1.9-1.9-3.5-3.4-4.8c-4.1-3.7-10.5-5.5-12.2-11.3c-0.9-3-0.2-6.3,1.1-9.1c1.1-2.2,3.2-4,4-6.4c1.2-4-2.2-7.4-5.4-9
	c-5.3-2.6-12.9-3.5-12.8-11c0.1-4.5,2.6-9.1,1-13.6c-1.1-3.2-3.9-5.3-7.1-6.2c-6-1.5-18.5,0.6-17.1,9c1,6.1,8.5,10.2,5.3,16.9
	c-2.2,4.6-7.4,6.6-6.7,12.4c0.3,2.3,1.4,4.4,3,6c2.1,2.1,4.9,3.8,5.7,6.8c1.8,6.3-3.3,12.3-0.5,18.7c2.3,5.3,7.3,8.3,12.2,10.8
	C123.8,263.8,127.4,265.1,129.2,268.1z"/>
<g>
	<path class="st2" d="M164.9,156c-7-4.9-13.7-11-17.9-18.4c-4.4-7.6-6.2-16.5-5.6-25.2c0.4-5.7,1.7-11.6,0.2-17.1
		c-1.6-6-6.4-10.6-11.4-14.3c-5-3.7-10.6-6.7-15-11.1c-7.1-7-10.7-17.3-9.5-27.2c0.6-4.8,2.2-9.5,4-14c4.5-11.2,10.9-22.3,21.2-28.6
		l145.6,0.4c6.7,9.3,9.7,21.2,8.3,32.6s-7.2,22.2-15.9,29.6c-4.7,4-10.3,7.2-14.1,12.2c-5.2,6.9-6,16.1-8.1,24.4
		c-1.3,5.2-3.5,10.6-7.9,13.8c-5.9,4.2-15.1,3.9-18.9,10c-3.4,5.5-1.9,13-4.4,19c-0.9,2.3-2.4,4.5-4.4,6c-1,0.8-2.1,1.2-3.3,1.7
		c-1.2,0.6-2.1,1.7-2.9,2.7c-2.1,2.7-4.6,5-7.2,7.3c-1.7,1.5-3.4,3-5.4,4c-4.7,2.4-9.1,1-13.8-0.6
		C173.7,161.4,169.1,158.9,164.9,156z"/>
</g>
<path class="st3" d="M126.5,176.2c-3,0-5.5,2.5-5.5,5.5s2.5,5.5,5.5,5.5s5.5-2.5,5.5-5.5C132,178.6,129.6,176.2,126.5,176.2z"/>
<g>
	<path class="st4" d="M241.3,262.4c2.4-10.3,7.9-19.9,15.7-27.1c-7.3,7.7-12.2,17.6-13.9,28.1L241.3,262.4z"/>
</g>
<path class="st1" d="M269.8,246.5c-10.2-5.2-17.8,0.7-18.3,1.2C257.8,250.8,263.9,250.4,269.8,246.5z"/>
<path class="st1" d="M257.7,239.2c0.4-0.1,6.9-7.4,18-2.6C269.9,240.3,263.9,241.1,257.7,239.2z"/>
<path class="st1" d="M246.2,255.5c0.2,0,8.9-5.2,20.3,3.2C259,261.5,252.2,260.6,246.2,255.5z"/>
<path class="st1" d="M275.6,219.7c-0.2,0-12.8,1.2-16.8,13.7C267.7,232.3,273.3,227.7,275.6,219.7z"/>
<path class="st1" d="M257.5,215.3c0,0,3.8,11.5-4.6,19.8C249.7,228.7,251.4,220.8,257.5,215.3z"/>
<path class="st1" d="M238.4,252c1.1,0.3,2.2,0.4,3.6,0.4c-0.2-0.9-0.5-1.7-0.9-2.4C240.2,250.7,239.4,251.4,238.4,252z"/>
<g>
	<g>
		<path class="st4" d="M110.8,275.5c-2.8-8.5-7.8-16.3-14.4-22.4c5.9,6.3,10.3,14,12.6,22.3L110.8,275.5z"/>
	</g>
	<path class="st5" d="M83.6,264.3c10.2-5.2,17.8,0.7,18.3,1.2C95.6,268.6,89.5,268.2,83.6,264.3z"/>
	<path class="st5" d="M95.7,257c-0.4-0.1-6.9-7.4-18-2.6C83.5,258.1,89.5,258.9,95.7,257z"/>
	<path class="st5" d="M107.2,273.4c-0.2,0-8.1-4.7-18.7,2.1h15.8C105.3,274.9,106.3,274.2,107.2,273.4z"/>
	<path class="st5" d="M77.8,237.5c0.2,0,12.8,1.2,16.8,13.7C85.6,250.1,80,245.5,77.8,237.5z"/>
	<path class="st5" d="M95.9,233.1c0,0-3.8,11.5,4.6,19.8C103.7,246.5,102,238.6,95.9,233.1z"/>
	<path class="st5" d="M111.5,241c0,0,3.2,12.3-6.4,17.1C104.1,250.7,106.3,245,111.5,241z"/>
	<path class="st5" d="M116.7,253c0,0-6.7,3.2-7.1,11.2C114.1,262.5,116.4,258.7,116.7,253z"/>
	<path class="st5" d="M120.8,263.6c0,0-7.7-0.6-9.4,6.6C116.4,270.4,119.3,268,120.8,263.6z"/>
</g>
<g>
	<g>
		<g>
			<path class="st5" d="M258.1,272.5C258.1,272.4,258.1,272.4,258.1,272.5c0-0.1,0-0.2,0-0.2V272.5z"/>
		</g>
		<g>
			<path class="st5" d="M286.4,232.9c-0.5-0.3-1.1,0.1-1.5,0.5c-2.1,2.3-4,4.8-6.2,7.1c-3.4,3.4-7.6,6.1-10.8,9.7
				c-1.4,1.6-2.6,3.3-3.6,5.1s-1.9,3.8-2.7,5.7c-0.8,2-1.4,4-2,6.1c-0.3,0.9-0.5,1.7-0.7,2.6c-0.1,0.4-0.2,0.9-0.4,1.3
				c-0.1,0.2-0.1,0.5-0.2,0.7s-0.2,0.5,0,0.7c0.1,0.1,0.1,0.1,0.2,0.2s0.2,0.1,0.3,0.1c0.3,0,0.4-0.4,0.5-0.6s0.2-0.4,0.3-0.7
				c0.2-0.4,0.5-0.9,0.7-1.3c0.5-0.8,1.1-1.6,1.8-2.3c1.3-1.5,2.8-2.8,4.3-4.1c1.3-1.1,2.5-2.1,3.8-3.1c8-6.9,13.8-16.3,16.5-26.6
				C286.8,233.8,286.8,233.2,286.4,232.9z"/>
		</g>
	</g>
	<g>
		<g>
			<path class="st5" d="M262.6,273.6C262.6,273.5,262.6,273.5,262.6,273.6c0-0.1,0-0.1,0-0.2V273.6z"/>
		</g>
		<g>
			<path class="st5" d="M295.6,247.1c-0.3-0.4-0.9-0.2-1.4,0.1c-2.3,1.4-4.5,3.1-6.9,4.4c-3.7,2.1-7.8,3.3-11.4,5.6
				c-1.5,1-3,2.2-4.3,3.5s-2.5,2.7-3.6,4.2s-2.2,3-3.1,4.6c-0.4,0.7-0.8,1.3-1.2,2c-0.2,0.3-0.4,0.7-0.6,1c-0.1,0.2-0.2,0.3-0.3,0.5
				c-0.1,0.2-0.3,0.4-0.2,0.6c0,0.1,0.1,0.2,0.1,0.2c0.1,0.1,0.1,0.1,0.2,0.2c0.3,0.1,0.4-0.2,0.5-0.4c0.1-0.2,0.3-0.3,0.4-0.5
				c0.3-0.3,0.6-0.6,0.9-0.9c0.6-0.6,1.3-1.1,2-1.5c1.5-0.9,3-1.7,4.6-2.4c1.3-0.6,2.6-1.1,3.9-1.7c8.3-3.9,15.4-10.4,20.1-18.4
				C295.7,247.9,295.9,247.4,295.6,247.1z"/>
		</g>
	</g>
	<g>
		<g>
			<path class="st5" d="M265.4,277.1L265.4,277.1c0.1-0.1,0.1-0.1,0.1-0.1L265.4,277.1z"/>
		</g>
		<g>
			<path class="st5" d="M295.5,267.1c-0.1-0.3-0.6-0.4-1-0.3c-2,0.4-4,1-6,1.3c-3.1,0.5-6.3,0.3-9.4,1c-1.3,0.3-2.6,0.7-3.9,1.3
				c-1.3,0.6-2.5,1.2-3.6,2c-1.2,0.8-2.3,1.6-3.4,2.4c-0.2,0.2-0.5,0.4-0.7,0.6h9.7c6.5-0.8,12.8-3.4,17.9-7.5
				C295.3,267.7,295.6,267.4,295.5,267.1z"/>
		</g>
	</g>
</g>
<g>
	<g>
		<g>
			<path class="st4" d="M166.6,243.8v-0.1l0.1-0.1L166.6,243.8z"/>
		</g>
		<g>
			<path class="st4" d="M142.9,193.7c0.6-0.3,1.2,0.3,1.5,0.9c1.9,3,3.5,6.2,5.6,9.2c3.1,4.6,7.3,8.4,10.1,13.1
				c1.3,2.1,2.3,4.2,3,6.5c0.8,2.3,1.4,4.6,1.8,7c0.5,2.4,0.8,4.8,1,7.2c0.1,1,0.2,2.1,0.3,3.1c0,0.5,0.1,1,0.1,1.5
				c0,0.3,0,0.5,0.1,0.8c0,0.3,0.1,0.6-0.1,0.8c-0.1,0.1-0.2,0.1-0.3,0.2c-0.1,0-0.2,0.1-0.4,0.1c-0.4,0-0.3-0.5-0.4-0.8
				c-0.1-0.3-0.1-0.5-0.2-0.8c-0.2-0.5-0.3-1-0.6-1.6c-0.4-1-0.9-2-1.5-3c-1.2-1.9-2.6-3.7-4-5.4c-1.2-1.4-2.4-2.8-3.6-4.3
				c-7.6-9.4-12.2-21.1-13.1-33.1C142.3,194.6,142.4,193.9,142.9,193.7z"/>
		</g>
	</g>
	<g>
		<g>
			<path class="st4" d="M161.5,249.3C161.4,249.2,161.4,249.2,161.5,249.3c0-0.1,0-0.2,0-0.2V249.3z"/>
		</g>
		<g>
			<path class="st4" d="M161.2,248.6c-0.1-0.2-0.2-0.4-0.2-0.7c-0.2-0.4-0.3-0.8-0.5-1.3c-0.3-0.8-0.6-1.7-1-2.5
				c-0.8-2-1.6-3.9-2.6-5.8c-0.9-1.9-2-3.7-3.2-5.4s-2.6-3.3-4.1-4.7c-2.3-2.2-5-3.9-7.6-5.7c-0.6,1-1.2,2-1.9,3
				c-0.8,1.3-1.3,2.5-1.8,3.9c2.9,3.6,6.3,6.8,10.1,9.5c1.3,0.9,2.7,1.8,4,2.7c1.6,1.1,3.2,2.3,4.7,3.6c0.7,0.7,1.4,1.4,2,2.1
				c0.3,0.4,0.6,0.8,0.8,1.2c0.1,0.2,0.3,0.4,0.4,0.6c0.1,0.2,0.2,0.6,0.5,0.5c0.1,0,0.2-0.1,0.3-0.1c0.1-0.1,0.2-0.1,0.2-0.2
				C161.5,249.1,161.3,248.9,161.2,248.6z"/>
		</g>
	</g>
	<g>
		<g>
			<path class="st4" d="M157.6,251.6L157.6,251.6c0-0.1,0-0.1,0-0.2V251.6z"/>
		</g>
		<g>
			<path class="st4" d="M157.3,251.3c-0.1-0.1-0.2-0.3-0.3-0.4c-0.2-0.3-0.4-0.5-0.7-0.8c-0.4-0.5-0.9-1-1.3-1.5
				c-1.1-1.2-2.2-2.3-3.3-3.4c-1.1-1.1-2.4-2.1-3.7-3s-2.7-1.7-4.1-2.3c-1.9-0.8-3.8-1.2-5.8-1.7c1.7,2.7,3.3,4.1,5.7,5.7
				c2.1,1.4,7,4.7,6.9,5.1c1,0.3,1.9,0.6,2.9,1c0.7,0.3,1.3,0.6,1.9,1c0.3,0.2,0.6,0.4,0.9,0.6c0.1,0.1,0.3,0.2,0.4,0.3
				c0.1,0.1,0.3,0.4,0.5,0.2c0.1,0,0.1-0.1,0.2-0.2c0-0.1,0.1-0.1,0.1-0.2C157.6,251.5,157.4,251.4,157.3,251.3z"/>
		</g>
	</g>
</g>
<g>
	<g>
		<path class="st1" d="M244.7,230.6c0.8,2.9,2,5.7,2,8.7c0.5,0.4,1,0.7,1.6,1c0.8-6.2-0.6-11.2-4.1-15
			C243.9,227,244.2,228.9,244.7,230.6z"/>
		<g>
			<path class="st5" d="M250.4,217c2.7-3.5,3-8.5,0-11.9c-1.8-2-4.1-3.4-5.3-5.9c-1.9-3.5-0.6-6.8,1.3-9.9c2-3.4,4.8-8.1,1.8-11.9
				c-2.3-3-7.1-3.8-10.6-3.9c-7.8-0.2-14.1,4.6-12.4,12.9c1.2,5.8,3.9,11.7-2.2,15.7c-4.1,2.7-9.8,3.3-12.4,7.9
				c-0.8,1.4-1.2,3-0.8,4.6c0.6,2.4,2.9,4.1,4.1,6.1c1.6,2.5,2.6,5.6,2.3,8.6c-0.4,3.4-2.6,5.9-5.2,7.9c-3.6,2.8-8.3,5.3-9.6,10.1
				c-0.7,2.4,0,4.9-0.1,7.4c-0.2,3.8-3.1,5.6-5.3,8.1c-3,3.4-4.3,8.1-3.6,12.6v0.1h0.8c-0.4-2.2-0.2-4.5,0.4-6.6
				c0.7-2.4,2-4.5,3.7-6.3c1.5-1.5,3.1-2.8,4.1-4.7c0.8-1.6,0.8-3.4,0.7-5.2c-0.2-3.4,0-6.2,2.3-8.9c3.1-3.6,7.7-5.4,10.6-9.2
				c2.3-3.1,2.7-7,1.5-10.6c-0.6-1.8-1.5-3.5-2.7-5c-2-2.6-4.3-4.7-2.5-8.3c2.4-4.8,8.6-5.4,12.6-8.2c3-2.1,4.3-5.1,4-8.7
				c-0.5-4.3-3.2-8.8-1.7-13.2c1.5-4.5,6.1-6.3,10.4-6.4c4.1-0.1,11.1,0.9,12.2,5.6c1.3,5.4-4.4,9.5-5.1,14.6c-0.6,4.1,2,7,4.8,9.6
				c2.6,2.4,4.2,5.2,3.3,8.9c-0.6,2.6-2.3,4.3-4.1,6.1c-3.2,3.3-4.4,6.4-3.4,11c0.7,3.1,2.2,6.2,2.2,9.4c-0.1,3.4-1.7,6.4-4,8.9
				c-4,4.3-9.7,6-14,9.7c-3.9,3.3-3.6,8.4-3.7,13c0,1.5-0.1,3-0.5,4.5h0.8c0.3-1.5,0.4-3,0.4-4.5c0-2.8-0.1-5.8,0.7-8.5
				c1.2-3.6,4.5-5.3,7.5-7.1c4.4-2.6,9-5.3,11.6-9.9c2.7-4.8,1.5-9.2,0-14.2c-1-3.3-1.4-6.9,0.9-9.8
				C247.5,219.9,249.1,218.6,250.4,217z"/>
		</g>
	</g>
	<g>
		<path class="st5" d="M238.8,173.6c-3.7,7.2-4.8,14.7-4.8,22.7c0,9,1,18.1-1.6,26.8c-4.6,15.3-17.4,26.1-25,39.9
			c-2.1,3.8-3.9,8.1-4.9,12.5h0.8c1-4.6,3-9,5.2-12.8c3.7-6.5,8.5-12.4,12.9-18.4c4.3-5.8,8.4-11.8,10.9-18.5
			c2.8-7.5,2.8-15.4,2.6-23.3c-0.2-9.9-0.1-19.4,4.6-28.4C239.6,173.6,239,173.2,238.8,173.6z"/>
	</g>
	<g>
		<path class="st5" d="M234.8,192.1c4.6,0.4,8.9-4.2,10.9-7.8c0.2-0.4-0.4-0.8-0.6-0.4c-1.9,3.4-6,7.8-10.3,7.4
			C234.3,191.3,234.3,192.1,234.8,192.1L234.8,192.1z"/>
	</g>
	<g>
		<path class="st5" d="M232.9,224c7.9-1.2,12.9-10.2,13.2-17.6c0-0.5-0.7-0.5-0.8,0c-0.3,7.1-5,15.8-12.6,16.9
			C232.3,223.3,232.5,224.1,232.9,224L232.9,224z"/>
	</g>
	<g>
		<path class="st5" d="M220.6,212c-1.4,8.4,0.9,16.8,6.3,23.3c0.3,0.4,0.8-0.2,0.5-0.5c-5.2-6.3-7.4-14.5-6.1-22.6
			C221.4,211.8,220.7,211.6,220.6,212L220.6,212z"/>
	</g>
	<g>
		<path class="st5" d="M214.9,252.6c5,0.8,9.6-0.7,14.1-2.7c4-1.8,7.6-4.5,9.2-8.7c0.2-0.5-0.6-0.6-0.7-0.2
			c-1.6,4.2-5.2,6.7-9.2,8.4c-4.2,1.8-8.6,3.3-13.2,2.5C214.7,251.8,214.5,252.5,214.9,252.6L214.9,252.6z"/>
	</g>
	<g>
		<path class="st5" d="M203,275.1c6,0.8,12-1.5,15.8-6.3c0.3-0.4-0.2-0.9-0.5-0.5c-3.6,4.6-9.3,6.9-15,6.1
			C202.7,274.3,202.5,275.1,203,275.1L203,275.1z"/>
	</g>
	<g>
		<path class="st5" d="M207.2,264.2c-1.5-6-0.4-12.1,3-17.2c0.3-0.4-0.4-0.8-0.6-0.4c-3.5,5.3-4.6,11.6-3.1,17.7
			C206.6,264.8,207.4,264.6,207.2,264.2L207.2,264.2z"/>
	</g>
	<g>
		<path class="st5" d="M228.8,204.7c0.1,3.8,1.9,7.2,5.1,9.4c0.4,0.3,0.8-0.4,0.4-0.6c-2.9-2.1-4.6-5.2-4.7-8.8
			C229.5,204.2,228.8,204.2,228.8,204.7L228.8,204.7z"/>
	</g>
</g>
<g>
	<path class="st5" d="M319,306.3H56.1c-0.7,0-1.2-0.4-1.3-1.1c-0.1-0.6,0.2-1.3,0.8-1.5l45.6-20.7c0.2-0.1,0.4-0.1,0.6-0.1h173.6
		c0.2,0,0.4,0,0.6,0.1l43.8,20.7c0.6,0.3,0.9,0.9,0.8,1.5C320.2,305.9,319.7,306.3,319,306.3z M101.7,283.7c-0.1,0-0.2,0-0.3,0.1
		l-45.6,20.7c-0.3,0.2-0.4,0.5-0.4,0.7c0.1,0.2,0.2,0.5,0.6,0.5h263c0.4,0,0.6-0.3,0.6-0.5c0.1-0.2,0-0.5-0.3-0.7l-43.8-20.7
		c-0.1,0-0.2-0.1-0.3-0.1H101.7z"/>
</g>
<line class="st6" x1="37.5" y1="275.5" x2="337.5" y2="275.5"/>
<g>
	<path class="st7" d="M184.7,20.4c2.9,9.3,12.7,14.6,22,11.7s14.6-12.7,11.7-22c-1.4-4.4-4.3-7.9-8-10.1h-17.8
		C185.7,4,182.2,12.4,184.7,20.4z"/>
	<path class="st8" d="M150.7,78.1c0.7,1.8,3.5,0.7,2.8-1.1C152.7,75.2,149.9,76.3,150.7,78.1L150.7,78.1z"/>
	<path class="st8" d="M158.5,83.4c0.7,1.8,3.5,0.7,2.8-1.1C160.6,80.5,157.8,81.6,158.5,83.4L158.5,83.4z"/>
	<path class="st8" d="M155.7,74.3c0.5,1.2,2.3,0.5,1.9-0.7C157.1,72.4,155.3,73.1,155.7,74.3L155.7,74.3z"/>
	<path class="st8" d="M155.9,80c0.5,1.2,2.3,0.5,1.9-0.7C157.3,78,155.4,78.8,155.9,80L155.9,80z"/>
	<path class="st8" d="M153.6,86.2c0.5,1.2,2.3,0.5,1.9-0.7C155,84.3,153.1,85,153.6,86.2L153.6,86.2z"/>
	<path class="st8" d="M157,87.5c0.5,1.2,2.3,0.5,1.9-0.7C158.4,85.6,156.5,86.3,157,87.5L157,87.5z"/>
	<path class="st8" d="M165.9,76.7c0.5,1.2,2.3,0.5,1.9-0.7C167.3,74.8,165.4,75.5,165.9,76.7L165.9,76.7z"/>
	<path class="st8" d="M156.3,70.2c0.4,0.9,1.8,0.3,1.4-0.6C157.4,68.7,156,69.3,156.3,70.2L156.3,70.2z"/>
	<path class="st8" d="M151.4,72.7c0.4,0.9,1.8,0.3,1.4-0.6C152.4,71.2,151,71.8,151.4,72.7L151.4,72.7z"/>
	<path class="st8" d="M163.2,80.2c0.4,0.9,1.8,0.3,1.4-0.6C164.2,78.8,162.8,79.3,163.2,80.2L163.2,80.2z"/>
	<path class="st8" d="M161.8,85.8c0.4,0.9,1.8,0.3,1.4-0.6C162.8,84.4,161.4,84.9,161.8,85.8L161.8,85.8z"/>
	<path class="st8" d="M161.8,85.8c0.4,0.9,1.8,0.3,1.4-0.6C162.8,84.4,161.4,84.9,161.8,85.8L161.8,85.8z"/>
	<path class="st8" d="M148.6,85.7c0.4,0.9,1.8,0.3,1.4-0.6C149.6,84.2,148.2,84.8,148.6,85.7L148.6,85.7z"/>
	<path class="st8" d="M152.1,89.5c0.4,0.9,1.8,0.3,1.4-0.6C153.2,88,151.8,88.6,152.1,89.5L152.1,89.5z"/>
	<path class="st8" d="M146.8,81.2c0.4,0.9,1.8,0.3,1.4-0.6C147.9,79.7,146.5,80.3,146.8,81.2L146.8,81.2z"/>
	<path class="st8" d="M162.1,71.8c0.4,0.9,1.8,0.3,1.4-0.6C163.1,70.4,161.7,70.9,162.1,71.8L162.1,71.8z"/>
	<path class="st8" d="M159.6,76.4c0.7,1.8,3.5,0.7,2.8-1.1C161.6,73.5,158.8,74.6,159.6,76.4L159.6,76.4z"/>
	<path class="st8" d="M151.6,82.5c0.5,1.2,2.3,0.5,1.9-0.7C153,80.6,151.2,81.3,151.6,82.5L151.6,82.5z"/>
	<g>
		<path class="st4" d="M255.6,34.2c7.4-8.4,17.3-14.6,28.2-17.4l0.4,1.8C273.4,20.8,263.3,26.3,255.6,34.2"/>
	</g>
	<path class="st9" d="M263.2,44.9C263.2,44.9,263.1,44.9,263.2,44.9c-0.2,0-0.2-0.1-0.2-0.2c-2.9-12.4,6-18.6,6.1-18.6s0.2,0,0.2,0
		c0.1,0,0.1,0.1,0.1,0.2c1.7,7.3-0.4,13.5-6,18.6C263.3,44.8,263.2,44.9,263.2,44.9z M269,26.7c-1.4,1.2-7.8,7.1-5.6,17.5
		C268.5,39.3,270.4,33.5,269,26.7z"/>
	<path class="st9" d="M256.5,52.2L256.5,52.2c-0.1,0-0.2-0.1-0.2-0.2c-2-4.9-3-12.1,3.1-18.8c0.1-0.1,0.2-0.2,0.3-0.3
		c0-0.1,0.1-0.2,0.2-0.2s0.2,0.1,0.2,0.2c1.9,6.6,0.7,13.1-3.3,19.1C256.7,52.1,256.6,52.2,256.5,52.2z M259.7,33.6
		c-5.7,6.3-4.9,13.1-3.1,17.8C260.3,45.8,261.3,39.8,259.7,33.6z"/>
	<path class="st9" d="M271.2,42.2C271.2,42.2,271.1,42.2,271.2,42.2c-0.2-0.1-0.2-0.1-0.2-0.2c-1.1-12.5,5.4-18.3,8.2-20.2
		c0.1,0,0.1-0.1,0.1-0.1c0.1-0.1,0.1-0.1,0.2-0.1s0.2,0.1,0.2,0.2c1.3,8-1.5,14.9-8.3,20.3C271.3,42.2,271.2,42.2,271.2,42.2z
		 M279.2,22.4c-2.8,1.9-8.7,7.4-7.8,19.1C277.7,36.3,280.3,29.9,279.2,22.4z"/>
	<path class="st9" d="M238.6,53.6c-0.1,0-0.1,0-0.2-0.1c-0.1,0-0.1-0.1-0.1-0.2c0-0.1,1.6-13.7,15.2-17.6c0.1,0,0.2,0,0.2,0.1
		c0.1,0.1,0.1,0.1,0.1,0.2C252.4,45.5,247.2,51.4,238.6,53.6C238.7,53.6,238.6,53.6,238.6,53.6z M253.3,36.3
		c-11.6,3.5-14,14.5-14.4,16.6C246.9,50.8,251.8,45.2,253.3,36.3z"/>
	<path class="st9" d="M247,32.6c-4.1,0-8-1.4-11-4.1c-0.1-0.1-0.1-0.1-0.1-0.2s0.1-0.2,0.1-0.2c10.8-6.3,21.6,0.7,21.7,0.8
		c0.1,0,0.1,0.1,0.1,0.2s0,0.2-0.1,0.2C254.4,31.6,250.6,32.6,247,32.6z M236.6,28.4c5.5,4.7,13.7,5,20.5,0.8
		C255.3,28.1,246,23.1,236.6,28.4z"/>
	<path class="st9" d="M259.6,25.4c-6.6,0-11.7-2.5-15.3-7.6c0-0.1-0.1-0.2,0-0.2s0.1-0.1,0.2-0.2c0.1,0,13.3-2.9,18.1,7.5
		c0,0.1,0,0.2,0,0.2s-0.1,0.1-0.2,0.1C261.4,25.3,260.5,25.4,259.6,25.4z M244.9,17.9c3.9,5.2,9.6,7.6,17,6.9
		C257.7,16.1,247.1,17.5,244.9,17.9z"/>
	<path class="st9" d="M269.2,21.5L269.2,21.5c-8.5-0.1-12.2-7.1-12.3-7.2c0-0.1,0-0.2,0-0.2c0-0.1,0.1-0.1,0.2-0.1l0,0
		c6.3,0.1,10.4,2.5,12.3,7.2c0,0.1,0,0.2,0,0.2C269.4,21.5,269.3,21.5,269.2,21.5z M257.6,14.4c0.9,1.4,4.4,6.3,11.2,6.5
		C267,16.8,263.3,14.6,257.6,14.4z"/>
	<path class="st9" d="M274.1,19.1L274.1,19.1c-7.7-2-6.9-10.3-6.9-10.4c0-0.1,0.1-0.1,0.1-0.2c0.1,0,0.1,0,0.2,0
		c4.9,1.8,7.2,5.3,6.8,10.4c0,0.1,0,0.1-0.1,0.2C274.2,19.1,274.2,19.1,274.1,19.1z M267.7,9.1c0,0.7,0,2.2,0.5,3.9
		c0.9,2.8,2.8,4.7,5.7,5.5C274.2,13.9,272.2,10.8,267.7,9.1z"/>
	<path class="st9" d="M207.7,56.2c-0.9,0-1.9-0.2-2.8-0.8c-0.6-0.5-1.1-1.1-1.5-1.9c-0.7-1.7-0.6-3.9,0.4-5.7
		c0.9-1.6,2.5-2.9,4.4-3.7c1.7-0.9,2.8-1.3,5.5-1c2.3,0.3,4.4,2,5.2,4.2l0,0c0.8,2.3-0.1,5.1-2.1,6.2c-0.6,0.3-1.3,0.5-2,0.7
		c-0.2,0.1-0.5,0.1-0.7,0.2c-0.7,0.2-1.4,0.5-2.1,0.8c-0.8,0.3-1.6,0.6-2.4,0.9C209.2,56.1,208.5,56.2,207.7,56.2z M212.1,43.5
		c-1.5,0-2.4,0.4-3.6,1.1c-1.9,0.7-3.3,2-4.2,3.5c-0.9,1.6-1.1,3.7-0.4,5.2c0.3,0.7,0.8,1.3,1.3,1.7c1.4,1.1,3.4,0.8,4.4,0.5
		c0.8-0.2,1.6-0.5,2.4-0.8c0.7-0.3,1.4-0.6,2.1-0.8c0.2-0.1,0.5-0.1,0.7-0.2c0.7-0.2,1.3-0.3,1.8-0.6c1.8-1,2.7-3.5,1.9-5.6
		c-0.7-2-2.7-3.6-4.8-3.9C213.1,43.5,212.6,43.5,212.1,43.5z"/>
	<path class="st9" d="M226.4,53.7c-0.2,1,0.2,2.2,1,2.9c1,0.8,1.5,0.9,2.4,1c0.9,0.2,1.8,0.1,2.6-0.3c0.8-0.4,1.4-1.2,1.6-2.1
		c0.1-0.4,0-0.7-0.1-1.1c-0.3-0.7-1-1.2-1.7-1.4s-1.5-0.3-2.2-0.5c-0.4-0.1-0.8-0.3-1.3-0.3C227.7,51.8,226.7,52.7,226.4,53.7z"/>
	<path class="st9" d="M221.5,39.1c0.4,1,1.4,1.7,2.5,1.8c1.3,0.1,1.8-0.1,2.5-0.6c0.8-0.4,1.5-1,1.9-1.8s0.5-1.8,0.1-2.6
		c-0.2-0.3-0.4-0.6-0.7-0.8c-0.6-0.4-1.5-0.4-2.2-0.1c-0.7,0.2-1.4,0.6-2.1,0.9c-0.4,0.1-0.8,0.2-1.2,0.5
		C221.4,36.9,221.1,38.2,221.5,39.1z"/>
	<polygon class="st3" points="115.3,46.2 117.4,44.2 117.2,47.1 120.1,47.6 117.7,49.2 119.2,51.8 116.4,50.9 115.3,53.6 
		114.2,50.9 111.4,51.8 112.9,49.2 110.4,47.6 113.3,47.1 113.1,44.2 	"/>
	<polygon class="st7" points="213.9,123.6 216.4,122.6 215.2,125.1 217.6,126.4 215,127.1 215.4,129.8 213.2,128.1 211.4,130.1 
		211.4,127.4 208.6,127.2 210.7,125.5 209.2,123.2 211.9,123.8 212.6,121.2 	"/>
	<path class="st3" d="M190,108c-3,0-5.5,2.5-5.5,5.5s2.5,5.5,5.5,5.5s5.5-2.5,5.5-5.5S193.1,108,190,108z M190,115.6
		c-1.2,0-2.2-1-2.2-2.2s1-2.2,2.2-2.2s2.2,1,2.2,2.2C192.3,114.6,191.3,115.6,190,115.6z"/>
	<path class="st9" d="M150.8,67.4c-2.1,0-3.8-1.7-3.8-3.8c0-2.1,1.7-3.8,3.8-3.8s3.8,1.7,3.8,3.8C154.5,65.7,152.9,67.4,150.8,67.4z
		 M150.8,60.4c-1.8,0-3.3,1.5-3.3,3.3s1.5,3.3,3.3,3.3s3.3-1.5,3.3-3.3C154,61.8,152.6,60.4,150.8,60.4z"/>
	<circle class="st9" cx="136.2" cy="35.1" r="4.1"/>
	<g>
		<path class="st9" d="M170.7,100c-0.5-2.6-0.6-5.3,0-7.8c1.2-4.7,4.9-8.5,9.2-10.7c2.9-1.4,6.2-2.4,8.1-5.1
			c1.4-2.1,1.5-4.7,1.4-7.2l7.6-0.9c0,0,0.8,7.3-2.2,11.2c-2.7,3.6-6,5.5-10,6.9c-2.6,0.9-5,2.6-6.3,5c-1,1.9-1.7,5.2-0.9,7.4
			L170.7,100z"/>
	</g>
	<g>
		<path class="st9" d="M209.4,113.4h-6.7c-0.1,0-0.2-0.1-0.2-0.2c0-3.1-1-5.6-2.7-7.3c-2.8-2.7-6.8-2.6-6.9-2.5
			c-0.1,0-0.1,0-0.2-0.1c0,0-0.1-0.1-0.1-0.2V96c0-0.1,0-0.1,0.1-0.2c0,0,0.1-0.1,0.2-0.1l0,0c10.7,0.3,16.3,6.1,16.8,17.4
			c0,0.1,0,0.1-0.1,0.2S209.5,113.4,209.4,113.4z M203,112.9h6.2c-0.6-10.9-5.8-16.3-16.1-16.7v6.6c1,0,4.4,0.2,7,2.7
			C201.9,107.3,202.9,109.8,203,112.9z"/>
	</g>
	<path class="st4" d="M246.4,11.6c-0.2,0-0.5-0.2-0.5-0.4L245,6.6l-4.6-0.8c-0.2,0-0.4-0.2-0.4-0.5c0-0.2,0.2-0.5,0.4-0.5L245,4
		l0.6-3.6h1.4l0.6,3.6l4.6,0.8c0.2,0,0.4,0.2,0.4,0.5c0,0.2-0.2,0.5-0.4,0.5l-4.6,0.8l-0.8,4.6C246.8,11.4,246.6,11.6,246.4,11.6z
		 M241.9,5.2l3.5,0.6c0.2,0,0.4,0.2,0.4,0.4l0.6,3.5l0.6-3.5c0-0.2,0.2-0.4,0.4-0.4l3.5-0.6l-3.5-0.6c-0.2,0-0.4-0.2-0.4-0.4
		l-0.6-3.5l-0.6,3.5c0,0.2-0.2,0.4-0.4,0.4L241.9,5.2z M245.2,6.6L245.2,6.6L245.2,6.6z M247.5,6.6L247.5,6.6L247.5,6.6z M247.5,3.8
		L247.5,3.8L247.5,3.8z M245.2,3.8L245.2,3.8L245.2,3.8z"/>
	<g>
		<path class="st4" d="M228,117.4l-0.5-2.9l-4.6-0.8c-0.2,0-0.4-0.2-0.4-0.5c0-0.2,0.2-0.5,0.4-0.5l4.6-0.8l0.8-4.6
			c0-0.2,0.2-0.4,0.5-0.4c0.2,0,0.5,0.2,0.5,0.4l0.8,4.6l4.6,0.8c0.2,0,0.4,0.2,0.4,0.5c0,0.2-0.2,0.5-0.4,0.5l-4.6,0.8l-0.4,2.3
			L228,117.4z M224.3,113.1l3.5,0.6c0.2,0,0.4,0.2,0.4,0.4l0.5,3l0.2-0.1l0.5-2.9c0-0.2,0.2-0.4,0.4-0.4l3.5-0.6l-3.5-0.6
			c-0.2,0-0.4-0.2-0.4-0.4l-0.6-3.5l-0.6,3.5c0,0.2-0.2,0.4-0.4,0.4L224.3,113.1z M227.7,114.5L227.7,114.5L227.7,114.5z M230,114.5
			L230,114.5L230,114.5z M230,111.8L230,111.8L230,111.8z M227.7,111.8L227.7,111.8L227.7,111.8z"/>
	</g>
	<path class="st7" d="M203,83.3l-4.8,0.9c-0.1,0-0.1,0.2,0,0.3l4.8,0.9c0.1,0,0.1,0.1,0.1,0.1l0.9,4.8c0,0.1,0.2,0.1,0.3,0l0.9-4.8
		c0-0.1,0.1-0.1,0.1-0.1l4.8-0.9c0.1,0,0.1-0.2,0-0.3l-4.8-0.9c-0.1,0-0.1-0.1-0.1-0.1l-0.9-4.8c0-0.1-0.2-0.1-0.3,0l-0.9,4.8
		C203.1,83.2,203.1,83.3,203,83.3z"/>
	<path class="st4" d="M148.9,11.7l-3.6,0.7c-0.1,0-0.1,0.2,0,0.2l3.6,0.7c0,0,0.1,0,0.1,0.1l0.7,3.6c0,0.1,0.2,0.1,0.2,0l0.7-3.6
		c0,0,0-0.1,0.1-0.1l3.6-0.7c0.1,0,0.1-0.2,0-0.2l-3.6-0.7c0,0-0.1,0-0.1-0.1L149.8,8c0-0.1-0.2-0.1-0.2,0L148.9,11.7
		C149,11.7,149,11.7,148.9,11.7z"/>
	<path class="st4" d="M172,63.7l-4.1-9.9l19.6-7.3l1.2,12.7L172,63.7z M168.6,54.1l3.7,9.1l15.8-4.3L187,47.2L168.6,54.1z"/>
	<polygon class="st4" points="135.8,57 135.5,56.6 145,51.6 156.9,52.5 168.3,53.7 168.2,54.2 156.9,53 145.1,52.1 	"/>
	<circle class="st4" cx="135.7" cy="56.8" r="1.5"/>
	<circle class="st4" cx="145" cy="51.8" r="1.5"/>
	<circle class="st4" cx="156.9" cy="52.8" r="1.5"/>
	<circle class="st4" cx="168.3" cy="53.9" r="1.5"/>
	<circle class="st4" cx="172.2" cy="63.4" r="1.5"/>
	<circle class="st4" cx="188.4" cy="59" r="1.5"/>
	<circle class="st4" cx="187.3" cy="46.8" r="1.5"/>
	<path class="st9" d="M125,77.3c1.9-2.3,5.6-4.8,11.6-2.1l2.8-6.1c-9.2-3.8-15.8-2.1-20.3,4.1L125,77.3z"/>
	<path class="st5" d="M218.4,10.1c-1.1-3.6-3.3-6.7-6.1-8.8c-3.1-0.8-6.4-0.8-9.7,0.2c-9.3,2.9-14.6,12.7-11.7,22
		c1.1,3.6,3.3,6.7,6.1,8.8c3.1,0.8,6.4,0.8,9.7-0.2C216,29.3,221.3,19.4,218.4,10.1z"/>
	<g>
		<g>
			<path class="st9" d="M159.2,113.6c-5.1-4-11-6.3-17.5-6.9c-0.3,0-0.3,0.5,0,0.5c6.3,0.6,12.1,2.9,17.1,6.8
				C159.1,114.1,159.4,113.8,159.2,113.6L159.2,113.6z"/>
		</g>
	</g>
	<path class="st4" d="M153.5,122.2c2.2-6.4-2-10.4-2.3-10.6C149.9,115.6,150.7,119.1,153.5,122.2z"/>
	<path class="st4" d="M156.7,114.5c0.1,0.2,5,3.4,3.1,10.3C157.2,121.7,156.1,118.3,156.7,114.5z"/>
	<path class="st4" d="M146.1,109.2c0,0.1,3.8,4.8-0.1,12.2C143.8,117.2,143.7,113.1,146.1,109.2z"/>
	<path class="st4" d="M169.7,123.3c0-0.1-1.8-7.4-9.5-8.7C161.7,119.8,164.8,122.7,169.7,123.3z"/>
	<path class="st4" d="M157.5,111.1c0,0,5.5-4.7,11.9-1.9C166.6,112.4,161.9,113.2,157.5,111.1z"/>
	<path class="st4" d="M164.1,103.8c0,0-7.5-0.8-9.5,5.2C159.1,109,162.2,107.2,164.1,103.8z"/>
	<path class="st4" d="M156.8,102.7c0,0-1.6,4.1-6.3,4.7C151.3,104.6,153.5,103.1,156.8,102.7z"/>
	<path class="st4" d="M150.7,100.3c0,0,1,4.5-3,6.1C147.1,103.5,148.2,101.6,150.7,100.3z"/>
	<path class="st9" d="M226.3,99.2c-0.1,0-0.2,0-0.2,0c-0.3-0.1-1.2-0.4-0.4-5.9c0.5-3.5,1.5-8,2.9-12.7l0,0c2-7,5.7-17,7.8-17
		c0.1,0,0.1,0,0.2,0c2,0.6-0.4,11.4-2.5,18.6c-1.4,4.7-2.9,9-4.4,12.2C227.7,98.7,226.8,99.2,226.3,99.2z M236.3,64.1
		c-1,0-4.2,6.2-7.2,16.7l0,0c-1.4,4.7-2.4,9.2-2.9,12.6c-0.6,4.1-0.2,5.3,0.1,5.4s1.3-0.7,3-4.5c1.4-3.2,3-7.5,4.3-12.2
		C236.7,71.3,237.3,64.4,236.3,64.1L236.3,64.1z"/>
	<path class="st9" d="M215.2,91.8c-1.2,0-1.4-0.4-1.5-0.6c-0.1-0.3-0.6-1.3,4.7-4.6c3.3-2,7.8-4.4,12.8-6.6s9.7-4,13.5-5
		c6-1.7,6.4-0.7,6.5-0.4s0.6,1.3-4.7,4.6c-3.3,2-7.8,4.4-12.8,6.6s-9.7,4-13.5,5C217.7,91.5,216.1,91.8,215.2,91.8z M249.8,74.6
		c-2.4,0-9.1,1.9-18.4,6c-4.9,2.2-9.4,4.5-12.7,6.5c-4.8,3-4.5,3.8-4.5,3.9s0.5,0.8,5.9-0.7c3.7-1,8.5-2.8,13.4-5
		c11.3-5,17.6-9.5,17.2-10.5C250.6,74.7,250.3,74.6,249.8,74.6z"/>
	<path class="st9" d="M243.8,97c-0.7,0-2.1-0.5-5.4-2.8c-3.1-2.3-7-5.6-10.9-9.3c-3.9-3.7-7.4-7.5-9.8-10.5
		c-3.8-4.9-3.1-5.6-2.9-5.9c0.2-0.3,1-1,6,2.6c3.1,2.3,7,5.6,10.9,9.3c3.9,3.7,7.4,7.5,9.8,10.5c3.8,4.9,3.1,5.6,2.9,5.9
		C244.4,96.9,244.2,97,243.8,97z M215.5,68.8c-0.2,0-0.3,0.1-0.3,0.1c-0.8,0.8,3.7,7.1,12.6,15.7c8.9,8.5,15.5,12.7,16.2,11.9
		c0.1-0.1,0.6-0.8-2.9-5.2c-2.4-3-5.8-6.7-9.7-10.5l0,0c-3.9-3.7-7.8-7-10.9-9.2C217.3,69.1,216,68.8,215.5,68.8z"/>
	<circle class="st4" cx="238.1" cy="93.8" r="2.1"/>
	<circle class="st4" cx="240.8" cy="76.7" r="1.4"/>
	<circle class="st4" cx="219.3" cy="75.8" r="1.4"/>
	<path class="st9" d="M161.7,43c-0.4,0-0.9-0.4-2-2.5c-0.9-1.6-1.8-3.9-2.7-6.3c-0.1-0.4-3.4-9.4-1.9-9.9c0.3-0.1,0.9,0,2.2,2.5
		c0.9,1.6,1.8,3.9,2.7,6.3c0.1,0.4,3.4,9.4,1.9,9.9C161.8,43,161.7,43,161.7,43z M155.2,24.8c-0.3,0.3,0.1,3.6,2.2,9.3
		c2,5.6,3.8,8.5,4.3,8.5c0.3-0.3-0.1-3.6-2.2-9.3C157.5,27.7,155.7,24.8,155.2,24.8z"/>
	<path class="st9" d="M154.1,43.5c-0.1,0-0.2,0-0.2-0.1c-1.2-0.7,2.1-7.1,3.9-10.4c1.4-2.5,2.9-4.7,4.2-6.4c1.9-2.4,2.5-2.4,2.8-2.2
		c0.3,0.2,0.6,0.8-0.5,3.6c-0.8,1.9-2,4.3-3.4,6.8C159.1,38,155.5,43.5,154.1,43.5z M164.6,24.9c-0.5,0-3,2.7-6.3,8.4l0,0
		c-3.4,5.8-4.5,9.3-4.1,9.7c0.5,0.1,3-2.6,6.3-8.4S164.9,25.3,164.6,24.9L164.6,24.9z"/>
	<path class="st9" d="M165.2,37c-2,0-4.6-0.2-7.3-0.6c-3.8-0.5-10.8-1.8-10.6-3.2c0.2-1.4,7.3-0.8,11.1-0.3c2.8,0.4,5.5,0.9,7.5,1.4
		c2.9,0.8,3.2,1.4,3.1,1.8c-0.1,0.4-0.5,0.8-3.5,0.9C165.4,37,165.3,37,165.2,37z M151.1,32.9c-2.1,0-3.2,0.2-3.3,0.4
		c0.1,0.5,3.6,1.7,10.2,2.6c6.6,0.9,10.3,0.5,10.5,0.1c-0.1-0.5-3.6-1.7-10.2-2.6C155.2,33,152.8,32.9,151.1,32.9z"/>
	<circle class="st4" cx="165.2" cy="36.9" r="1.1"/>
	<circle class="st4" cx="161" cy="28.7" r="0.8"/>
	<circle class="st4" cx="151.6" cy="35" r="0.7"/>
	<path class="st8" d="M130.9,15.1c1.9,0,1.9-3,0-3S129,15.1,130.9,15.1L130.9,15.1z"/>
	<path class="st8" d="M138.8,9.8c1.9,0,1.9-3,0-3C136.8,6.8,136.8,9.8,138.8,9.8L138.8,9.8z"/>
	<path class="st8" d="M129.3,9c1.3,0,1.3-2,0-2S128,9,129.3,9L129.3,9z"/>
	<path class="st8" d="M134.6,10.9c1.3,0,1.3-2,0-2S133.3,10.9,134.6,10.9L134.6,10.9z"/>
	<path class="st8" d="M139.6,15.4c1.3,0,1.3-2,0-2S138.3,15.4,139.6,15.4L139.6,15.4z"/>
	<path class="st8" d="M142.1,12.7c1.3,0,1.3-2,0-2S140.8,12.7,142.1,12.7L142.1,12.7z"/>
	<path class="st8" d="M125.7,6.9c1,0,1-1.5,0-1.5S124.7,6.9,125.7,6.9L125.7,6.9z"/>
	<path class="st8" d="M126.2,12.4c1,0,1-1.5,0-1.5S125.2,12.4,126.2,12.4L126.2,12.4z"/>
	<path class="st8" d="M137.6,4.3c1,0,1-1.5,0-1.5C136.6,2.8,136.6,4.3,137.6,4.3L137.6,4.3z"/>
	<path class="st8" d="M142.2,7.7c1,0,1-1.5,0-1.5C141.3,6.2,141.3,7.7,142.2,7.7L142.2,7.7z"/>
	<path class="st8" d="M142.2,7.7c1,0,1-1.5,0-1.5C141.3,6.2,141.3,7.7,142.2,7.7L142.2,7.7z"/>
	<path class="st8" d="M137.2,19.9c1,0,1-1.5,0-1.5S136.2,19.9,137.2,19.9L137.2,19.9z"/>
	<path class="st8" d="M142.1,18c1,0,1-1.5,0-1.5S141.1,18,142.1,18L142.1,18z"/>
	<path class="st8" d="M132.4,19.8c1,0,1-1.5,0-1.5S131.4,19.8,132.4,19.8L132.4,19.8z"/>
	<path class="st8" d="M129.4,2.2c1,0,1-1.5,0-1.5C128.4,0.7,128.4,2.2,129.4,2.2L129.4,2.2z"/>
	<path class="st8" d="M132.7,6.2c1.9,0,1.9-3,0-3C130.8,3.2,130.8,6.2,132.7,6.2L132.7,6.2z"/>
	<path class="st8" d="M135.4,15.9c1.3,0,1.3-2,0-2C134.2,13.9,134.1,15.9,135.4,15.9L135.4,15.9z"/>
	<path class="st8" d="M267,61.9c1.3-1.5-1-3.4-2.3-2C263.4,61.3,265.7,63.3,267,61.9L267,61.9z"/>
	<path class="st8" d="M260.2,68.4c0.8-1-0.7-2.3-1.5-1.3C257.8,68.1,259.3,69.4,260.2,68.4L260.2,68.4z"/>
	<path class="st8" d="M265.1,65.7c0.8-1-0.7-2.3-1.5-1.3C262.8,65.4,264.3,66.7,265.1,65.7L265.1,65.7z"/>
	<path class="st8" d="M271.4,61.3c0.8-1-0.7-2.3-1.5-1.3C269,60.9,270.5,62.3,271.4,61.3L271.4,61.3z"/>
	<path class="st8" d="M257.6,58.3c0.8-1-0.7-2.3-1.5-1.3C255.3,58,256.8,59.3,257.6,58.3L257.6,58.3z"/>
	<path class="st8" d="M256.2,69.8c0.6-0.7-0.5-1.7-1.1-1C254.5,69.6,255.6,70.6,256.2,69.8L256.2,69.8z"/>
	<path class="st8" d="M262,59.1c0.6-0.7-0.5-1.7-1.1-1C260.3,58.9,261.4,59.9,262,59.1L262,59.1z"/>
	<path class="st8" d="M267.7,57.8c0.6-0.7-0.5-1.7-1.1-1C265.9,57.6,267,58.5,267.7,57.8L267.7,57.8z"/>
	<path class="st8" d="M267.7,57.8c0.6-0.7-0.5-1.7-1.1-1C265.9,57.6,267,58.5,267.7,57.8L267.7,57.8z"/>
	<path class="st8" d="M255.1,63.9c0.6-0.7-0.5-1.7-1.1-1C253.3,63.7,254.4,64.7,255.1,63.9L255.1,63.9z"/>
	<path class="st8" d="M260.3,64.1c1.3-1.5-1-3.4-2.3-2C256.8,63.6,259,65.5,260.3,64.1L260.3,64.1z"/>
	<path class="st9" d="M165.2,132.3c-3.8,5-9.8,8.7-16.2,8.5l0.4,0.5c6.5,0,12.5-3.7,16.3-8.7C165.9,132.3,165.4,132,165.2,132.3
		L165.2,132.3z"/>
	<path class="st9" d="M164.1,143.4c-2.5-0.8-4.8-2.2-6.6-4.2c-0.2-0.2-0.6,0.1-0.4,0.4c1.9,2,4.2,3.5,6.8,4.3
		C164.2,144,164.4,143.5,164.1,143.4L164.1,143.4z"/>
	<path class="st9" d="M160.6,137.6c3.5,1.3,7.1,1.4,10.7,0.5c0.3-0.1,0.2-0.6-0.1-0.5c-3.5,0.9-7,0.7-10.5-0.5
		C160.5,137,160.3,137.5,160.6,137.6L160.6,137.6z"/>
	<path class="st9" d="M153.2,140.5c1.3-2.9,2.9-5.5,5.3-7.5c0.2-0.2-0.1-0.6-0.4-0.4c-2.5,2.1-4.1,4.7-5.4,7.6
		C152.6,140.6,153.1,140.8,153.2,140.5L153.2,140.5z"/>
	<circle class="st10" cx="164" cy="143.6" r="1.7"/>
	<circle class="st10" cx="171.3" cy="137.9" r="1.7"/>
	<circle class="st10" cx="165.5" cy="132.4" r="1.7"/>
	<circle class="st10" cx="158.4" cy="132.8" r="1.7"/>
	<path class="st9" d="M161.2,9.1c5.6-0.9,11-4.1,14.1-8.9h-0.6c-3,4.6-8.2,7.6-13.6,8.5C160.8,8.6,160.9,9.1,161.2,9.1L161.2,9.1z"
		/>
	<path class="st9" d="M171.7,12.6c0.4-2.7,0.2-5.2-0.7-7.8c-0.1-0.3-0.6-0.2-0.5,0.1c0.8,2.5,1.1,5,0.7,7.5
		C171.2,12.8,171.7,13,171.7,12.6L171.7,12.6z"/>
	<path class="st9" d="M167.3,6.9c-0.5,3.5-1.9,6.6-4.2,9.2c-0.2,0.2,0.1,0.6,0.4,0.4c2.4-2.7,3.9-5.9,4.3-9.5
		C167.8,6.6,167.3,6.6,167.3,6.9L167.3,6.9z"/>
	<path class="st9" d="M173.6,1.4c-3.1-0.2-6.1,0.1-9,1.3c-0.3,0.1-0.2,0.6,0.1,0.5c2.8-1.2,5.8-1.4,8.8-1.2
		C173.9,1.9,173.9,1.4,173.6,1.4L173.6,1.4z"/>
	<circle class="st10" cx="171.5" cy="12.6" r="1.7"/>
	<circle class="st10" cx="163.3" cy="16.3" r="1.7"/>
	<circle class="st10" cx="161.2" cy="8.8" r="1.7"/>
	<circle class="st10" cx="164.7" cy="2.9" r="1.7"/>
	<path class="st5" d="M116.5,17.4c-0.7,0.2-1.4,0.4-2,0.7c-1.8,3.2-3.3,6.5-4.7,9.8c0,0.1,0,0.2,0.1,0.3c1.2,4.8,6,7.8,10.9,6.6
		c4.8-1.2,7.8-6,6.6-10.9S121.4,16.2,116.5,17.4z"/>
	<path class="st7" d="M121.5,17.6c-1.5-0.5-3.2-0.6-4.9-0.2c-0.7,0.2-1.4,0.4-2,0.7c-1.8,3.2-3.3,6.5-4.7,9.8c0,0.1,0,0.2,0.1,0.3
		c0.5,1.9,1.5,3.5,2.8,4.7c1.5,0.5,3.2,0.6,4.9,0.2c4.8-1.2,7.8-6,6.6-10.9C123.9,20.4,122.8,18.8,121.5,17.6z"/>
</g>
<g>
	<path class="st5" d="M283.5,10.4c-0.7-1.5-1.5-3-2.4-4.4c-0.5-0.8-1.6-3.1-2.4-3.5c-0.2-0.1-0.3-0.1-0.4-0.1s-0.2,0-0.3,0
		c0.3,0.4,0.6,0.8,0.8,1.3c0.5,0.4,0.7,1.1,1.3,2.1c3.7,5.7,6.1,12.4,6.7,19.2c1.2,12.9-4,25.7-13.3,34.6
		c-4.5,4.3-10.1,7.2-14.7,11.4c-4.3,4-6.7,9.1-8.3,14.6c-1.7,6-2.3,12.5-5.2,18.1c-3,6-8,8.3-14.1,10.2c-4,1.3-8.5,2.6-11,6.3
		c-3.3,5-2.2,11.4-4,16.8c-1.1,3.2-3.1,6.2-6.2,7.7c-1.2,0.6-2.3,0.9-3.4,1.8c-1.3,1.1-2.4,2.6-3.6,3.8c-2.5,2.5-5.2,5-8,7
		c-3.6,2.6-7.5,3.4-11.9,2.5c-6.7-1.4-13.1-4.5-18.8-8.2c-11.6-7.7-21.3-17.9-23.6-32.1c-0.5-3.4-0.6-6.9-0.3-10.3
		c0.3-3.7,1-7.3,0.8-11c-0.3-5.6-2.9-10.3-7-14.1c-4.4-4.2-9.9-7-14.9-10.4c-5.6-3.8-10.4-8.4-13.2-14.7
		c-5.8-12.9-0.5-26.4,6.1-37.9c3.1-5.3,6.8-10.3,11.5-14.3c1.6-1.3,3.7-3.4,5.7-3.9c0.4-0.4,0.8-0.6,1.3-0.8c-0.5,0-1-0.1-1.5,0
		c-0.8,0.2-1.6,0.8-2.3,1.3c-2.4,1.6-4.6,3.5-6.6,5.5c-4.2,4.3-7.5,9.3-10.3,14.6c-2.9,5.6-5.7,11.8-6.8,18.1
		c-2.1,11.7,3,23.2,12.3,30.4c5.5,4.2,11.8,7.2,17,11.7c2.5,2.1,4.7,4.6,6.2,7.5c1.8,3.6,1.9,7.7,1.6,11.6
		c-0.6,6.9-1.3,13.5,0.4,20.4c1.5,6.2,4.5,11.8,8.6,16.7c4.2,4.9,9.3,8.9,14.6,12.5c5.6,3.7,11.9,6.7,18.5,8.2c3,0.7,6.1,0.8,9-0.3
		c2.8-1.1,5.1-3,7.3-4.9c2.8-2.4,5.1-5.1,7.7-7.6c1.3-1.3,3-1.7,4.5-2.6c1.1-0.6,2.1-1.5,2.9-2.5c4-4.6,3.7-10.6,4.8-16.3
		c0.7-3.4,2-6.6,5-8.5c2.3-1.5,5-2.3,7.7-3.1c4.9-1.5,9.4-3.1,12.6-7.3c3.6-4.8,4.7-11,6.1-16.8c1.6-6.8,3.5-13.5,8.7-18.5
		c4.7-4.5,10.6-7.5,15.3-11.9c4.4-4.2,7.9-9.2,10.3-14.8C289,34.1,288.6,21.4,283.5,10.4z"/>
</g>
<g>
	<path class="st11" d="M201.5,176c0-1-0.3-1.6-0.3-1.6c-7.4-1.9-6.7-6.2-5-10.2l-13.1-7.8c0.6,4.3,0.3,9.1-1.3,13.2
		c-0.8,2-2.2,4.4-4.3,5.1c-1.6,0.5-3.2,1.1-4.8,1.8l0.6,8.3l3.1,4.6l6.6,3.7h10l5.9-3.5l4.4-6l1.4-7.6H201.5z"/>
	<path class="st12" d="M195.5,170.7L195.5,170.7c-0.5-1.2-0.5-2.4-0.2-3.7v-0.1l-0.6-0.3l-8.2-8.1c-0.6,1.3-0.9,2.6-1,4
		c0,2.9,4.2,7.2,8.5,8.1C194.4,170.7,194.9,170.7,195.5,170.7z"/>
	<path class="st7" d="M209.1,238c2.2,2.5,2.5,6.2,4.7,8.7c1.1,1.2,2.5,2.1,4,2.9c11.4,6.3,21.7,10.8,33.6,15.9
		c4.9,2.1,10.1,3.4,13.2,8.1c3,4.4,3.8,10,2.4,15.2c-0.1,0.5-0.3,1-0.5,1.5c-0.1,0.3-0.2,0.6-0.3,0.9c-3,7.5-11.4,11.5-19.2,9.4
		c-9-2.4-23.5-6.4-36.5-9.9l-24.8-6.8l-0.3,0.1h-0.1l-28.8,8.2c0,0-19.5,5-25.9,6.7c-7.8,2.1-16.2-1.8-19.2-9.3
		c-0.1-0.3-0.2-0.6-0.3-0.9c-3.8-10.8,2.9-19.9,7.5-21.5c5.2-2.1,10.4-4.1,15.6-6.2c8.4-3.3,16.5-6.8,24.4-11.2
		c1.4-0.8,2.9-1.6,4-2.9c2.2-2.5,2.5-6.3,4.7-8.7L209.1,238z"/>
	<g>
		<g>
			<path class="st10" d="M129.8,269.7c19.8-6.6,40.8-3.6,61.2-4.5c0.5,0,0.5-0.8,0-0.8c-20.5,0.9-41.6-2.1-61.4,4.5
				C129.1,269.1,129.3,269.8,129.8,269.7L129.8,269.7z"/>
		</g>
		<g>
			<path class="st10" d="M252.1,270.6c-19.6-6.5-40.3-3.7-60.5-4.5c-0.5,0-0.5,0.7,0,0.8c20.1,0.8,40.8-2,60.3,4.5
				C252.3,271.5,252.5,270.8,252.1,270.6L252.1,270.6z"/>
		</g>
		<g>
			<path class="st10" d="M219.8,266.9c5.1-0.4,9.9-2.7,15.1-2.5c0.5,0,0.5-0.7,0-0.8c-5.2-0.3-10,2.1-15.1,2.5
				C219.3,266.2,219.3,267,219.8,266.9L219.8,266.9z"/>
		</g>
		<g>
			<path class="st10" d="M156.4,264.7c-5.1-0.4-9.9-2.7-15.1-2.5c-0.5,0-0.5,0.8,0,0.8c5.2-0.3,10,2.1,15.1,2.5
				C156.9,265.5,156.9,264.7,156.4,264.7L156.4,264.7z"/>
		</g>
		<g>
			<path class="st10" d="M209.8,252.3c3.1-0.8,6.1-1.6,9.3-1.4c0.5,0,0.5-0.7,0-0.8c-3.3-0.2-6.4,0.6-9.5,1.4
				C209.2,251.7,209.4,252.5,209.8,252.3L209.8,252.3z"/>
		</g>
		<path class="st10" d="M156.5,292c3-1,6-1.9,9-2.8l9-2.7c6-1.8,12-3.6,18-5.3l0.2,0.7c-6,1.6-12.1,3.3-18.1,4.9l-9,2.5
			C162.5,290.3,159.5,291.1,156.5,292z"/>
		<path class="st11" d="M209.3,265.5c-1.3-0.1-2.5-2.3-4.2-2.4c-1.7-0.2-3.2,2.2-3.2,2.2l-10.5,0.5c0.8,4,1.3,8,1.2,11.5l33.2-7.1
			C226.2,263.4,210.6,265.6,209.3,265.5z"/>
		<g>
			<path class="st10" d="M190.7,264.9c0.9,2.5,1,5.6,1.2,8.2c0.2,2.8,0.3,5.6,0.4,8.4c0,0.5,0.8,0.5,0.8,0c-0.1-3.1-0.2-6.2-0.5-9.3
				c-0.2-2.4-0.3-5.3-1.2-7.6C191.2,264.2,190.5,264.4,190.7,264.9L190.7,264.9z"/>
		</g>
		<g>
			<path class="st10" d="M178.1,264.8c-2-3.3-3.7-6.7-6.6-9.2c-0.4-0.3-0.9,0.2-0.5,0.5c2.9,2.5,4.6,5.9,6.5,9.1
				C177.7,265.6,178.3,265.2,178.1,264.8L178.1,264.8z"/>
		</g>
	</g>
	<path class="st11" d="M157,229c-1.9,6.3-3.7,12.7-10,15.9l-25.7,12.6l0.1,0.1l-0.1-0.1l-13.8,7.5l-5.6,2.8
		c-1.4,0.7-2.1-0.2-1.2-1.1c0.3-0.3,4.6-4.1,4.6-4.1l-8,4.1c-2.5,1.3-2.6-0.4-1.7-1.1c0.8-0.7,8.1-5.5,8.1-5.5
		c-9.7,5.1-10.8,4.5-11.2,3.7c-0.3-0.7,8.6-5.4,8.6-5.4c-1.2-0.4-2.4-1-3.3-1.9c-2.3-2.1-1.6-6.6-0.4-7.1s1.8,0.9,1.8,0.9
		c-1.3,3.6,1.9,6.2,4.8,5.2c2.9-1,1.6-4.7-0.6-4.7c-4.9,0-3.7-1.9-3.7-1.9l10.8-0.2c0.1-0.1,5.9-3.3,5.9-3.3l23.9-14.7
		c0.8-0.5,6.7-19.6,9-26.4c2.4-7.1,4.1-14.8,9.8-20.1c5.2-4.8,11.2-7,17.1-9.5c-2.4,6.7-4.7,13.1-7.1,19.8
		c-3.5,9.9-7.1,19.8-10.6,29.7C157.9,226,157.5,227.5,157,229z"/>
	<g>
		<path class="st11" d="M179.4,147.3c2.4,9.3,3.2,13.2,8.9,17.1c8.5,5.8,19.4,0.8,19.8-9c0.4-8.8-3.7-22.5-13.6-24.4
			c-7.1-1.4-13.9,3.2-15.4,10.2C178.8,143.3,178.9,145.4,179.4,147.3L179.4,147.3z"/>
		<path class="st2" d="M183.8,128.7c-1.7,2.8,2.5,8.1,11.2,7.6c6.5-0.4,14.8,6.6,14.1-0.9C208.5,128.5,192,125.2,183.8,128.7z"/>
		<path class="st12" d="M199.3,147.2c1,1.6,2.3,3.1,3.7,4.3c-0.7,0.7-1.6,1.1-2.6,1L199.3,147.2z"/>
		<path class="st13" d="M189.9,144.1c-0.1,0-0.1,0-0.2,0c-0.2-0.1-0.2-0.3-0.1-0.5l0,0l0,0c0.7-1.3,2-2.1,3.4-2.2
			c0.2,0,0.4,0.2,0.4,0.4s-0.1,0.4-0.3,0.4l0,0c-1.2,0.1-2.2,0.8-2.8,1.9C190.1,144,190,144.1,189.9,144.1z"/>
		<path class="st13" d="M206.1,141c-0.1,0-0.1,0-0.2-0.1c-1-0.6-2.3-0.7-3.4-0.2c-0.2,0.1-0.4,0-0.5-0.1l0,0l0,0
			c-0.1-0.2,0-0.4,0.2-0.5c1.3-0.6,2.8-0.5,4.1,0.2c0.2,0.1,0.3,0.3,0.2,0.5C206.3,140.9,206.2,141,206.1,141L206.1,141z"/>
		<path class="st13" d="M200.3,156.8c0.4,0,0.9,0,1.3-0.1c0.1,0,0.2-0.1,0.2-0.3l0,0l0,0c0-0.1-0.1-0.2-0.3-0.2
			c-1.9,0.4-3.9-0.2-5.4-1.5c-0.1-0.1-0.2-0.1-0.3,0l0,0c-0.1,0.1-0.1,0.2,0,0.3C197.1,156.2,198.7,156.8,200.3,156.8z"/>
		<path class="st2" d="M188.5,130.8c-5.4-4.1-10.6,7.5-13,13.9c-1.1,2.9-1.8,7.3-1.4,11.5h0.1c3,1.2,6,2.3,9.1,2.8
			c-0.1-1-0.2-1.9-0.3-2.7c0,0-0.2-2.2,1.9-3.2c-2.6-4.2,0.7-6.9,2.9-9.7S193.1,134.3,188.5,130.8z"/>
		<path class="st11" d="M178.7,155.2c0.9,1.6,2.3,2.9,4.1,3.4c2.3,0.7,3.6-1.4,3-3.6c-0.5-2-2.4-4.8-4.8-4.6
			c-1.7,0.2-2.9,1.8-2.7,3.6l0,0C178.3,154.4,178.4,154.8,178.7,155.2z"/>
		<path class="st13" d="M206.1,144.6L206.1,144.6c-0.1,0-0.1,0.1-0.2,0.1c-0.8,0.9-2.1,1.3-3.3,1.2c-0.1,0-0.2,0-0.2,0
			s-0.1,0.1-0.1,0.2l0,0c0,0.2,0.1,0.3,0.2,0.3c1.4,0.2,2.8-0.3,3.8-1.3c0.1-0.1,0.1-0.3,0-0.4C206.3,144.6,206.2,144.6,206.1,144.6
			z"/>
		<path class="st13" d="M197.7,146.6c0-0.1,0-0.2-0.1-0.2c-0.1-0.1-0.2-0.1-0.3-0.1s-0.2,0.1-0.3,0.2c-0.3,0.3-0.6,0.5-0.9,0.7
			c-0.7,0.3-1.5,0.5-2.2,0.4h-0.1c-0.1,0-0.1,0-0.2,0c-0.1,0-0.1,0.1-0.1,0.2c0,0.2,0.1,0.3,0.2,0.4c0.7,0.1,1.6,0,2.4-0.3
			C196.6,147.6,197.5,147,197.7,146.6z"/>
	</g>
	<path class="st14" d="M237.3,234.6c-3.6,1.3-7.8,0.7-10.9-1.6"/>
	<path class="st11" d="M221.4,229c1.9,6.3,3.7,12.7,10,15.9l25.7,12.6l-0.1,0.1l0.1-0.1l13.8,7.5l5.6,2.8c1.4,0.7,2.1-0.2,1.2-1.1
		c-0.3-0.3-4.6-4.1-4.6-4.1l8,4.1c2.5,1.3,2.6-0.4,1.7-1.1s-8.1-5.5-8.1-5.5c9.7,5.1,10.8,4.5,11.2,3.7c0.3-0.7-8.6-5.4-8.6-5.4
		c1.2-0.4,2.4-1,3.3-1.9c2.3-2.1,1.6-6.6,0.4-7.1s-1.8,0.9-1.8,0.9c1.3,3.6-1.9,6.2-4.8,5.2c-2.9-1-1.6-4.7,0.6-4.7
		c4.9,0,3.7-1.9,3.7-1.9l-10.8-0.2c-0.1-0.1-5.9-3.3-5.9-3.3L238.2,231c-0.8-0.5-6.7-19.6-9-26.4c-2.4-7.1-4.1-14.8-9.8-20.1
		c-5.2-4.8-11.6-7.6-17.1-9.7c2.4,6.7,2.5,15.3,7.2,20.1c3.5,9.9,7.1,19.8,10.6,29.7C220.6,226,221,227.5,221.4,229z"/>
	<path class="st12" d="M143.6,231.3c-0.4-0.1-0.9-0.2-1.3-0.2c-0.1,0-0.2,0.1-0.3,0.2l0,0l0,0c0,0.1,0.1,0.2,0.2,0.3
		c2,0.1,3.8,1.1,4.8,2.8c0.1,0.1,0.2,0.1,0.3,0.1l0,0c0.1-0.1,0.1-0.2,0.1-0.3C146.6,232.7,145.2,231.7,143.6,231.3z"/>
	<path class="st12" d="M234.9,231.3c0.4-0.1,0.9-0.2,1.3-0.2c0.1,0,0.2,0.1,0.3,0.2l0,0l0,0c0,0.1-0.1,0.2-0.2,0.3
		c-2,0.1-3.8,1.1-4.8,2.8c-0.1,0.1-0.2,0.1-0.3,0.1l0,0c-0.1-0.1-0.1-0.2-0.1-0.3C231.9,232.7,233.3,231.7,234.9,231.3z"/>
	<path class="st15" d="M209.5,238.4c-0.8-2.2-1-3.6-1.2-6c0,0-0.6-10.5,3.8-19.5c3.4-7.1-0.5-13-0.5-13c-3.2-7.6-6.2-11.9-6.9-24.2
		l-3.5-1.4c0,18.8-25,19.5-25,0.7l-3.5,1.4c-0.7,12.3-3.7,15.9-6.9,23.5c0,0-3.9,5.9-0.5,13c1.8,3.7,2.8,7.7,3.3,11.7
		c0.3,2.2,0.7,4.5,0.5,6.8c-0.2,2.4-1.3,4.6-2,6.8C181.4,240.2,195.5,240.4,209.5,238.4z"/>
</g>
<g>
	<path class="st4" d="M180.5,27c-2.4,0-4.1-0.4-4.5-1.4c-1-2.1,3.9-5,8.2-7.2l0.3,0.7c-6.5,3.2-8.3,5.3-7.9,6.2
		c1,2,12.8,0.8,28.1-4.1c12.5-4,22.7-9.1,23.9-11.9c0.1-0.3,0.1-0.5,0-0.6c-0.4-0.9-3.6-1.4-11.1-0.2l-0.1-0.7
		c4.9-0.8,10.9-1.4,11.9,0.6c0.2,0.4,0.2,0.8,0,1.3c-1.3,3-11.3,8.1-24.4,12.3C195.9,24.8,186.1,27,180.5,27z"/>
</g>
<circle class="st16" cx="77.8" cy="225.2" r="4.1"/>
<circle class="st16" cx="304.7" cy="253.4" r="4.1"/>
<path class="st4" d="M266.7,195.5l4.8,0.9c0.1,0,0.1,0.2,0,0.3l-4.8,0.9c-0.1,0-0.1,0.1-0.1,0.1l-0.9,4.8c0,0.1-0.2,0.1-0.3,0
	l-0.9-4.8c0-0.1-0.1-0.1-0.1-0.1l-4.8-0.9c-0.1,0-0.1-0.2,0-0.3l4.8-0.9c0.1,0,0.1-0.1,0.1-0.1l0.9-4.8c0-0.1,0.2-0.1,0.3,0l0.9,4.8
	C266.6,195.4,266.6,195.4,266.7,195.5z"/>
</svg>
