<?xml version="1.0" encoding="utf-8"?>
<!-- Generator: Adobe Illustrator 22.0.0, SVG Export Plug-In . SVG Version: 6.00 Build 0)  -->
<svg version="1.1" id="Layer_1" xmlns="http://www.w3.org/2000/svg" xmlns:xlink="http://www.w3.org/1999/xlink" x="0px" y="0px"
	 viewBox="0 0 375 667" style="enable-background:new 0 0 375 667;" xml:space="preserve">
<style type="text/css">
	.st0{fill:#CBF6EE;}
	.st1{fill:#155A79;}
	.st2{fill:#FFD37A;}
	.st3{fill:#1C739C;}
	.st4{fill:#FFA77A;}
	.st5{fill:#FF925C;}
	.st6{fill:#29D9B9;}
	.st7{fill:#FFBB99;}
	.st8{fill:#74E7D2;}
	.st9{fill:#FFFFFF;}
	.st10{fill:#FFAA99;}
	.st11{clip-path:url(#SVGID_2_);}
	.st12{fill:#97EDDD;}
	.st13{fill:#FFEBC2;}
	.st14{fill:#EB996E;}
	.st15{fill:#A8E5F0;}
</style>
<rect class="st0" width="375" height="667"/>
<g>
	<g>
		<path class="st1" d="M111,271.5c-2.6-9.5-7.9-18.3-15.2-25c6.6,6.9,11.2,15.7,13.3,25H111z"/>
		<path class="st2" d="M83,257.7c10.2-5.2,17.8,0.7,18.3,1.2C95.1,262.1,89,261.7,83,257.7z"/>
		<path class="st2" d="M95.2,250.5c-0.4-0.1-6.9-7.4-18-2.6C83,251.6,89,252.4,95.2,250.5z"/>
		<path class="st2" d="M106.7,266.8c-0.2,0-8.9-5.2-20.3,3.2C93.9,272.8,100.7,271.9,106.7,266.8z"/>
		<path class="st2" d="M77.2,231c0.2,0,12.8,1.2,16.8,13.7C85.1,243.6,79.5,239,77.2,231z"/>
		<path class="st2" d="M95.4,226.6c0,0-3.8,11.5,4.6,19.8C103.1,240,101.5,232.1,95.4,226.6z"/>
		<path class="st2" d="M111,234.5c0,0,3.2,12.3-6.4,17.1C103.6,244.1,105.7,238.5,111,234.5z"/>
		<path class="st2" d="M120.3,257.1c0,0-7.7-0.6-9.4,6.6C115.8,263.9,118.8,261.5,120.3,257.1z"/>
	</g>
	<path class="st0" d="M151.6,268.3c-1-2.8,0.2-5.9-0.3-8.9c-0.6-3.6-3.6-6.2-6.5-8.3s-6.1-4.2-7.6-7.5c-2.1-4.5-0.3-9.9,2.9-13.7
		c0.9-1.1,2-2.1,2.5-3.5c1-2.6-0.5-5.7-2.7-7.4c-2.2-1.8-4.9-2.7-7.5-3.9s-5.1-2.8-6.3-5.4c-2.5-5.7,3.3-12.5,1-18.3
		c-2.7-7-11.9-7.3-17.8-5.3c-1.9,0.7-3.8,1.6-4.8,3.4c-1.2,2.1-0.8,4.7,0.1,6.9c1,2.2,2.4,4.1,3.5,6.3c2,4.1,1,7.6-2.1,10.7
		c-1.4,1.5-3.2,2.7-4.3,4.4c-1.2,1.9-1.4,4.3-0.9,6.4c1,4.2,4.2,5.8,6.5,8.9c1.8,2.4,1.6,5.8,0.8,8.7s-2,5.8-2,8.8
		c0,3.9,2.3,7.6,5.2,10.2c2.9,2.7,6.4,4.5,9.8,6.5c1.6,1,3.3,2,4.5,3.5c0.1,0.2,0.3,0.4,0.4,0.6h27.7
		C152.9,270.6,152.1,269.5,151.6,268.3z"/>
	<g>
		<path class="st3" d="M94.7,283.8C94.7,283.7,94.7,283.7,94.7,283.8c0-0.1,0-0.2,0-0.2V283.8z"/>
		<path class="st3" d="M90.3,284.9C90.3,284.8,90.3,284.8,90.3,284.9c0-0.1,0-0.1,0-0.2V284.9z"/>
		<g>
			<path class="st3" d="M87.5,288.4C87.4,288.4,87.4,288.3,87.5,288.4c-0.1-0.1-0.1-0.1-0.1-0.1L87.5,288.4z"/>
		</g>
	</g>
	<g>
		<g>
			<path class="st4" d="M118.1,202.7c-4.3,0.4-8.4-4.1-10.3-7.4c-0.2-0.4-0.9,0-0.6,0.4c2,3.6,6.4,8.2,10.9,7.8
				C118.6,203.4,118.6,202.6,118.1,202.7L118.1,202.7z"/>
		</g>
		<g>
			<path class="st4" d="M120.1,234.6c-7.6-1.1-12.4-9.8-12.6-16.9c0-0.5-0.8-0.5-0.8,0c0.3,7.4,5.2,16.5,13.2,17.6
				C120.4,235.4,120.6,234.6,120.1,234.6L120.1,234.6z"/>
		</g>
		<g>
			<path class="st4" d="M131.5,223.5c1.3,8.1-0.9,16.3-6.1,22.6c-0.3,0.4,0.2,0.9,0.5,0.5c5.4-6.5,7.7-15,6.3-23.3
				C132.2,222.8,131.5,223,131.5,223.5L131.5,223.5z"/>
		</g>
		<g>
			<path class="st4" d="M137.7,263.2c-4.6,0.8-9-0.7-13.2-2.5c-4-1.7-7.6-4.2-9.2-8.4c-0.2-0.4-0.9-0.3-0.7,0.2
				c1.6,4.2,5.1,6.9,9.2,8.7c4.5,2,9.1,3.6,14.1,2.7C138.4,263.8,138.2,263.1,137.7,263.2L137.7,263.2z"/>
		</g>
		<g>
			<path class="st4" d="M123.3,216c-0.1,3.6-1.8,6.7-4.7,8.8c-0.4,0.3,0,0.9,0.4,0.6c3.1-2.2,5-5.6,5.1-9.4
				C124.1,215.5,123.3,215.5,123.3,216L123.3,216z"/>
		</g>
	</g>
	<g>
		<path class="st0" d="M256.2,216.6c-2.9-3.3-3.5-6.9-1.3-10.8c1.2-2.1,2.8-3.9,3.9-6s1.7-4.7,0.6-6.9c-0.9-1.8-2.7-2.9-4.6-3.7
			c-5.8-2.4-15-2.7-18.2,4.1c-2.6,5.7,2.7,12.8-0.2,18.4c-1.3,2.5-4,3.9-6.6,4.9s-5.4,1.7-7.7,3.3s-4,4.5-3.2,7.2
			c0.4,1.4,1.4,2.5,2.3,3.6c2.9,4,4.3,9.5,2,13.8c-1.7,3.2-5.1,5.1-8.1,7c-3.1,1.9-6.2,4.3-7.1,7.8c-0.7,2.9,0.2,6.1-0.9,8.8
			c-0.6,1.3-1.6,2.4-2.7,3.3H234c1.1-0.8,2.3-1.5,3.5-2.1c3.5-1.8,7.2-3.4,10.3-5.8c3.1-2.5,5.6-5.9,5.9-9.9c0.2-3-0.8-6-1.4-8.9
			c-0.6-3-0.6-6.3,1.4-8.6c2.6-3,5.9-4.4,7.1-8.5c0.6-2.1,0.6-4.5-0.4-6.5C259.2,219.5,257.5,218.1,256.2,216.6z"/>
		<path class="st3" d="M250.1,187.6c-4.3,7-5.8,14.6-6.3,22.8c-0.5,8.5-0.3,17.3-3.2,25.4c-5,14.2-17.2,23.8-25.8,35.7h0.9
			c4-5.5,8.6-10.4,13-15.6c4.6-5.5,9.1-11.3,11.8-17.9c2.9-6.9,3.4-14.3,3.7-21.7c0.4-10,1.2-19.6,6.5-28.3
			C251,187.6,250.3,187.2,250.1,187.6z"/>
		<g>
			<path class="st3" d="M244.8,205.8c4.6,0.7,9.2-3.5,11.5-7.1c0.3-0.4-0.4-0.8-0.6-0.4c-2.1,3.2-6.5,7.4-10.7,6.7
				C244.5,205,244.3,205.7,244.8,205.8L244.8,205.8z"/>
		</g>
		<g>
			<path class="st3" d="M229.3,224.7c-1.9,8.2-0.3,16.8,4.6,23.6c0.3,0.4,0.9,0,0.6-0.4c-4.8-6.7-6.4-15-4.5-23
				C230.2,224.4,229.4,224.2,229.3,224.7L229.3,224.7z"/>
		</g>
		<g>
			<path class="st3" d="M221,264.8c5,1.2,9.9-0.1,14.6-1.9c4-1.5,7.6-3.9,9.4-7.9c0.2-0.4-0.4-0.8-0.6-0.4c-1.9,4.1-5.7,6.4-9.8,7.9
				c-4.3,1.5-8.7,2.7-13.3,1.6C220.7,264,220.5,264.7,221,264.8L221,264.8z"/>
		</g>
		<g>
			<path class="st3" d="M207.5,286.5c6,1.2,12.1-0.7,16.2-5.3c0.3-0.4-0.2-0.9-0.5-0.5c-3.9,4.3-9.7,6.2-15.4,5.1
				C207.2,285.6,207,286.4,207.5,286.5L207.5,286.5z"/>
		</g>
		<g>
			<path class="st3" d="M212.5,275.8c-1.1-6,0.4-12,4.1-16.8c0.3-0.4-0.2-0.9-0.5-0.5c-3.9,5-5.5,11.3-4.3,17.6
				C211.8,276.5,212.5,276.3,212.5,275.8L212.5,275.8z"/>
		</g>
		<g>
			<path class="st3" d="M238,218c-0.2,3.8,1.4,7.3,4.3,9.7c0.4,0.3,0.9-0.2,0.5-0.5c-2.8-2.3-4.3-5.6-4.1-9.2
				C238.8,217.5,238,217.5,238,218L238,218z"/>
		</g>
	</g>
	<path class="st4" d="M121.5,237.2c-3.1-8.3-2.8-17.1-2.6-25.9c0.2-9.3-0.4-18.1-4.7-26.4c-0.2-0.4-0.9,0-0.6,0.4
		c4.1,8,4.8,16.3,4.7,25.1c-0.2,8-0.6,16.1,1.6,23.8c4.1,14.3,15.6,24.8,23.2,37.1c0,0.1,0.1,0.1,0.1,0.2h0.9c-3-4.9-6.5-9.5-10-14
		C129.1,251.2,124.3,244.7,121.5,237.2z"/>
	<path class="st4" d="M142.6,258.3c2.7,4,3.9,8.6,3.6,13.2h0.7c0.3-4.8-1-9.5-3.7-13.6C143,257.5,142.3,257.9,142.6,258.3z"/>
	<path class="st3" d="M254.7,213.7c-1.7-3.7-0.2-6.9,1.9-10c2.3-3.4,5.5-8.1,2.4-12c-2.3-2.9-6.9-4.1-10.4-4.4
		c-3.4-0.3-7,0.2-9.7,2.4c-3.1,2.5-3.7,6.2-3.2,10c0.4,2.4,1.1,4.8,1.2,7.3c0.1,3.8-1.8,6.6-5.2,8.3c-4.2,2.1-9.8,2.6-12.4,7
		c-2.7,4.5,1,7.2,3,11c1.4,2.7,2.2,6,1.3,9.1c-0.9,3.5-3.9,5.8-6.8,7.6c-3.5,2.2-7.6,4.5-9,8.6c-0.9,2.6-0.1,5.3-0.7,8
		c-0.5,2.2-1.9,3.6-3.4,5h1.2c0.8-0.7,1.6-1.5,2.1-2.5c1-1.7,1-3.7,1-5.6c0-3.1,0.4-5.7,2.7-8.1c3.1-3.3,7.7-4.8,10.9-8.1
		c2.7-2.8,3.6-6.5,2.8-10.2c-0.4-2.1-1.3-4.1-2.5-5.8c-1.6-2.3-3.6-4.3-2.5-7.4c2-5.5,9-5.7,13.4-8.3c3.3-1.9,5-4.8,4.9-8.5
		c-0.2-4.3-2.4-8.8-0.9-13c1.6-4.4,6.4-6.1,10.7-6s11.9,1.8,12.2,7.2c0.2,5.6-5.8,8.9-6.3,14.3c-0.4,4.1,2.3,6.8,4.8,9.6
		c2.4,2.6,3.3,5.8,1.9,9.2c-1,2.4-2.9,3.9-4.8,5.6c-3.4,3.1-4.3,6.5-3.5,11c0.6,3.4,1.9,6.8,1.1,10.3c-0.7,3-2.6,5.6-5,7.6
		c-4.4,3.8-10.4,5-14.7,8.7h1.3c1.3-1,2.9-1.7,4.4-2.5c4.5-2.2,9.2-4.5,12.2-8.6c3.3-4.4,2.8-8.8,1.6-13.9c-0.7-3.1-1.4-6.7,0.5-9.5
		c1.5-2.3,4.1-3.7,5.8-5.8c2.6-3.3,3-7.9,0.5-11.4C258.1,217.7,255.9,216.2,254.7,213.7z"/>
	<g>
		<rect x="245" y="228.6" class="st5" width="8.1" height="42.8"/>
		<rect x="264.1" y="212.5" class="st2" width="8.1" height="59"/>
		<rect x="283.1" y="245.9" class="st6" width="8.1" height="25.6"/>
		<polygon class="st5" points="249.1,229.2 239.6,229.2 249.1,219.8 258.5,229.2 		"/>
		<polygon class="st2" points="268.1,212.5 258.7,212.5 268.1,203.2 277.5,212.5 		"/>
		<rect x="302.1" y="229.2" class="st7" width="8.1" height="42.3"/>
		<polygon class="st7" points="306.2,229.2 296.7,229.2 306.2,219.8 315.6,229.2 		"/>
		<polygon class="st6" points="287.1,245.9 277.7,245.9 287.1,236.6 296.6,245.9 		"/>
	</g>
</g>
<g>
	<path class="st1" d="M233.3,203.2c-2-0.1-4-0.2-5.9-0.5l0.1-1c1.9,0.2,3.9,0.4,5.8,0.5L233.3,203.2z M221.5,201.8
		c-1.9-0.4-3.9-0.9-5.8-1.4l0.3-1c1.9,0.5,3.8,1,5.7,1.4L221.5,201.8z M262.5,198.5l-0.4-0.9c1.8-0.7,3.6-1.5,5.4-2.3l0.4,0.9
		C266.1,197.1,264.3,197.8,262.5,198.5z M210.1,198.5c-1.8-0.7-3.7-1.5-5.5-2.3l0.4-0.9c1.8,0.8,3.6,1.6,5.4,2.3L210.1,198.5z
		 M273.2,193.5l-0.5-0.9c1.7-1,3.4-2,5-3.1l0.6,0.8C276.6,191.4,274.9,192.5,273.2,193.5z M199.4,193.4c-1.7-1-3.4-2.1-5-3.2
		l0.6-0.8c1.6,1.1,3.3,2.2,5,3.1L199.4,193.4z M283,186.7l-0.6-0.8c1.5-1.2,3-2.5,4.4-3.9l0.7,0.7C286,184.1,284.5,185.5,283,186.7z
		 M189.6,186.7c-1.5-1.2-3-2.6-4.4-3.9l0.7-0.7c1.4,1.3,2.9,2.7,4.4,3.9L189.6,186.7z M291.5,178.5l-0.7-0.7c1.3-1.5,2.5-3,3.7-4.5
		l0.8,0.6C294.1,175.4,292.9,177,291.5,178.5z M181,178.4c-1.3-1.5-2.6-3-3.8-4.6l0.8-0.6c1.2,1.6,2.4,3.1,3.7,4.5L181,178.4z
		 M298.7,169l-0.8-0.5c1-1.6,2-3.4,2.9-5.1l0.9,0.5C300.8,165.6,299.8,167.3,298.7,169z M173.9,168.9c-1.1-1.7-2.1-3.4-3-5.1
		l0.9-0.5c0.9,1.7,1.9,3.4,2.9,5.1L173.9,168.9z M304.2,158.5l-0.9-0.4c0.8-1.8,1.5-3.6,2.1-5.5l0.9,0.3
		C305.7,154.8,305,156.7,304.2,158.5z M168.4,158.4c-0.8-1.8-1.5-3.7-2.1-5.6l0.9-0.3c0.6,1.8,1.3,3.7,2.1,5.5L168.4,158.4z
		 M308,147.2l-1-0.2c0.5-1.9,0.9-3.8,1.2-5.7l1,0.2C308.9,143.4,308.5,145.3,308,147.2z M164.6,147.1c-0.5-1.9-0.9-3.9-1.2-5.8
		l1-0.2c0.3,1.9,0.7,3.9,1.2,5.7L164.6,147.1z M309.9,135.5l-1-0.1c0.2-1.9,0.2-3.9,0.2-5.9h1C310.1,131.5,310.1,133.5,309.9,135.5z
		 M162.7,135.4c-0.2-2-0.2-4-0.2-5.9v-0.2h1v0.2c0,1.9,0.1,3.9,0.2,5.9H162.7z M308.9,123.7c-0.2-1.9-0.4-3.9-0.7-5.8l1-0.2
		c0.3,1.9,0.5,3.9,0.7,5.9L308.9,123.7z M163.7,123.4l-1-0.1c0.2-2,0.4-4,0.7-5.9l1,0.2C164.1,119.5,163.9,121.5,163.7,123.4z
		 M307.1,112.1c-0.5-1.9-1-3.8-1.6-5.6l0.9-0.3c0.6,1.9,1.2,3.8,1.6,5.7L307.1,112.1z M165.6,111.9l-1-0.2c0.5-1.9,1-3.8,1.7-5.7
		l0.9,0.3C166.6,108.1,166.1,110,165.6,111.9z M303.4,101c-0.8-1.8-1.6-3.6-2.5-5.3l0.9-0.5c0.9,1.7,1.8,3.6,2.5,5.4L303.4,101z
		 M169.4,100.8l-0.9-0.4c0.8-1.8,1.6-3.6,2.6-5.4l0.9,0.5C171,97.2,170.1,99,169.4,100.8z M297.9,90.6c-1-1.6-2.2-3.3-3.3-4.8
		l0.8-0.6c1.2,1.6,2.3,3.2,3.4,4.9L297.9,90.6z M174.8,90.4l-0.8-0.5c1.1-1.7,2.2-3.3,3.4-4.9l0.8,0.6
		C177,87.2,175.9,88.8,174.8,90.4z M290.9,81.3c-1.3-1.5-2.7-2.9-4.1-4.2l0.7-0.7c1.4,1.4,2.8,2.8,4.1,4.3L290.9,81.3z M181.9,81.1
		l-0.7-0.7c1.3-1.5,2.7-2.9,4.1-4.3l0.7,0.7C184.6,78.2,183.2,79.6,181.9,81.1z M282.5,73.1c-1.5-1.2-3.1-2.4-4.7-3.5l0.6-0.8
		c1.6,1.1,3.2,2.3,4.7,3.6L282.5,73.1z M190.4,73l-0.6-0.8c1.5-1.2,3.1-2.4,4.8-3.6l0.6,0.8C193.5,70.6,191.9,71.7,190.4,73z
		 M272.8,66.4c-1.7-1-3.4-1.9-5.2-2.7l0.4-0.9c1.8,0.8,3.5,1.8,5.3,2.8L272.8,66.4z M200,66.3l-0.5-0.9c1.7-1,3.5-1.9,5.3-2.8
		l0.4,0.9C203.5,64.4,201.7,65.4,200,66.3z M262.3,61.4c-1.8-0.7-3.7-1.3-5.6-1.9l0.3-1c1.9,0.6,3.8,1.2,5.6,1.9L262.3,61.4z
		 M210.6,61.3l-0.4-0.9c1.9-0.7,3.7-1.3,5.6-1.9l0.3,1C214.3,60,212.4,60.6,210.6,61.3z M251,58.1c-1.9-0.4-3.9-0.7-5.8-0.9l0.1-1
		c2,0.2,3.9,0.6,5.9,1L251,58.1z M221.9,58.1l-0.2-1c1.9-0.4,3.9-0.7,5.9-0.9l0.1,1C225.7,57.4,223.8,57.7,221.9,58.1z M239.4,56.7
		c-1.9-0.1-3.9-0.1-5.9,0v-1c2-0.1,4-0.1,5.9,0V56.7z"/>
</g>
<g>
	<path class="st1" d="M132.7,194.7c-1,0-2.1,0-3.1-0.1v-1c2.1,0.1,4.1,0.1,6.2,0v1C134.8,194.7,133.8,194.7,132.7,194.7z M142.2,194
		l-0.1-1c2-0.3,4.1-0.7,6.1-1.2l0.2,1C146.3,193.3,144.2,193.7,142.2,194z M154.4,191.1l-0.3-0.9c1.9-0.7,3.9-1.5,5.8-2.3l0.4,0.9
		C158.3,189.6,156.3,190.4,154.4,191.1z M99.7,185.9c-1.8-1-3.6-2.2-5.3-3.4l0.6-0.8c1.7,1.2,3.4,2.3,5.2,3.4L99.7,185.9z
		 M165.8,185.8l-0.5-0.9c1.8-1,3.5-2.2,5.2-3.4l0.6,0.8C169.4,183.6,167.6,184.8,165.8,185.8z M89.4,178.6c-1.6-1.4-3.1-2.8-4.6-4.3
		l0.7-0.7c1.4,1.5,2.9,2.9,4.5,4.3L89.4,178.6z M176,178.5l-0.7-0.8c1.6-1.3,3.1-2.8,4.5-4.3l0.7,0.7
		C179.2,175.7,177.6,177.2,176,178.5z M80.7,169.5c-1.3-1.6-2.5-3.4-3.7-5.1l0.8-0.5c1.1,1.7,2.3,3.4,3.6,5L80.7,169.5z
		 M184.7,169.4l-0.8-0.6c1.3-1.6,2.5-3.3,3.6-5l0.8,0.5C187.2,166.1,186,167.8,184.7,169.4z M73.9,158.9c-1-1.9-1.8-3.8-2.6-5.7
		l0.9-0.4c0.8,1.9,1.6,3.8,2.6,5.6L73.9,158.9z M191.5,158.8l-0.9-0.5c0.9-1.8,1.8-3.7,2.6-5.6l0.9,0.4
		C193.4,155.1,192.5,157,191.5,158.8z M69.2,147.3c-0.6-2-1.1-4.1-1.5-6.1l1-0.2c0.4,2,0.9,4.1,1.5,6L69.2,147.3z M196.2,147.2
		l-1-0.3c0.6-2,1.1-4,1.5-6l1,0.2C197.3,143.1,196.8,145.2,196.2,147.2z M66.8,134.9c-0.2-2.1-0.3-4.2-0.3-6.3h1
		c0,2.1,0.1,4.1,0.3,6.2L66.8,134.9z M198.6,134.8l-1-0.1c0.2-2,0.3-4.1,0.3-6.2v-0.2h1v0.2C198.9,130.6,198.8,132.7,198.6,134.8z
		 M67.8,122.4l-1-0.1c0.2-2.1,0.5-4.2,0.9-6.2l1,0.2C68.3,118.3,68,120.4,67.8,122.4z M197.6,122.1c-0.2-2-0.5-4.1-0.9-6.1l1-0.2
		c0.4,2.1,0.7,4.2,0.9,6.2L197.6,122.1z M70.1,110.3l-1-0.3c0.6-2,1.3-4,2-6l0.9,0.4C71.4,106.3,70.7,108.3,70.1,110.3z M195.2,110
		c-0.6-2-1.3-3.9-2-5.9l0.9-0.4c0.8,1.9,1.5,3.9,2.1,5.9L195.2,110z M74.7,98.8l-0.9-0.5c1-1.9,2-3.7,3.1-5.5l0.8,0.5
		C76.7,95.1,75.6,96.9,74.7,98.8z M190.6,98.5c-1-1.8-2-3.6-3.1-5.4l0.8-0.5c1.1,1.8,2.2,3.6,3.2,5.4L190.6,98.5z M81.4,88.3
		l-0.8-0.6c1.3-1.6,2.7-3.2,4.1-4.8l0.7,0.7C84,85.1,82.7,86.7,81.4,88.3z M183.8,88.1c-1.3-1.6-2.6-3.2-4.1-4.7l0.7-0.7
		c1.4,1.5,2.8,3.1,4.1,4.7L183.8,88.1z M89.9,79.4l-0.7-0.8c1.6-1.4,3.2-2.7,4.9-3.9l0.6,0.8C93.1,76.7,91.5,78,89.9,79.4z
		 M175.2,79.2c-1.6-1.3-3.2-2.6-4.9-3.8l0.6-0.8c1.7,1.2,3.4,2.5,5,3.9L175.2,79.2z M100,72.1l-0.5-0.9c1.8-1.1,3.7-2,5.6-2.9
		l0.4,0.9C103.6,70.1,101.8,71.1,100,72.1z M165.1,72c-1.8-1-3.6-2-5.5-2.8l0.4-0.9c1.9,0.9,3.8,1.8,5.6,2.9L165.1,72z M111.2,67
		l-0.3-0.9c2-0.7,4-1.3,6-1.8l0.2,1C115.2,65.7,113.2,66.3,111.2,67z M153.9,66.9c-1.9-0.7-3.9-1.2-6-1.7l0.2-1c2,0.5,4.1,1.1,6,1.8
		L153.9,66.9z M123.3,64l-0.1-1c2.1-0.3,4.2-0.5,6.3-0.6v1C127.4,63.5,125.3,63.7,123.3,64z M141.8,64c-2-0.3-4.1-0.5-6.2-0.6v-1
		c2.1,0.1,4.2,0.3,6.3,0.6L141.8,64z"/>
</g>
<path class="st4" d="M126,270.7c-2.9-3.7-8.1-5.3-11.8-8c-5.1-3.7-8.7-9-7.2-15.5c1-4.2,3.3-8.6,1.5-12.9c-1.7-4-6.2-5.8-7.3-10.2
	c-1.6-6.7,4.9-8.6,7.3-13.6c1.8-3.6,0.4-7.1-1.5-10.4c-1.5-2.5-3.3-5.2-2.9-8.3c0.5-3.5,3.7-5,6.8-5.8c3.7-0.9,8.1-1,11.5,0.8
	c4.9,2.5,5.2,7.5,4,12.3c-0.9,3.4-2.3,7.3-0.8,10.8c1.8,4,6.2,5.4,9.9,7.1c2.4,1.1,4.8,2.5,6.1,5c1.8,3.5-0.5,5.7-2.5,8.3
	c-2.3,2.9-3.8,6.7-3.3,10.5c0.5,4.2,3.5,6.9,6.7,9.3c2.1,1.5,4.2,3,5.9,4.9c2.2,2.6,2.5,5.3,2.3,8.5c-0.1,2.2-0.2,4.3,1,6.3
	c0.4,0.7,0.9,1.3,1.4,1.8h1.1c-1.5-1.5-2.8-3.1-2.9-5.6c-0.1-2.3,0.5-4.7,0-7c-0.5-2.2-1.9-4.1-3.5-5.6c-3.9-3.8-10.1-6.1-11.3-12
	c-0.6-3.2,0.4-6.6,2.2-9.3c1.2-1.9,3.4-3.5,4-5.8c1.2-4.2-2.4-7.6-5.8-9.3c-5.5-2.8-12.4-4.6-11.2-12.3c0.6-4.1,2.9-8.3,1.7-12.6
	c-1-3.4-3.8-5.7-7-6.6c-5.9-1.7-18.2-0.3-17.3,8.1c0.6,5.9,7.6,10.4,4.5,16.7c-2.3,4.8-8,6.4-7.7,12.4c0.1,2.1,0.9,4.1,2.2,5.7
	c1.8,2.3,4.6,4,5.6,6.9c2,6.3-3.6,12.2-1.7,18.6c1.6,5.5,6.4,9,11.1,11.8c2.8,1.7,6.3,3.1,8.2,5.9h0.9
	C126.4,271.3,126.2,271,126,270.7z"/>
<path class="st8" d="M88.6,266.7c-1-1.8-2.2-3.6-3.6-5.1c-3.2-3.6-7.4-6.3-10.8-9.7c-2.2-2.2-4.1-4.8-6.2-7.1
	c-0.4-0.4-1-0.9-1.5-0.5c-0.4,0.3-0.3,0.9-0.2,1.4c2.6,9.9,8.2,19.1,15.8,25.9h8.8C90.2,269.8,89.5,268.2,88.6,266.7z"/>
<path class="st8" d="M76.8,268.5c-3.6-2.3-7.7-3.5-11.4-5.6c-2.4-1.3-4.6-3-6.9-4.4c-0.4-0.3-1-0.5-1.4-0.1
	c-0.3,0.3-0.1,0.8,0.1,1.2c2.7,4.5,6.1,8.5,10.1,11.9h13.1C79.4,270.4,78.2,269.4,76.8,268.5z"/>
<g>
	<circle class="st0" cx="237.5" cy="56.1" r="15"/>
	<path class="st6" d="M237.5,71.6c-8.5,0-15.5-7-15.5-15.5s7-15.5,15.5-15.5s15.5,7,15.5,15.5S246,71.6,237.5,71.6z M237.5,41.6
		c-8,0-14.5,6.5-14.5,14.5s6.5,14.5,14.5,14.5S252,64.1,252,56.1S245.5,41.6,237.5,41.6z"/>
</g>
<circle class="st9" cx="87" cy="74.5" r="25"/>
<circle class="st9" cx="277.2" cy="70.7" r="30"/>
<g>
	<circle class="st0" cx="69.8" cy="144.2" r="14.5"/>
	<path class="st6" d="M69.8,159.2c-8.3,0-15-6.7-15-15s6.7-15,15-15s15,6.7,15,15S78.1,159.2,69.8,159.2z M69.8,130.2
		c-7.7,0-14,6.3-14,14s6.3,14,14,14s14-6.3,14-14S77.5,130.2,69.8,130.2z"/>
</g>
<g id="zkkEJl_1_">
	<g>
		<path class="st8" d="M319.5,197.2c0,0.1,0,0.2,0,0.3c0,0,0,0,0,0.1c-0.1,0.8-0.7,1.5-1.5,1.7c-0.1,0-0.2,0-0.3,0.1
			c-0.1,0-0.2,0-0.3,0c0,0,0,0-0.1,0c-0.3,0-0.5-0.1-0.8-0.2c-0.8-0.4-1.1-1.3-1-2.1V197c-0.1-0.1-0.3-0.1-0.4-0.2
			c-1.3-0.7-2.7-1.3-4-2H311c-0.4,0.4-0.9,0.7-1.5,0.7c-0.9,0-1.7-0.6-1.9-1.5c0-0.1-0.1-0.3-0.1-0.4c0-0.1,0-0.2,0-0.3s0-0.1,0-0.2
			c0.2-0.8,0.6-1.3,1.4-1.6c0.8-0.2,1.5,0,2,0.6h0.1c1.5-0.7,2.9-1.5,4.4-2.2c0.1,0,0.1-0.1,0.1-0.1c-0.2-1,0.5-2,1.4-2.3
			c0.1,0,0.2,0,0.4-0.1c0.1,0,0.2,0,0.3,0c0,0,0,0,0.1,0c0.8,0.1,1.5,0.7,1.7,1.4c0,0.1,0.1,0.3,0.1,0.4c0,0.1,0,0.2,0,0.3
			c0,0,0,0,0,0.1s0,0.3-0.1,0.4c-0.5,1.5-2.3,1.9-3.4,0.7h-0.1c-0.7,0.3-1.4,0.7-2.1,1c-0.8,0.4-1.6,0.8-2.4,1.2c0,0-0.1,0,0,0.1
			c0,0.2,0,0.5,0,0.7v0.1c1.5,0.7,2.9,1.5,4.4,2.2c0.1,0,0.1,0,0.1,0c0.3-0.3,0.7-0.5,1.1-0.6c1.1-0.2,2.1,0.5,2.3,1.5
			C319.5,197,319.5,197.1,319.5,197.2z"/>
	</g>
</g>
<g>
	<path class="st4" d="M95,130.9c-3.2,0-5.9-2.6-5.9-5.9s2.6-5.9,5.9-5.9s5.9,2.6,5.9,5.9C100.9,128.3,98.3,130.9,95,130.9z
		 M95,119.9c-2.8,0-5.1,2.3-5.1,5.1s2.3,5.1,5.1,5.1s5.1-2.3,5.1-5.1S97.8,119.9,95,119.9z"/>
</g>
<g>
	<path class="st10" d="M231.1,88.9c-2.5,0-4.5-2-4.5-4.5s2-4.5,4.5-4.5s4.5,2,4.5,4.5S233.6,88.9,231.1,88.9z M231.1,80.9
		c-1.9,0-3.5,1.6-3.5,3.5s1.6,3.5,3.5,3.5s3.5-1.6,3.5-3.5S233,80.9,231.1,80.9z"/>
</g>
<g>
	<path class="st2" d="M252.4,129.2c1.6-0.3,3.3-0.4,4.9,0c3,0.7,5.4,3.1,6.7,5.8c0.9,1.8,1.5,4,3.2,5.1c1.3,0.9,3,1,4.5,0.9l0.5,4.8
		c0,0-4.6,0.5-7.1-1.4c-2.3-1.7-3.5-3.8-4.4-6.3c-0.6-1.6-1.6-3.2-3.2-4c-1.2-0.7-3.3-1.1-4.7-0.6L252.4,129.2z"/>
</g>
<path class="st2" d="M144.8,58.6c-3,0-5.5,2.5-5.5,5.5s2.5,5.5,5.5,5.5s5.5-2.5,5.5-5.5S147.8,58.6,144.8,58.6z M145,61.8
	c1.2,0,2.2,1,2.2,2.2c0,1.2-1,2.2-2.2,2.2s-2.2-1-2.2-2.2S143.8,61.8,145,61.8z"/>
<g>
	<path class="st4" d="M165.7,59.6h-7.9v-0.4c0,0,0.1-4-2.5-6.8c-1.7-1.8-4.1-2.7-7.2-2.7h-0.4v-7.4h0.4c11.4,0.5,17.3,6.2,17.5,16.9
		L165.7,59.6z M158.6,58.9h6.4c-0.4-10-5.8-15.2-16.4-15.8V49c3.1,0.1,5.6,1.1,7.3,2.9C158.3,54.4,158.6,57.8,158.6,58.9z"/>
</g>
<g>
	<g>
		<path class="st2" d="M71.6,194.4c0,1.9-0.2,3.7-1.6,5.1c-0.9,0.8-2.1,1.3-3.2,1.8c-2.1,1-3.8,2.2-5.3,4c-0.2,0.2-0.2,0.5,0,0.7
			c1.1,1,2.2,1.9,3.3,2.9c0.2,0.2,0.6,0.2,0.8-0.1c1.1-2.4,3.7-2.8,5.8-3.9c1.7-0.8,3.3-2.1,4.5-3.6c1.5-2.1,1.8-5,1.5-7.5
			c0-0.2-0.2-0.5-0.5-0.5c-1.6,0.2-3.2,0.4-4.8,0.5c-0.6,0.1-0.6,1.1,0,1c1.3-0.1,3,0,4.1-0.5c0.2-0.1,1,0.1,0.4-0.3
			c-0.5-0.3,0-0.1-0.2,0.2c-0.4,0.8,0,2.6-0.2,3.5c-0.7,3.4-3.5,5.5-6.5,6.7c-1.9,0.8-4,1.7-5,3.7c0.3,0,0.5-0.1,0.8-0.1
			c-0.5-0.4-2.5-1.7-2.7-2.3c-0.2-0.8,0.3-1.1,0.9-1.6c1.6-1.4,3.5-2,5.3-3c2.8-1.5,3.5-3.8,3.5-6.9
			C72.5,193.8,71.5,193.8,71.6,194.4z"/>
	</g>
</g>
<g>
	<path class="st4" d="M100.2,85.7h-4.9c-2.4,0-4.4-2-4.4-4.4V66.7c0-2.2,2.1-3.5,4.1-2.8c1.3,0.5,2.3,1.3,3.2,2.3
		c1.5,1.6,2.5,3.5,3.3,5.5c1.5,3.5,6,12.3-0.2,13.9C100.9,85.7,100.6,85.7,100.2,85.7z"/>
	<path class="st4" d="M73.8,85.7h4.9c2.4,0,4.4-2,4.4-4.4V66.7c0-2.2-2.1-3.5-4.1-2.8c-1.3,0.5-2.3,1.3-3.2,2.3
		c-1.5,1.6-2.5,3.5-3.3,5.5c-1.5,3.5-6,12.3,0.2,13.9C73.1,85.7,73.4,85.7,73.8,85.7z"/>
	<path class="st8" d="M94,72.6V70h-3c-1.5,0-2.7-1.2-2.7-2.7v-6.2h-2.6v6.2c0,1.5-1.2,2.7-2.7,2.7h-3v2.6h3c1.6,0,3-0.7,4-1.8
		c1,1.1,2.4,1.8,4,1.8H94z"/>
</g>
<g>
	<g>
		<path class="st8" d="M293.9,72.6h-9.7c-0.5,0-0.9-0.4-0.9-0.9s0.4-0.9,0.9-0.9h9.7c0.5,0,0.9,0.4,0.9,0.9S294.3,72.6,293.9,72.6z"
			/>
	</g>
	<path class="st4" d="M290.7,66.1c0-2.1-0.8-4.1-2.3-5.7c-1.5-1.5-3.5-2.3-5.7-2.3c-2.1,0-4.1,0.8-5.7,2.3c-0.2,0.2-0.4,0.4-0.5,0.6
		c-0.2-0.2-0.3-0.4-0.5-0.6c-1.5-1.5-3.5-2.3-5.7-2.3c-2.1,0-4.1,0.8-5.7,2.3c-1.5,1.5-2.3,3.5-2.3,5.7c0,2.2,0.8,4.1,2.3,5.7
		l0.1,0.1L275.9,83c0.2,0.2,0.4,0.3,0.6,0.3s0.5-0.1,0.6-0.3l11.1-11.1l0.1-0.1C289.9,70.3,290.7,68.3,290.7,66.1z"/>
	<g>
		<path class="st8" d="M274.7,74.8L274.7,74.8c-0.4,0-0.7-0.2-0.8-0.6l-2-4.9l-0.7,2.6c-0.1,0.4-0.5,0.7-0.9,0.7h-9.7
			c-0.5,0-0.9-0.4-0.9-0.9s0.4-0.9,0.9-0.9h9.1l1.2-4.5c0.1-0.4,0.4-0.6,0.8-0.7c0.4,0,0.7,0.2,0.9,0.6l2.2,5.5l2.1-4.7
			c0.1-0.3,0.4-0.5,0.8-0.5c0.3,0,0.6,0.2,0.8,0.4l2.5,4.2c0.2,0.4,0.1,1-0.3,1.2s-1,0.1-1.2-0.3l-1.6-2.8l-2.3,5
			C275.4,74.6,275.1,74.8,274.7,74.8z"/>
	</g>
</g>
<g>
	<g>
		
			<rect x="237.8" y="55" transform="matrix(0.4761 -0.8794 0.8794 0.4761 78.5915 242.672)" class="st6" width="10.4" height="0.7"/>
	</g>
	<g>
		
			<rect x="237.3" y="53.6" transform="matrix(0.6555 -0.7552 0.7552 0.6555 38.5176 199.2241)" class="st6" width="0.7" height="7.6"/>
	</g>
	<g>
		
			<rect x="227.8" y="57.8" transform="matrix(0.6361 -0.7716 0.7716 0.6361 39.5626 200.2387)" class="st6" width="8.5" height="0.7"/>
	</g>
	<circle class="st6" cx="229.4" cy="61.5" r="1.7"/>
	<circle class="st6" cx="234.8" cy="54.9" r="1.7"/>
	<circle class="st6" cx="240.6" cy="59.9" r="1.7"/>
	<circle class="st6" cx="245.5" cy="50.8" r="1.7"/>
</g>
<g>
	<path class="st8" d="M69.2,151.6c-4.5,0-8.1-3.6-8.1-8.1s3.6-8.1,8.1-8.1V151.6z"/>
	<path class="st6" d="M71,145.3v8.1c4.5,0,8.1-3.6,8.1-8.1H71z"/>
	<path class="st8" d="M61.1,143.5c0-4.5,3.6-8.1,8.1-8.1s8.1,3.6,8.1,8.1H61.1z"/>
</g>
<g>
	<rect x="37" y="271.1" class="st3" width="300" height="0.8"/>
</g>
<g>
	<path class="st6" d="M48.2,249.3c-2.5,0-4.6-2-4.6-4.6s2-4.6,4.6-4.6s4.6,2,4.6,4.6S50.7,249.3,48.2,249.3z M48.2,241.2
		c-2,0-3.6,1.6-3.6,3.6s1.6,3.6,3.6,3.6s3.6-1.6,3.6-3.6S50.1,241.2,48.2,241.2z"/>
</g>
<g>
	<circle class="st0" cx="297" cy="171.2" r="15"/>
	<path class="st6" d="M297,186.7c-8.5,0-15.5-7-15.5-15.5s7-15.5,15.5-15.5s15.5,7,15.5,15.5S305.5,186.7,297,186.7z M297,156.7
		c-8,0-14.5,6.5-14.5,14.5s6.5,14.5,14.5,14.5s14.5-6.5,14.5-14.5S305,156.7,297,156.7z"/>
</g>
<g>
	<g>
		<g>
			<defs>
				<path id="SVGID_1_" d="M304.8,177.6h-15.7c-1.2,0-2.2-1-2.2-2.2V167c0-1.2,1-2.2,2.2-2.2h15.7c1.2,0,2.2,1,2.2,2.2v8.4
					C307,176.6,306,177.6,304.8,177.6z"/>
			</defs>
			<clipPath id="SVGID_2_">
				<use xlink:href="#SVGID_1_"  style="overflow:visible;"/>
			</clipPath>
			<g class="st11">
				<rect x="287" y="164.9" class="st8" width="20" height="12.7"/>
				<polyline class="st6" points="307,177.6 299.7,171.2 294.3,171.2 287,177.6 				"/>
				<path class="st12" d="M307,164.9l-8.6,7.5c-0.8,0.7-2,0.7-2.8,0l-8.6-7.5H307z"/>
			</g>
		</g>
	</g>
</g>
<g>
	<g>
		<path class="st1" d="M218.9,293h-76.5c-7.5,0-13.7-6.2-13.7-13.7V111.2c0-7.5,6.2-13.7,13.7-13.7h76.5c7.5,0,13.7,6.2,13.7,13.7
			v168.2C232.6,286.9,226.4,293,218.9,293z"/>
		<g>
			<path class="st13" d="M227.4,112.5v154.4c0,5.6-4.5,10.1-10.1,10.1h-73.5c-5.5,0-10.1-4.6-10.1-10.1V112.5
				c0-5.6,4.5-10.1,10.1-10.1h73.5C222.9,102.3,227.4,106.9,227.4,112.5z"/>
			<path class="st13" d="M217.4,102.3L144.8,277h-0.9c-5.5,0-10.1-4.6-10.1-10.1V112.5c0-5.6,4.5-10.1,10.1-10.1L217.4,102.3
				L217.4,102.3z"/>
		</g>
	</g>
	<g>
		<path class="st7" d="M115,98c0.2,0.7,0.5,1.8,0.5,2.6c0.1,0.9,0.5,1.7,0.6,2.4c0.4,1.4,0.6,2.5,0.7,2.5c0.1-0.1,0.3,0.2,0.3-0.6
			c-0.1-1-0.7-3-0.8-4.5c0-0.8-0.1-2.5-0.1-2.5s0.3-2.6,0.4-2.7c0.8-0.2,1.1,1.7,1,2.8c0.3,0.8,0.4,2.6,0.4,2.6s1,3.6,1.5,3.5
			c0.2-0.1-0.1-2.3-0.1-4.6c0-2.1,0.3-4.3,0.8-4.3c0.7-0.1,0.9,2.3,0.9,2.3s0.1,1.7,0.1,2.2c0.1,0.6,0.5,2.6,0.5,2.6
			s1.6,6.6,2.1,6.5c0.5-0.2,1.5-1.1,1.5-1.5s-0.2-1.3-0.3-1.7c-0.1-0.6,0-1.7,0.6-1.7c0.5,0,1.6,2.9,1.6,2.9s0.5,1.8,0.2,3.1
			c-1.1,4.4-1.7,4-1.9,4.6c-0.1,0.7,3,9.3,3,9.3l-8.2,2.5l-1.1-7.2c0,0-2.3-3.4-3.7-5.5c-1.4-2.2-1.8-4.8-2.1-5.5
			c0-0.1-0.9-2.4-1.3-5.5c-0.3-2.7,1.2-0.3,1.2-0.3s1.4,4.9,1.8,4.7c0.3-0.1-0.7-2.8-1-5.7c-0.1-0.8-0.2-1.5-0.3-2.2
			C113.5,96.8,114.5,96.1,115,98z"/>
		<path class="st1" d="M211.3,136.9c1.9,0.7,3.9,1.8,5.6,3v-0.5c0-3.3-1-6.6-2.9-9.4c-2.9-4.2-7-7.5-9.9-11.7
			c-1.4-1.9-2.5-4.1-3.3-6.3c-1.5-4.5-0.8-9.6-3.1-13.9c-0.7-1.5-1.9-2.8-3.3-3.6c-0.7-0.4-1.5-0.7-2.3-0.8c-0.9-0.2-0.6-0.4-1-1.2
			c-0.2-0.5-0.5-0.9-0.9-1.3c-0.6-0.7-1.5-1.4-2.4-1.7c-1.2-0.4-2.9-0.4-4.2-0.5c-1.4-0.1-2.9-0.2-4.3,0c-5.8,0.5-11.2,4.9-13,10.5
			c-0.5,1.6-0.7,3.3-1.1,5c-0.8,3.3-2.3,6.5-3.9,9.5c-1.5,2.9-2.5,6.3-2.9,9.6c-0.5,4.5,0.9,8.9,5,11.3c3.2,1.8,6.7,3.2,10.2,4.7
			c10.1,4.2,20.4,7.9,30.5,11.9c1.4,0.5,2.8,1.1,4.2,1.7c2.1-1.1,3.3-3.4,4-5.6c0.6-1.7,1-3.5,0.9-5.4S212.7,138.1,211.3,136.9z"/>
		<path class="st7" d="M175.6,124.5l-2.1,5.9c0,0-0.1,5.2,1.1,6.6c2.1,2.3,10.7-6.3,10.7-6.3l2.7-16.4L175.6,124.5z"/>
		<path class="st14" d="M174.8,126.5c0,0,0.9-2.3,0.9-3.6v-0.1l0.7-0.2l9.6-6.4c0.3,1.3,0.4,2.7,0.2,4.1c-0.5,2.8-5.4,6.2-9.8,6.3
			C175.9,126.7,175.3,126.6,174.8,126.5z"/>
		<path class="st7" d="M192.6,108.2c-2,7.9-2.7,11.4-7.6,14.7c-7.3,5-16.6,0.8-17-7.6c-0.3-7.6,3-19.3,11.5-21
			c6.1-1.2,12,2.7,13.2,8.7C193.1,104.7,193,106.5,192.6,108.2L192.6,108.2z"/>
		<path class="st1" d="M188.8,92.3c-7.1-3-19.7,1.6-21.6,5.8c-0.3,3.5,1.6,3.4,4.3,2.5c0.2-0.3,0.4-0.6,0.6-0.9
			c1.2-2,3.1-3.1,5.6-3.2c1.9-0.1,4,0.3,4.9,2.1C187.7,97.8,190,94.3,188.8,92.3z"/>
		<path class="st1" d="M184.7,94.1c4.6-3.6,9.1,6.3,11.2,11.8c1,2.5,1.5,6.3,1.2,9.9H197c-2.5,1-5.1,2-7.8,2.5
			c0.1-0.8,0.1-1.6,0.2-2.3c0,0,0.2-1.9-1.6-2.7c2.2-3.6-0.7-5.9-2.6-8.3C183.4,102.5,180.8,97,184.7,94.1z"/>
		<path class="st7" d="M193.3,114.9c-0.7,1.4-2,2.5-3.5,2.9c-2,0.6-3.1-1.2-2.6-3.1c0.5-1.7,2.1-4.1,4.1-3.9
			c1.5,0.2,2.5,1.6,2.3,3.1l0,0C193.6,114.2,193.4,114.6,193.3,114.9z"/>
		<path class="st8" d="M150.2,277h19.5l-0.7-3.2l5.3-23.7l7.5-46.8l-23.8-6.8l-6.3,16.3c0,0-4.1,39-1.7,62.3
			C149.9,275.7,150,276.3,150.2,277z"/>
		<path class="st6" d="M158.2,214.4c0,0,3.1-22.3,2,0.3c-1,20.3-1.7,37.6-2.2,37.7c-0.2,0.1-1,0.1-2,0.1
			C152.6,252.5,158.2,214.4,158.2,214.4z"/>
		<polygon class="st6" points="162.8,221.7 173.5,253.2 172.1,259.7 		"/>
		<polygon class="st8" points="197.2,277 196.1,273.7 193.7,215.6 188.3,197.4 161,198 160.2,212.4 178.5,277 		"/>
		<path class="st9" d="M163.7,132L136,148l-9-30.9l-9.8,0.7c0,0,5.6,44.9,10.6,48.1c6.4,4,29.8-4.7,29.8-4.7L163.7,132z"/>
		<path class="st6" d="M152.3,213.1c2,0.7,4.1,1.1,6.2,1.5c2.1,0.3,4.2,0.5,6.3,0.7c4.2,0.3,8.4,0.3,12.7,0.3l-0.1,2.4
			c-4.2-0.3-8.5-0.7-12.7-1.3c-2.1-0.3-4.2-0.7-6.3-1.2C156.3,214.9,154.3,213.9,152.3,213.1z"/>
		<path class="st8" d="M206.5,143.4c0,0-7.5-8.3-9.9-10c-2.1-1.6-11.3-2.7-11.3-2.7s-8.6,8.6-10.7,6.3c-1.2-1.4-1.1-6.6-1.1-6.6
			s-9.4,3.8-10.8,6.2c-1.4,2.5-6.7,48.9-6.7,53.6c0,4.7-3.6,22.6-3.6,22.6c11.4,4.5,41.6,2.6,41.6,2.6s-1.7-11.7-2.3-19.6
			C191,187.9,206.5,143.4,206.5,143.4z"/>
		<path class="st6" d="M145.9,250.2c-0.2-0.9,6.2-45.8,6.3-47.4c1.3-15.8,7.2-63.9,12.8-70.5c0.7-0.6,2.3-1.1,4.1-1.4
			c1.5-0.2,3.1-0.3,4.3-0.5v1.5c-1.1,0.9-2.3,2.1-2.8,2.7c-4.1,5.9-5.8,12.7-6.7,19.9c-2.7,21-5.1,97.6-6,98
			C156.9,252.9,146.4,252.3,145.9,250.2z"/>
		<path class="st9" d="M143.9,250.4c-0.2-0.9,6.2-45.8,6.3-47.4c1.3-15.8,7.2-63.9,12.8-70.5c0.7-0.6,2.3-1.1,4.1-1.4
			c3-0.4,6.3-0.6,6.3-0.6s-3.9,3.1-4.8,4.4c-4.1,5.9-5.8,12.7-6.7,19.9c-2.7,21-5.1,97.6-6,98C154.9,253,144.4,252.5,143.9,250.4z"
			/>
		<path class="st9" d="M185.3,130.7c0,0,13.4,1.3,16.8,3.6c2.2,1.4,0.5,17.3,0.5,17.3s-3.1,24-2.6,36.1c0,1.2,0.1,2.3,0.2,3.5
			c1.2,18.2,10.9,61.9,10.1,62.6c-5.5,3.1-35.4,2.9-35.8,0.5C171.5,233.7,185.3,130.7,185.3,130.7z"/>
		<path class="st15" d="M199.9,186.6c0,0.3,0,0.7,0,1c0,1.2,0.1,2.3,0.2,3.4l-18.2-8.5L199.9,186.6z"/>
		<path class="st5" d="M173,153l-24.6-1.6c-0.9-0.1-1.7,0.7-1.6,1.7l3.7,32.3c0.1,0.7,0.7,1.3,1.4,1.3l24.6,1.6
			c0.9,0.1,1.7-0.7,1.6-1.7l-3.7-32.3C174.3,153.6,173.7,153,173,153z"/>
		<path class="st7" d="M162.3,169.1c0.6,0.3,1.6,0.8,2.3,1.2c0.7,0.5,1.6,0.7,2.2,1c1.3,0.6,2.3,1.1,2.3,1.1c0-0.1,0.3-0.1-0.3-0.6
			c-0.8-0.6-2.8-1.4-3.9-2.3c-0.6-0.5-2-1.5-2-1.5s-1.8-1.9-1.8-2c0.4-0.8,2,0.2,2.8,1c0.8,0.3,2.2,1.4,2.2,1.4s3.4,1.6,3.6,1.1
			c0.1-0.2-1.9-1.4-3.6-2.9c-1.6-1.4-3.1-3-2.8-3.4c0.4-0.6,2.3,0.7,2.3,0.7s1.3,1,1.8,1.3c0.5,0.4,2.3,1.3,2.3,1.3s6.1,3,6.3,2.5
			c0.1-0.3,0.1-0.9,0.1-1.4c0-0.3-0.3-2.8-0.3-2.8c0.5,0.2,0.9,0.3,0.9,0.3s1.7,0.8,2.5,1.8c2.7,3.6,2,3.9,2.3,4.4
			c0.4,0.5,9,3.7,9,3.7s25.8,6.4,27.2,6.9l-3.4,10.4c-1.6-0.2-30.5-11.8-33.4-13.2c0,0-4.1-0.4-6.6-0.7c-2.6-0.3-4.9-1.7-5.6-1.9
			c-0.1,0-2.4-0.8-5-2.6c-2.3-1.5,0.5-1.1,0.5-1.1s4.7,2,4.7,1.6c0.1-0.3-2.5-1.3-5-2.9c-0.6-0.4-1.3-0.8-1.9-1.2
			C160.3,169.5,160.5,168.3,162.3,169.1z"/>
		<path class="st9" d="M201,133.7c0,0,4.3,0.6,8.1,6c3.7,5.4,12,28.5,14.6,37.4c2.6,8.9,1.3,13.9-4.6,15.4
			c-5.9,1.5-37.2-9.9-37.2-9.9l2.9-10.7c0,0,20.7,4.6,21.5,4.2l-0.2-1l-5-9.9C201.1,165.2,194.7,146.6,201,133.7z"/>
		<path class="st7" d="M182,98.2c1.1-0.8,2.3-1.2,3.5-1.5c-1,0.6-2.1,1.4-2.8,2.2L182,98.2z"/>
		<polygon class="st15" points="155.7,154.6 158.8,144.3 157.7,154.7 		"/>
		<g>
			<path class="st1" d="M164.9,145l-1-0.1c0.8-6.1,4.4-13.7,8.3-15.4l0.4,0.9C169.3,131.8,165.7,138.6,164.9,145z"/>
		</g>
		<g>
			<path class="st1" d="M168.2,152.7c-0.1-3.9-1.7-6.9-3.9-7.3c-2.7-0.6-5.6,2.2-7.1,6.6l-1-0.1c1.6-5,5.2-8.2,8.4-7.6
				c2.8,0.6,4.7,3.9,4.7,8.4L168.2,152.7z"/>
		</g>
		<path class="st2" d="M167.9,152.6l-3-0.2c-0.5-3.1-7.3-3.5-7-0.4l-3.1-0.2l0.2,2.3c0,0.3,0.3,0.6,0.7,0.6l11.7,0.7
			c0.4,0,0.8-0.4,0.8-0.8L167.9,152.6z"/>
		<path class="st15" d="M200.8,168.6l-1.8-3.4l-0.1-0.1V165c-0.4-1.7-0.6-3.4-0.9-5.2c-0.2-1.7-0.4-3.5-0.4-5.2
			c-0.1-1.7-0.1-3.5,0-5.2s0.3-3.4,0.5-5.1c-0.1,1.7-0.1,3.4,0,5.1c0.1,1.7,0.2,3.4,0.5,5.1c0.2,1.7,0.5,3.4,0.9,5
			c0.4,1.7,0.8,3.3,1.3,4.9l-0.1-0.2l0.5,0.8L200.8,168.6z"/>
		<path class="st15" d="M205.9,176c1.4,0.1,5-0.2,6.2-0.5c-1.2,0-5-0.1-6-0.5L205.9,176z"/>
		<path class="st15" d="M136.7,147.6c-0.5,1.2-2.4,4.4-3.2,5.4c0.5-1.1,2.1-4.5,2.2-5.6L136.7,147.6z"/>
		<g>
			<path class="st1" d="M188.3,162.4c-2.3,0-4.2-1.9-4.2-4.2s1.9-4.2,4.2-4.2s4.2,1.9,4.2,4.2S190.7,162.4,188.3,162.4z
				 M188.3,154.9c-1.8,0-3.2,1.4-3.2,3.2s1.4,3.2,3.2,3.2s3.2-1.4,3.2-3.2S190.1,154.9,188.3,154.9z"/>
		</g>
		<path class="st1" d="M190.2,158.1c0-1-0.9-1.9-1.9-1.9s-1.9,0.9-1.9,1.9s0.9,1.9,1.9,1.9C189.4,160,190.2,159.2,190.2,158.1"/>
		<g>
			<path class="st1" d="M189.8,154.7l-1-0.3c2.3-8.5,2.8-21.5-3.5-23.8l0.3-0.9C193,132.3,192.1,146.4,189.8,154.7z"/>
		</g>
	</g>
</g>
<g>
	<g>
		<path class="st4" d="M146.3,114l-1,0.7l-1-0.7c0.2-0.3,0.6-0.5,1-0.5C145.7,113.4,146.1,113.7,146.3,114z"/>
		<g>
			<path class="st4" d="M145.3,111.6c-1,0-2,0.5-2.5,1.3l0.7,0.5c0.4-0.6,1.1-1,1.9-1c0.8,0,1.4,0.4,1.8,0.9l0.7-0.5
				C147.2,112.1,146.3,111.6,145.3,111.6z"/>
		</g>
		<g>
			<path class="st4" d="M145.3,108.2c-2.2,0-4.1,1.1-5.3,2.8l0.7,0.5c1-1.5,2.7-2.4,4.7-2.4c1.9,0,3.6,0.9,4.6,2.4l0.6-0.5
				C149.4,109.3,147.5,108.2,145.3,108.2z"/>
		</g>
		<g>
			<path class="st4" d="M145.3,110.1c-1.6,0-2.9,0.8-3.8,2l0.7,0.5c0.7-1,1.8-1.6,3.1-1.6s2.4,0.6,3.1,1.6l0.6-0.5
				C148.2,110.8,146.8,110.1,145.3,110.1z"/>
		</g>
	</g>
	<g id="zkkEJl_3_">
		<g>
			<path class="st4" d="M220.3,113.6c0,0.1,0,0.1,0,0.2l0,0c0,0.5-0.4,0.8-0.8,0.9c-0.1,0-0.1,0-0.2,0c-0.1,0-0.1,0-0.2,0l0,0
				c-0.1,0-0.3-0.1-0.4-0.1c-0.4-0.2-0.6-0.7-0.5-1.1l0,0c-0.1,0-0.2-0.1-0.2-0.1c-0.7-0.4-1.4-0.7-2.2-1.1l0,0
				c-0.2,0.2-0.5,0.4-0.8,0.4c-0.5,0-0.9-0.3-1.1-0.8c0-0.1,0-0.1,0-0.2s0-0.1,0-0.2v-0.1c0.1-0.4,0.3-0.7,0.8-0.9
				c0.4-0.1,0.8,0,1.1,0.3l0,0c0.8-0.4,1.6-0.8,2.4-1.2c0,0,0,0,0-0.1c-0.1-0.5,0.2-1.1,0.8-1.2c0.1,0,0.1,0,0.2,0
				c0.1,0,0.1,0,0.2,0l0,0c0.4,0,0.8,0.4,0.9,0.8c0,0.1,0,0.1,0,0.2s0,0.1,0,0.2l0,0c0,0.1,0,0.1,0,0.2c-0.3,0.8-1.3,1-1.8,0.4
				c0,0,0,0-0.1,0c-0.4,0.2-0.7,0.4-1.1,0.6c-0.4,0.2-0.8,0.4-1.3,0.6l0,0c0,0.1,0,0.2,0,0.4c0,0,0,0,0,0.1c0.8,0.4,1.6,0.8,2.4,1.2
				c0,0,0,0,0.1,0c0.2-0.2,0.4-0.3,0.6-0.3C219.7,112.6,220.2,113,220.3,113.6C220.3,113.4,220.3,113.5,220.3,113.6z"/>
		</g>
	</g>
</g>
</svg>
