<?xml version="1.0" encoding="utf-8"?>
<!-- Generator: Adobe Illustrator 22.0.0, SVG Export Plug-In . SVG Version: 6.00 Build 0)  -->
<svg version="1.1" id="Layer_1" xmlns="http://www.w3.org/2000/svg" xmlns:xlink="http://www.w3.org/1999/xlink" x="0px" y="0px"
	 viewBox="0 0 375 667" style="enable-background:new 0 0 375 667;" xml:space="preserve">
<style type="text/css">
	.st0{fill:#FFE4D6;}
	.st1{fill:none;stroke:#9B1E1E;stroke-width:0.75;stroke-miterlimit:10;}
	.st2{fill:#228DBF;}
	.st3{fill:#FFA77A;}
	.st4{fill:#FFC247;}
	.st5{fill:#29BED9;}
	.st6{fill:#1C739C;}
	.st7{fill:#29D9B9;}
	.st8{fill:#74D5E7;}
	.st9{fill:#FFFFFF;}
	.st10{fill:#FFF1EB;}
	.st11{fill:#FFA070;}
	.st12{fill:none;stroke:#FFFFFF;stroke-miterlimit:10;}
	.st13{fill:none;stroke:#29D9B9;stroke-miterlimit:10;}
	.st14{fill:none;stroke:#FFA77A;stroke-miterlimit:10;}
	.st15{fill:#FF925C;}
	.st16{fill:#333333;}
	.st17{fill:#FFC9AD;}
	.st18{fill:#FFBB99;}
	.st19{fill:#EB996E;}
	.st20{fill:#FF7733;}
</style>
<rect class="st0" width="375" height="667"/>
<line class="st1" x1="37.5" y1="275.5" x2="337.5" y2="275.5"/>
<path class="st2" d="M96.6,205.6c-3,0-5.5,2.5-5.5,5.5s2.5,5.5,5.5,5.5s5.5-2.5,5.5-5.5S99.6,205.6,96.6,205.6z"/>
<g>
	<path class="st3" d="M92.6,258.4c0.2,5.7,0.3,11.5,1.4,17.2h1c-1.3-6.8-1.1-13.9-1.5-20.8c-0.5-7.9-2-15.2-6.1-22
		c-0.3-0.6-1.2,0-0.9,0.5C91.2,241.1,92.3,249.4,92.6,258.4z"/>
	<g>
		<path class="st3" d="M92.2,250.2c-4.1,0.6-8.5-3.6-10.5-6.8c-0.3-0.5-1.2,0-0.9,0.5c2.3,3.6,6.9,7.9,11.6,7.2
			C93.1,251.1,92.8,250.1,92.2,250.2L92.2,250.2z"/>
	</g>
	<g>
		<path class="st3" d="M98.1,263.3c0.1,3.6-1.4,6.8-4.2,9c-0.5,0.4,0.2,1.1,0.7,0.7c3-2.4,4.6-5.9,4.5-9.8
			C99.1,262.6,98.1,262.6,98.1,263.3L98.1,263.3z"/>
	</g>
</g>
<g>
	<g>
		<g>
			<path class="st4" d="M140.6,271.9v-0.1l0.1-0.1L140.6,271.9z"/>
		</g>
		<g>
			<path class="st5" d="M118.4,225.5c0.6-0.2,1.1,0.3,1.4,0.8c1.8,2.8,3.3,5.8,5.2,8.6c2.9,4.3,6.8,7.8,9.5,12.3
				c1.2,1.9,2.1,4,2.9,6.1c0.7,2.1,1.3,4.3,1.7,6.5s0.7,4.5,1,6.8c0.1,1,0.2,1.9,0.3,2.9c0,0.5,0.1,1,0.1,1.4c0,0.2,0,0.5,0.1,0.7
				c0,0.3,0.1,0.6-0.1,0.8c-0.1,0.1-0.2,0.1-0.3,0.2c-0.1,0-0.2,0.1-0.3,0.1c-0.3,0-0.3-0.4-0.4-0.7c-0.1-0.3-0.1-0.5-0.2-0.8
				c-0.1-0.5-0.3-1-0.5-1.5c-0.4-1-0.9-1.9-1.4-2.8c-1.1-1.8-2.4-3.5-3.8-5.1c-1.1-1.3-2.3-2.7-3.4-4c-7.1-8.8-11.4-19.7-12.3-31
				C117.9,226.4,117.9,225.7,118.4,225.5z"/>
		</g>
	</g>
	<g>
		<g>
			<path class="st4" d="M135.5,277.3L135.5,277.3c0-0.1,0-0.2,0-0.2V277.3z"/>
		</g>
		<g>
			<path class="st5" d="M133.2,275.5h1.8c0-0.1-0.1-0.2-0.1-0.3c-0.3-0.8-0.6-1.6-0.9-2.4c-0.7-1.8-1.5-3.6-2.4-5.4
				c-0.9-1.8-1.9-3.5-3-5.1c-1.1-1.6-2.4-3.1-3.8-4.4c-3.4-3-7.4-5.1-10.9-8c-2.3-1.9-4.2-4.1-6.4-6c-0.4-0.4-1-0.7-1.4-0.4
				c-0.3,0.3-0.2,0.8-0.2,1.2c3.4,9.2,9.6,17.4,17.6,23.1c1.3,0.9,2.5,1.7,3.8,2.6c1.6,1.1,3.1,2.1,4.4,3.4
				C132.2,274.3,132.7,274.9,133.2,275.5z"/>
		</g>
	</g>
	<g>
		<path class="st4" d="M131.6,279.7L131.6,279.7c0-0.1,0-0.1,0-0.2V279.7z"/>
	</g>
</g>
<g>
	<g>
		<path class="st6" d="M243.3,287.4C243.3,287.4,243.3,287.3,243.3,287.4c0-0.1,0-0.2,0-0.2V287.4z"/>
		<path class="st6" d="M250.3,288.5L250.3,288.5c0-0.1,0-0.1,0-0.2V288.5z"/>
		<g>
			<path class="st6" d="M250.6,292L250.6,292c0.1-0.1,0.1-0.1,0.1-0.1L250.6,292z"/>
		</g>
	</g>
	<path class="st7" d="M247.6,275.5c1.5-3.6,3.3-7.1,5.9-10c2.7-3,6-5.3,8.9-8c1.5-1.3,2.9-2.8,4.2-4.3c0.8-0.9,3.3-4.8,4.7-4.9
		c0.5,1.4-1.1,4.7-1.6,5.8c-0.8,2.1-1.7,4.2-2.8,6.2c-1.9,3.6-4.2,6.9-6.8,9.9c-1.7,1.9-3.5,3.7-5.4,5.3h1.6
		c2.5-2.3,4.9-4.8,6.9-7.6c2.6-3.5,4.8-7.2,6.5-11.2c0.8-1.8,1.4-3.6,2-5.5c0.4-1.2,1-2.5,0.3-3.6c0-0.1-0.1-0.3-0.3-0.3
		c-0.9-0.2-1.3,0.1-1.9,0.7c-1.6,1.4-2.8,3.3-4.2,4.9c-2.7,3-5.8,5.5-8.8,8.1c-4.8,4.1-8,9-10.3,14.6h1.1V275.5z"/>
	<path class="st7" d="M260.7,275.5c0.3-0.2,0.6-0.5,0.9-0.7c2.9-2.1,6.2-3.4,9.4-4.9c1.6-0.7,3.1-1.6,4.5-2.5c1-0.6,3.3-2.8,4.7-2.8
		c-0.1,1.3-2.1,3.5-2.7,4.4c-1.1,1.4-2.3,2.8-3.5,4.1c-0.9,0.9-1.8,1.7-2.7,2.5h1.5c1.2-1.1,2.4-2.3,3.5-3.5
		c1.3-1.4,2.4-2.9,3.5-4.5c0.7-1.1,1.7-2.2,1.5-3.5c0-0.2-0.2-0.3-0.3-0.3l0,0l0,0l0,0c-1.4-0.4-2.5,0.7-3.7,1.5
		c-1.9,1.3-3.8,2.5-5.8,3.6c-3.8,1.9-7.7,3.2-11,5.9c-0.4,0.3-0.7,0.6-1.1,0.9h1.3V275.5z"/>
	<g>
		<g>
			<path class="st8" d="M218.5,200.7c4.6,0.4,9-4.2,11-7.9c0.3-0.6-0.5-1.1-0.9-0.5c-1.9,3.3-5.9,7.7-10.2,7.4
				C217.8,199.6,217.8,200.6,218.5,200.7L218.5,200.7z"/>
		</g>
		<g>
			<path class="st8" d="M216.7,232.5c8-1.2,13-10.3,13.2-17.7c0-0.6-1-0.6-1,0c-0.3,7-5,15.7-12.5,16.8
				C215.8,231.7,216.1,232.6,216.7,232.5L216.7,232.5z"/>
		</g>
		<g>
			<path class="st8" d="M204.2,220.4c-1.4,8.4,0.9,16.9,6.3,23.5c0.4,0.5,1.1-0.2,0.7-0.7c-5.2-6.3-7.4-14.5-6-22.5
				C205.3,220.1,204.3,219.8,204.2,220.4L204.2,220.4z"/>
		</g>
		<g>
			<path class="st8" d="M198.6,261.2c5,0.8,9.7-0.7,14.2-2.7c4.1-1.8,7.6-4.5,9.2-8.8c0.2-0.6-0.7-0.9-1-0.3
				c-1.6,4.2-5.2,6.6-9.1,8.3c-4.2,1.8-8.5,3.3-13.1,2.5C198.3,260.1,198,261.1,198.6,261.2L198.6,261.2z"/>
		</g>
		<g>
			<path class="st8" d="M191.1,272.6c-1.5-5.9-0.4-12,3-17.1c0.4-0.5-0.5-1-0.9-0.5c-3.6,5.3-4.6,11.7-3.1,17.8
				C190.3,273.5,191.2,273.2,191.1,272.6L191.1,272.6z"/>
		</g>
		<g>
			<path class="st8" d="M212.4,213.1c0.1,3.9,2,7.3,5.1,9.6c0.5,0.4,1-0.5,0.5-0.9c-2.9-2-4.5-5.2-4.6-8.7
				C213.4,212.5,212.4,212.5,212.4,213.1L212.4,213.1z"/>
		</g>
	</g>
	<path class="st8" d="M177.9,275.5c0.7-1.7,1.8-3.2,3.1-4.5c1.5-1.5,3.2-2.8,4.1-4.7c0.8-1.7,0.8-3.5,0.7-5.3
		c-0.2-3.3,0-6.2,2.3-8.8c3.1-3.6,7.7-5.4,10.6-9.2c2.4-3.1,2.7-7,1.5-10.7c-0.6-1.8-1.5-3.5-2.7-5c-2-2.6-4.3-4.7-2.5-8.2
		c2.4-4.8,8.6-5.3,12.6-8.1c3-2.1,4.4-5.1,4-8.8c-0.5-4.3-3.2-8.8-1.7-13.2s6-6.2,10.3-6.3c4-0.1,11,0.9,12.1,5.5
		c1.3,5.4-4.5,9.4-5.2,14.5c-0.6,4.1,2,7.1,4.8,9.7c2.6,2.4,4.2,5.2,3.3,8.8c-0.6,2.5-2.3,4.3-4,6.1c-3.3,3.3-4.5,6.4-3.4,11.1
		c0.7,3.1,2.2,6.1,2.2,9.4c-0.1,3.3-1.7,6.4-4,8.8c-4,4.3-9.7,6-14,9.7c-2.8,2.4-3.5,5.8-3.7,9.2h1c0.1-1.6,0.2-3.1,0.7-4.6
		c1.2-3.6,4.4-5.2,7.5-7c4.4-2.6,9.1-5.4,11.7-9.9c2.7-4.8,1.5-9.2,0-14.3c-0.9-3.3-1.4-6.8,0.8-9.7c1.3-1.7,3-3,4.3-4.6
		c2.7-3.6,3-8.6,0-12.1c-1.7-2-4-3.4-5.3-5.8c-1.8-3.5-0.5-6.7,1.3-9.8c2.1-3.5,4.8-8.2,1.8-12c-2.4-3-7.1-3.9-10.7-4
		c-7.9-0.3-14.2,4.7-12.5,13.1c1.1,5.7,3.9,11.6-2.1,15.6c-4.1,2.7-9.8,3.3-12.4,8c-0.8,1.4-1.2,3.1-0.9,4.7
		c0.6,2.5,2.9,4.1,4.2,6.1c1.6,2.5,2.6,5.5,2.2,8.5c-0.4,3.4-2.6,5.8-5.1,7.8c-3.6,2.9-8.3,5.3-9.6,10.1c-0.7,2.4,0,4.9-0.1,7.4
		c-0.2,3.7-3.1,5.5-5.3,8.1c-1.2,1.3-2.1,2.8-2.7,4.4H177.9z"/>
	<path class="st8" d="M190,275.5c0.7-1.5,1.5-3,2.3-4.4c3.7-6.5,8.5-12.4,12.9-18.4c4.3-5.8,8.4-11.8,10.9-18.6
		c2.8-7.5,2.8-15.4,2.6-23.3c-0.2-9.9-0.1-19.4,4.6-28.4c0.3-0.6-0.6-1.1-0.9-0.5c-3.7,7.2-4.8,14.7-4.8,22.7c0,9,1,18.1-1.6,26.8
		c-4.6,15.3-17.4,26.1-24.9,39.8c-0.7,1.3-1.4,2.7-2.1,4.2L190,275.5L190,275.5z"/>
	<path class="st4" d="M250.4,210.4l4.8,0.9c0.1,0,0.1,0.2,0,0.3l-4.8,0.9c-0.1,0-0.1,0.1-0.1,0.1l-0.9,4.8c0,0.1-0.2,0.1-0.3,0
		l-0.9-4.8c0-0.1-0.1-0.1-0.1-0.1l-4.8-0.9c-0.1,0-0.1-0.2,0-0.3l4.8-0.9c0.1,0,0.1-0.1,0.1-0.1l0.9-4.8c0-0.1,0.2-0.1,0.3,0
		l0.9,4.8C250.3,210.3,250.3,210.4,250.4,210.4z"/>
	<g>
		<path class="st5" d="M252,264.4c-10.2-5.2-17.8,0.7-18.3,1.2C240,268.8,246.1,268.4,252,264.4z"/>
		<path class="st5" d="M239.9,257.1c0.4-0.1,6.9-7.4,18-2.6C252.1,258.2,246.1,259,239.9,257.1z"/>
		<path class="st5" d="M257.8,237.7c-0.2,0-12.8,1.2-16.8,13.7C250,250.2,255.6,245.6,257.8,237.7z"/>
		<path class="st5" d="M239.7,233.2c0,0,3.8,11.5-4.6,19.8C231.9,246.6,233.6,238.7,239.7,233.2z"/>
		<path class="st5" d="M224.1,241.2c0,0-3.2,12.3,6.4,17.1C231.5,250.8,229.3,245.1,224.1,241.2z"/>
		<path class="st5" d="M218.9,253.1c0,0,6.7,3.2,7.1,11.2C221.5,262.7,219.2,258.8,218.9,253.1z"/>
		<path class="st5" d="M214.8,263.7c0,0,7.7-0.6,9.4,6.6C219.2,270.6,216.3,268.1,214.8,263.7z"/>
	</g>
</g>
<g>
	<path class="st9" d="M67.9,84.6c0.2-2.6,4.4-5.4,6.3-6.6c4.2-2.6,9.3-3.5,14.1-1.8c4.8,1.7,9,5.6,14.3,5.4c2.9-0.1,5.5-1.6,8.4-1.5
		c3.6,0.1,6.7,2,8.7,4.9c0.1-0.3,0.3-0.5,0.4-0.8c-15.4-0.1-30.8-0.1-46.2-0.2c-2.2,0-4.4,0-6.5,0c-0.6,0-0.6,1,0,1
		c15.4,0.1,30.8,0.1,46.2,0.2c2.2,0,4.4,0,6.5,0c0.4,0,0.6-0.4,0.4-0.8c-3.5-5.2-9-6-14.7-4.6c-4.6,1.1-7.9,0-11.9-2.1
		c-2.7-1.4-5.2-2.8-8.3-3.3c-4.8-0.8-9.6,0.7-13.4,3.5c-1.9,1.4-5.2,3.9-5.4,6.5C66.8,85.2,67.8,85.2,67.9,84.6z"/>
</g>
<g>
	<path class="st10" d="M196.2,137.2c-0.1,0.1-0.2,0.2-0.4,0.3"/>
</g>
<path class="st7" d="M145.9,72.6c-36.4,0.3-65.5,30.4-65.5,66.8v19.3L67.7,192c-1.2,3.2,1.1,6.6,4.5,6.6h8.7
	c2.9,21.6,21.4,38.3,43.8,38.3c3.4,0,6.6-0.1,9.5-0.4l-7,39.1h85.1v-137C212.3,101.9,182.5,72.3,145.9,72.6z"/>
<path class="st6" d="M134.3,236.4c6-0.3,12.2-1.2,17.9-3.5c-5.4,2.8-12,4.3-18.2,5.1L134.3,236.4z"/>
<circle class="st9" cx="147" cy="133" r="47"/>
<g>
	<path class="st11" d="M177.3,125.3c0.1-2.2,0.1-4.3-0.2-6.5c-0.9-7.6-6-12.3-13.4-13.6c-0.9-0.2-1.8-0.3-2.8-0.4
		c0-1.2-0.2-2.3-0.8-3.4c-1.8-2.9-5.9-3.4-8.9-3.7c-1.7-0.2-3.5-0.1-5.2,0.1c-1.1-0.1-2.2,0-3.3,0.2c-3.8,0.7-7.6,1.6-11.1,3.1
		c-2.7,1.1-14.9,8.3-9.4,12.1c0.9,0.6,2.2,0.8,3.3,0.8c0.5,0,1,0,1.6,0c-0.2,0.3-0.5,0.6-0.7,0.9c-0.5,0-1,0.1-1.5,0.3
		c-4.3,1.2-7,5-7.8,9.2c-2.6,0.1-4.8,2-5.5,4.8c-0.8,3.1,0.2,6.6,1,9.6c0.9,3.2,1.9,6.5,3.4,9.5c1.7,3.4,4.4,5.8,7.7,6.9
		c1.8,1.9,4,3.3,6.5,4.2c-0.3,0.1-0.6,0.3-0.9,0.5c-2.9,2.2-1.4,6.7,2.4,5.7c2.5-0.7,3.7-2.8,4.1-5.2c1.1,0.1,2.2,0.1,3.3,0
		c0.8-0.1,1.6-0.2,2.3-0.3c0.9,0.2,1.7,0.3,2.5,0.5c0.4,0.1,0.8,0.2,1.2,0.3c1.3,4.1,4.9,7.2,9.6,5.7c3-0.9,5.3-2.7,6.9-5.1
		c0.6,0,1.3-0.1,2-0.3c6.8-1.8,9.2-8.6,10.4-14.9c1.7-1.9,3.5-3.7,4.7-6C181.1,135.6,179.5,130.1,177.3,125.3z M174,112.5
		c2,3.3,2.5,7.1,2.4,11c-0.2-0.5-0.5-0.9-0.7-1.4c-2.9-5.5-7.2-10.5-13-12.9c-0.5-0.4-1-0.8-1.6-1.1c-0.2-0.2-0.5-0.3-0.7-0.4
		c0.2-0.6,0.3-1.2,0.4-1.8C166.1,106.3,171.2,108.1,174,112.5z M172,146.9c-0.2-0.8-0.4-1.5-0.8-2.2c-0.4-0.9-1-1.7-1.6-2.5
		c0.8-1.1,1.5-2.3,2.1-3.6c3.1-6.5,2.1-13.6-1.1-19.7c-0.1-0.6-0.3-1.2-0.6-1.8c-0.5-1.1-1.2-1.8-2.1-2.4c-0.7-0.9-1.4-1.8-2.2-2.6
		c4.2,3,7.5,7.5,9.7,12c0.2,0.5,0.4,0.9,0.7,1.4c-0.3,3.2-0.9,6.3-1.4,9.2c-0.6,3.7-1.2,7.5-1.9,11.2
		C172.6,146.2,172.3,146.6,172,146.9z M168.5,154.1c0.6-1.8,1.6-3.3,2.7-4.7C171.3,151.3,170.6,153.2,168.5,154.1z M160.6,160.6
		c-0.8,0-1.6-0.2-2.3-0.5c2.3-2.3,3.7-5.7,4.5-8.6c0.3-1,0.2-1.8-0.1-2.5c0.2-0.1,0.3-0.3,0.5-0.4
		C163.8,152.8,162.9,157.1,160.6,160.6z M137.5,158.9c-0.6,0-1.2-0.1-1.8-0.1c0-1.6-0.4-3.1-1-4.3c1.9-0.9,3.6-2.1,5.1-3.5
		c1.4,1.5,3.2,2.6,5.1,3.1c-0.4,1.4-0.6,2.8-0.5,4.3c-1.1,0.4-2.3,0.7-3.5,0.9C139.8,159.1,138.6,158.9,137.5,158.9z M124.4,154.6
		c-1.9-2-3.2-4.5-3.9-7.5c-0.7-3-0.8-6.3-0.4-9.4c1.8,2.8,4,5.3,6.2,7.7c2.4,2.6,5.2,5.2,7,8.4C130.4,155,127.3,155.4,124.4,154.6z
		 M121.4,137.9c-0.4-0.6-0.7-1.2-1.1-1.8c0.4-2.1,0.9-4.2,1.7-6.2c1.1,8,7.3,14.3,15,16.7c0,0.1,0.1,0.2,0.1,0.4
		c0.5,1.2,1.2,2.3,2,3.3c-1.5,1.3-3.1,2.4-5,3.3C131.1,147.5,125.1,143.4,121.4,137.9z M117.8,125.5c1.4,0.3,2.8,1.2,4.1,2.4v0.1
		c-1,2.2-1.7,4.5-2.2,6.9C118.3,131.9,117.5,128.6,117.8,125.5z M126.8,116.2c1.2,0,2.4,0.3,3.4,0.8c-2.9,2.4-5.3,5.3-7.1,8.7
		C123.5,122.2,124.8,119.1,126.8,116.2z M138.4,100.9c2.3-1,4.8-1.7,7.3-1.9c1.2,0.2,2.1,0.9,2.5,2.1c0.4,1.4,0.2,2.7-0.5,3.8
		c-0.5,0.2-1.1,0.4-1.6,0.7c0-0.1,0-0.3,0-0.4c-0.2-1.2-0.5-2.3-1.6-2.8c-0.1,0-0.1-0.1-0.2-0.1c-4.4-1.2-7.5,1-10.3,3.8
		C133.4,103.6,136.3,101.8,138.4,100.9z M157.2,106.9c0.7,0.3,1.3,0.7,2,1c0,0,0,0,0,0.1c-4.6-1-9.4,0-13.1,3c0.1-1,0.2-2.1,0.2-3.1
		c0.4-0.3,0.7-0.6,1-0.9c1-0.3,2.1-0.6,3.2-0.8c1.1-0.2,2.3-0.3,3.5-0.4C155.2,106.1,156.2,106.5,157.2,106.9z M156.8,105.7
		c1,0,2,0,3,0.1c-0.1,0.4-0.2,0.9-0.3,1.3C158.6,106.5,157.7,106.1,156.8,105.7z M166,113.6c-0.6-0.2-1.2-0.4-1.8-0.5
		c-1.9-0.4-3.8-0.8-5.8-1.1c0.3-0.5,0.5-1,0.8-1.5c0.2-0.4,0.5-0.9,0.7-1.4c0.8,0.2,1.5,0.5,2.2,0.8
		C163.5,111,164.8,112.3,166,113.6z M169.8,119.2c0.5,2.7-0.3,5.7-1.2,8.1c-1,2.8-2.4,5.4-4.1,7.7c-0.4-0.8-0.7-1.6-0.9-2.5
		c-0.4-1.9-0.1-3.8-0.7-5.7c0-0.1-0.1-0.2-0.1-0.3c0.7-0.4,1.2-0.8,1.4-1.2c0.9-1.4,0.9-3.4,0-4.7c-1.2-1.7-3.3-1.5-5.1-1.1
		c-4.6,1-8.9,4-8,9.2c0.4,2.2,1.5,4,2.8,5.6c-0.8,0-1.7,0.1-2.6,0.6c-1.7,0.8-3.1,2.4-4.2,4c-0.8-2.6-1.5-5.3-2-8
		c2.4-2.8,4.5-5.7,6.6-8.7c2-3,4.2-6,6-9.2c0.6,0.1,1.2,0.2,1.8,0.3c2.4,0.4,5.6,0.6,7.8,2C168.3,116.6,169.1,117.8,169.8,119.2z
		 M157.3,146.2c-2-0.2-4-0.1-5.2,0.3c-0.7,0.2-1.3,0.5-1.9,0.8c-0.1-0.2-0.2-0.4-0.3-0.7c3.2-0.9,6.1-2.3,8.8-4.3
		c-0.1,0.9-0.4,1.9-0.8,2.7C157.8,145.5,157.6,145.8,157.3,146.2z M151.9,151.7c-0.5-1.2-0.9-2.3-1.3-3.5c0.2-0.1,0.4-0.2,0.6-0.3
		c1.2-0.6,3.4-0.9,5.6-0.8C155.5,148.9,153.8,150.6,151.9,151.7z M158,147.2c1.5,0.2,2.8,0.7,3.4,1.7c-2,1.5-4.2,2.9-6.3,4.2
		c-0.7,0.4-1.4,0.8-2.1,1.3c-0.3-0.5-0.5-1.1-0.8-1.7C154.5,151.4,156.5,149.4,158,147.2z M139.5,149c-0.5-0.7-0.9-1.4-1.2-2.1
		c1.1,0.3,2.2,0.5,3.4,0.6c-0.5,0.6-1,1.2-1.6,1.8c-0.1,0.1-0.2,0.2-0.2,0.2C139.7,149.3,139.6,149.2,139.5,149z M141.1,110.2
		c0.1,0,0.2,0,0.3-0.1c-0.4,0.6-0.7,1.2-1.1,1.8c-0.7,0.2-1.3,0.3-2,0.6C139.3,111.6,140.2,110.9,141.1,110.2z M133.3,119.6
		c0-0.1,0.1-0.1,0.1-0.1c1.9,2.4,2.5,5.9,0.2,9.2c-1.3,1.9-2.7,2.6-4,2.6c0.1-0.5,0.2-1,0.3-1.5
		C130.5,126.2,131.6,122.8,133.3,119.6z M129.4,132.2c4.4-0.1,7-5.5,6.5-9.5c-0.2-1.7-0.9-3.2-2-4.4c0.9-1.6,2-3.1,3.1-4.4
		c0.2-0.1,0.4-0.1,0.6-0.2c0.6,0,1.2,0,1.8,0c-1.6,3.6-2.4,7.7-3,11.3c-0.6,4-1.2,8.6-1.1,13c-2.4,0.9-5.1,0.2-5.9-2.6
		C129.3,134.4,129.3,133.3,129.4,132.2z M144.8,112.3c-0.1,0.1-0.3,0.3-0.4,0.4c-0.1,0.2-0.3,0.4-0.5,0.6c-0.9-0.2-1.9-0.4-2.8-0.4
		c0,0,0-0.1,0.1-0.1C142.4,112.5,143.6,112.3,144.8,112.3C144.8,112.2,144.8,112.3,144.8,112.3z M145.5,114.9
		c0.9,0.5,1.8,1.1,2.5,1.9c1.8,2.2,1.7,6.1-1.6,7c-0.7,0.2-1.3,0.1-1.9-0.2c0-0.5,0-1,0-1.5C144.7,119.8,145.1,117.3,145.5,114.9z
		 M143.6,122.2c0,0.2,0,0.4,0,0.6c-0.6-0.7-0.9-1.6-1-2.5c-0.1-1.3,0.2-2.6,0.7-3.8c0.3-0.7,0.7-1.4,1.1-2.1h0.1
		C144.1,117,143.7,119.6,143.6,122.2z M139.4,117.1c0.4-1.1,0.8-2.2,1.3-3.3c0.9,0.1,1.8,0.2,2.7,0.4c-1.8,3.1-3.1,8.4,0.1,10.2
		c0,2.1,0.2,4.2,0.6,6.3c-2.1,2.5-4.5,5.3-7.5,6.8C136.7,130.6,137.2,123.5,139.4,117.1z M144.6,124.8c0.1,0,0.2,0.1,0.4,0.1
		c2,0.4,3.9-0.9,4.8-2.6c1.1-2,0.4-4.4-1-6.1c-0.9-1-1.9-1.7-3.1-2.3c0.1-0.5,0.1-0.9,0.2-1.4c0.1-0.1,0.3-0.3,0.4-0.4
		c3.5-0.1,7,0.2,10.4,0.7c-1.3,2.2-2.8,4.2-4.1,6.3c-2.4,3.6-4.9,7.1-7.6,10.5C144.8,128,144.6,126.4,144.6,124.8z M147.7,111.1
		c1.8-1.2,3.8-2,5.9-2.3c1.8-0.3,3.6-0.2,5.2,0.1c-0.4,1-0.9,2-1.5,3C154.1,111.4,150.9,111.1,147.7,111.1z M142.3,111.5
		c-0.2,0-0.4,0.1-0.5,0.1c0.4-0.7,0.8-1.3,1.3-2c0.8-0.3,1.5-0.6,2.3-1.1c-0.1,1-0.3,1.9-0.4,2.6
		C144.1,111.3,143.2,111.4,142.3,111.5z M133.2,117.6c-0.4-0.3-0.8-0.7-1.2-0.9c0.9-0.7,1.9-1.2,2.9-1.8
		C134.3,115.8,133.8,116.7,133.2,117.6z M132.6,118.7c-1.4,2.7-2.5,5.5-3.3,8.4c-0.3,1.3-0.7,2.7-0.9,4.1c-1.8-0.5-3.6-2-5.4-3.5
		c1.9-4,4.6-7.5,8-10.2C131.6,117.8,132.2,118.2,132.6,118.7z M128.1,132.1c0.1,0,0.2,0,0.3,0c-0.1,1.4,0,2.8,0.5,4.1
		c1,2.4,3.4,3.6,5.9,3c0.3-0.1,0.5-0.2,0.8-0.2c0.1,2.3,0.5,4.5,1.1,6.5c-6.4-2-11.4-7.3-13.2-13.8c-0.3-1-0.4-2-0.5-2.9
		C124.7,130.3,126.4,131.7,128.1,132.1z M136.7,138.6c2.7-1.3,5-3.7,6.9-5.9c0.2-0.3,0.5-0.6,0.7-0.8c0.5,2.7,1.2,5.4,2.1,8.1
		c-0.1,0.2-0.2,0.3-0.3,0.5c-1.3,2.1-2.4,4.2-3.8,6.1c-1.5-0.1-3-0.3-4.5-0.7C137,143.6,136.7,141,136.7,138.6z M146.8,141
		c0.6,1.7,1.2,3.4,1.8,5c-1.7,0.4-3.4,0.6-5.1,0.6C144.5,145,145.6,142.9,146.8,141z M142.6,148c0.1-0.1,0.2-0.3,0.3-0.4
		c0.4,0,0.8,0,1.3,0c1.7,0,3.3-0.3,4.8-0.6c0.1,0.3,0.2,0.6,0.4,0.9c-1.9,1.3-3.3,3.1-4.1,5.2c-1.8-0.4-3.4-1.4-4.7-2.8
		C141.3,149.5,141.9,148.8,142.6,148z M149.7,148.8c0.2,0.4,0.3,0.8,0.5,1.1c0.3,0.7,0.6,1.5,0.9,2.2c-0.6,0.3-1.2,0.6-1.8,0.8
		c-1.1,0.3-2.1,0.4-3.1,0.3C147,151.5,148.2,149.9,149.7,148.8z M149.6,145.8c-0.7-1.9-1.5-3.9-2.1-5.9c2-2.9,4.4-5.2,7.4-4.4
		c1.2,1.3,2.5,2.5,3.7,3.8c0.2,0.6,0.2,1.2,0.3,1.8C156.1,143.2,153,144.8,149.6,145.8z M160.1,139.2c-0.2-0.3-0.5-0.6-0.8-0.8
		c-0.7-1.7-2-3-3.6-3.7c-1.5-1.6-2.8-3.3-3.3-5.5c-1.3-4.8,2.8-8,7.1-8.7c1.9-0.3,4-0.2,4.5,1.9c0.2,1.2-0.2,2.2-1,3
		c-0.1,0.1-0.2,0.2-0.4,0.3c-0.6-1.1-1.6-2-2.8-2.2c-1.5-0.2-3.2,1-3.2,2.6c-0.1,2.6,3.2,2.1,5.6,0.9c0.1,0.2,0.2,0.5,0.2,0.7
		c0.3,1,0.2,2.2,0.3,3.2c0.1,1.5,0.4,2.9,1,4.2c0.1,0.3,0.2,0.5,0.4,0.7c-1.1,1.3-2.2,2.6-3.5,3.7
		C160.3,139.5,160.2,139.3,160.1,139.2z M161.6,126.2c-0.7,0.3-1.5,0.5-2.3,0.6c-0.2,0-1.1,0.1-1.3,0.1c-0.5-0.1-0.6-0.6-0.6-1
		c0.2-1.3,1.8-1.3,2.8-0.9c0.4,0,0.7,0.3,1.2,1C161.6,126.1,161.6,126.2,161.6,126.2z M144.1,103.2c0.9,0.4,1.2,1.5,1.3,2.8
		c-0.3,0.2-0.5,0.4-0.8,0.6c-0.3,0.3-0.6,0.5-0.9,0.8c-1.1,0.6-2.3,1.2-3.3,2c-0.1,0-0.2,0-0.3,0c-2,0.1-4.4-0.4-5.5-2.2
		c-0.1-0.1-0.1-0.2-0.2-0.3C137.1,104.2,140.3,102.2,144.1,103.2z M138.6,110.3c0.2,0,0.4,0,0.6,0c-0.9,0.8-1.7,1.5-2.5,2.4
		c-2.5,0-5.1,0.2-7.6,0.3c0.1-0.1,0.2-0.2,0.3-0.3c1.3-1.5,2.7-3.4,4.2-5.1C134.7,109.2,136.8,110.1,138.6,110.3z M132.9,113.9
		c0.7,0,1.4-0.1,2.1-0.1c-1.3,0.7-2.6,1.4-3.8,2.3c-1.1-0.6-2.4-1-3.7-1.1c0.2-0.3,0.5-0.6,0.7-1C129.8,114.1,131.4,114,132.9,113.9
		z M145.6,155.1c0.1-0.3,0.2-0.6,0.2-0.9c1.1,0.1,2.2,0.1,3.4-0.2c0.8-0.2,1.5-0.5,2.3-0.9c0.3,0.6,0.5,1.1,0.8,1.7
		c-2.2,1.3-4.5,2.4-6.9,3.2C145.3,157,145.4,156,145.6,155.1z M152.8,155.7c1,1.8,2.2,3.5,3.8,4.6c-2.7,2.1-5.7,1.3-9.1,0.3
		c-0.6-0.2-1.2-0.3-1.8-0.5c-0.1-0.3-0.1-0.7-0.2-1C148,158.2,150.5,157,152.8,155.7z M155.8,158.5c-0.9-0.9-1.7-2-2.3-3.2
		c1.7-1,3.3-2,4.9-3.1c1.1-0.8,2.3-1.5,3.4-2.4c0.1,0.4,0.2,0.9,0.1,1.5c-0.4,2.7-2.4,6-4.2,8c-0.1,0.1-0.2,0.2-0.3,0.3
		C156.8,159.3,156.3,158.9,155.8,158.5z M162.3,148.3c-0.8-0.9-2.3-1.5-3.8-1.9c0.8-1.5,1.4-3.1,1.5-4.7c0-0.1,0-0.1,0-0.2
		c0.1-0.1,0.3-0.2,0.4-0.3c0.7,0.9,1.3,1.9,1.8,3s0.8,2.2,1,3.3C162.8,147.8,162.6,148,162.3,148.3z M161.1,140.5
		c1.2-1.1,2.4-2.3,3.4-3.6c1.2,1.9,2.6,3.5,4,5.2c-1.3,1.8-2.9,3.4-4.6,4.8C163.3,144.6,162.4,142.4,161.1,140.5z M166,137.4
		c-0.3-0.4-0.6-0.9-0.9-1.4c2.5-3.4,4.3-7.2,5.3-11.3c0.3-1,0.4-2.2,0.5-3.3c2.5,5.9,2.4,12.6-0.9,18.2c-0.3,0.5-0.7,1.1-1,1.6
		C168,140,167,138.8,166,137.4z M152,99c2.3,0.3,4.9,0.7,6.6,2.4c1,1,1.3,2.2,1.3,3.5c-1.9-0.2-3.8-0.2-5.8,0
		c-1.7-0.4-3.4-0.5-5-0.2c0.5-1.3,0.6-2.7,0-4.3c-0.3-0.6-0.6-1.1-1-1.5C149.3,98.8,150.6,98.8,152,99z M125.1,113.1
		c-0.5,0-1-0.1-1.4-0.2c-1.3-0.4-1.3-0.6-1.3-1.9c-0.1-2.3,2-4.1,3.7-5.5c3-2.4,6.6-3.9,10.3-4.9c0.2-0.1,0.5-0.2,0.8-0.2
		c-2.2,1.1-4.6,2.8-4.2,5.5c0,0.4,0.1,0.7,0.3,1.1c-0.6,0.6-1.1,1.2-1.7,1.8c-1.3,1.4-2.5,2.8-3.8,4.3
		C126.9,113.1,126,113.2,125.1,113.1z M121.8,118c1.2-1,2.4-1.5,3.7-1.7c-1.7,2.7-3,5.6-3.4,8.8c-0.1,0.5-0.1,1-0.1,1.5
		c-0.7-0.6-1.4-1-2-1.4c-0.6-0.3-1.3-0.6-1.9-0.7C118.4,122.1,119.5,119.9,121.8,118z M113.8,140c-1.2-4-3.5-10.9,0.9-13.9
		c0.7-0.5,1.4-0.7,2.1-0.7c-0.1,0.7-0.1,1.5-0.1,2.2c0.1,3.2,1.2,6.2,2.7,8.9c0,0.3-0.1,0.6-0.1,0.9c-0.7,5.5-0.3,11.8,3.1,16.5
		c-1-0.5-2-1.2-3-2C116.3,148.8,114.9,144,113.8,140z M125.7,155.8c1.1,0.2,2.2,0.2,3.4,0.1c1.7-0.1,3.2-0.5,4.7-1.1
		c0,0.1,0.1,0.1,0.1,0.2c0.5,1.2,0.8,2.5,0.9,3.7c-1,0-2,0-3,0.2C129.4,158.3,127.4,157.2,125.7,155.8z M134.4,161.1
		c-0.3,1.2-1.1,2.4-2.1,3.1c-1.2,0.8-2.5,0.4-3.1-0.2c-0.6-0.6-1.1-1.8,0-2.9c0.5-0.3,1.1-0.6,1.6-1c0.3-0.1,0.6-0.2,0.9-0.2
		c0.9,0.2,1.9,0.4,2.9,0.5C134.5,160.7,134.5,160.9,134.4,161.1z M143.6,159.6c0.3-0.1,0.6-0.2,1-0.3c0,0.2,0,0.3,0.1,0.5
		C144.2,159.8,143.9,159.7,143.6,159.6z M159.5,162.1c-2.2,2.5-5.9,4.9-9.4,3.7c-2.1-0.7-3.4-2.5-4.1-4.5c2.6,0.8,5.2,1.8,7.8,1.4
		c1.4-0.2,2.7-0.9,3.8-1.8c0.7,0.4,1.5,0.6,2.4,0.7C159.8,161.7,159.6,161.9,159.5,162.1z M167.4,158c-1.5,1.3-3.4,2.2-5.4,2.5
		c2.1-3.6,2.7-8.2,2-12.4c1.8-1.5,3.5-3.2,5-5.1c0.1,0.1,0.2,0.3,0.3,0.4c0.8,1.2,1.5,2.8,1.8,4.5c-1.7,2-3.2,4.2-3.9,6.8
		c-0.1,0.4,0.2,0.7,0.6,0.6c1.1-0.3,2-0.8,2.6-1.5C169.8,155.4,168.8,156.8,167.4,158z M172.3,148.9c0-0.2,0-0.5,0-0.7
		c0.1-0.1,0.2-0.2,0.3-0.3C172.4,148.2,172.3,148.5,172.3,148.9z M174.2,144.5c0-0.3,0.1-0.5,0.1-0.8c0.9-5.2,2.2-10.8,2.8-16.3
		c1.5,3.5,2.6,7.4,1.2,10.9C177.4,140.8,175.8,142.7,174.2,144.5z"/>
</g>
<g>
	<path class="st11" d="M160,105.6c13.8-2.4,28.2-0.5,40.8,5.7c11.7,5.7,22.4,15.2,25.6,28.3c3.5,14.5-1.4,29.2-3.6,43.5
		c-1.4,9.3-1.6,19.4,1.6,28.4c3.3,9.3,10.7,14.6,20.6,14.5c0.6,0,0.6-1,0-1c-5.2,0.1-10.4-1.2-14.2-4.9c-3-2.9-4.9-6.8-6.1-10.8
		c-3.3-11.3-1.7-23.1,0.5-34.4c2.5-13,5.6-26.9,0.8-39.7c-4.2-11.3-14.2-19.6-24.8-24.8c-12.8-6.3-27.5-8.3-41.5-5.8
		C159.1,104.8,159.4,105.7,160,105.6L160,105.6z"/>
</g>
<g>
	<path class="st9" d="M218,43.8c0-3.4,14.8-19.8,32.1-11.5c5.7,2.6,11.1,6.9,17.4,6.6c3.3-0.1,6.5-1.6,9.8-2
		c5.8-0.7,11.9,2.2,15,7.2L218,43.8z"/>
</g>
<g>
	<path class="st9" d="M312.5,133.1c0-1.6,0.3-3,0.9-4.2c0.6-1.1,1.5-2.4,2.6-3.7c0.9-1,1.5-1.9,1.9-2.6c0.4-0.7,0.6-1.5,0.6-2.4
		c0-1-0.4-1.8-1.1-2.4c-0.7-0.6-1.7-0.9-3-0.9s-2.6,0.3-4.1,0.9c-1.4,0.6-2.8,1.4-4.2,2.4l-1.9-4.2c1.2-1.1,2.8-2,4.8-2.6
		c1.9-0.7,3.9-1,5.8-1c1.8,0,3.4,0.3,4.8,0.9c1.4,0.6,2.5,1.5,3.3,2.6s1.2,2.4,1.2,3.8c0,1.6-0.4,2.9-1.1,4.1
		c-0.7,1.2-1.8,2.5-3.2,3.9c-1.2,1.3-2.1,2.4-2.8,3.2c-0.6,0.8-1,1.8-1.1,2.9l-0.2,1.2h-3.3v-1.9H312.5z M311.1,144.3v-6.2h6.3v6.2
		H311.1z"/>
</g>
<circle class="st12" cx="63" cy="227.8" r="4"/>
<path class="st3" d="M239.7,92.9c0,3,2.5,5.5,5.5,5.5s5.5-2.5,5.5-5.5s-2.5-5.5-5.5-5.5S239.7,89.8,239.7,92.9z M247.3,92.9
	c0,1.2-1,2.2-2.2,2.2s-2.2-1-2.2-2.2s1-2.2,2.2-2.2C246.3,90.6,247.3,91.6,247.3,92.9z"/>
<g>
	<path class="st8" d="M41.9,134.9c1.6,0.4,3.2,1,4.5,2.1c2.4,1.9,3.6,5.1,3.7,8.1c0.1,2-0.3,4.2,0.8,6c0.8,1.3,2.3,2.1,3.7,2.7
		l-1.5,4.6c0,0-4.4-1.5-5.9-4.2c-1.3-2.5-1.6-4.9-1.3-7.5c0.2-1.7-0.2-3.6-1.2-5c-0.8-1.1-2.5-2.4-4-2.5L41.9,134.9z"/>
</g>
<path class="st13" d="M226.2,92h7.1c0,0-0.4-9.8,10.1-9.9v-6.7C231.7,76,226.5,81.9,226.2,92z"/>
<g>
	<path class="st14" d="M143.4,48c0.1,1.6,0,3.2-0.9,4.5c-1.1,1.7-3.3,2.3-5.1,3.2c-1.6,0.8-3.1,2-4.2,3.5c1.1,1,2.2,1.9,3.3,2.9V62
		c0.8-1.5,2.4-2.6,4-3.2c2.5-0.9,4.6-2.1,6.3-4.4c1.9-2.5,1.4-7.1,1.4-7.1L143.4,48z"/>
</g>
<path class="st7" d="M52,275.5h1.5c-2.3-2-3.9-4.7-5-7.9c2.2,0.4,8.7,2,13,7.9h1.2c-5.4-8.2-14.8-9-14.9-9l0,0h-0.6l0.2,0.6
	C48.3,270.5,49.9,273.3,52,275.5z"/>
<g>
	<path class="st3" d="M326.1,235.3c-2.5,0-4.6-2-4.6-4.6s2-4.6,4.6-4.6c2.5,0,4.6,2,4.6,4.6S328.6,235.3,326.1,235.3z M326.1,227.1
		c-2,0-3.6,1.6-3.6,3.6s1.6,3.6,3.6,3.6s3.6-1.6,3.6-3.6S328,227.1,326.1,227.1z"/>
</g>
<path class="st7" d="M66.7,275.5c-1.9-5.2-1-10.2-0.5-12.1c3.5,3.4,5.4,7.8,5.4,12.1h1c0-4.8-2.2-9.7-6.3-13.4l-0.6-0.5l-0.2,0.7
	c0,0.1-2.1,6.5,0.2,13.2L66.7,275.5L66.7,275.5z"/>
<path class="st3" d="M78.1,263.9c-2.5,2.8-3.3,6.3-2,9.8c0.3,0.7,0.6,1.3,1,1.8h1.2c-0.7-0.9-1.3-2-1.6-3.2c-0.7-3.1,0.2-5.7,2.3-8
	c1.3-1.4,2.7-2.7,3.7-4.3c1.6-2.7,1.6-5.7,0.3-8.5c-2-4.3-8.3-9.8-3.8-14.6c2.5-2.6,7.1-3.5,10.6-3.5s7.3,1,9.4,3.9
	c2.7,3.7,1.2,8.1,0.4,12.1c-0.5,2.8-0.7,5.9,0.9,8.4c1.9,2.9,5.3,4.2,8.5,5.3c2.5,0.9,5.3,1.9,7.1,4c2.4,2.8,1.6,5.5-0.4,8.2
	c0,0.1-0.1,0.1-0.1,0.2h1.3c0.5-0.7,1-1.3,1.3-2.1c1.3-2.9-0.1-6.1-2.4-8c-3.4-2.9-8.2-3.2-11.8-5.6c-5.1-3.4-3.6-8.6-2.6-13.6
	c0.6-3.2,0.8-6.4-1.1-9.2c-1.5-2.3-4-3.7-6.7-4.3c-5-1.1-14.6,0.1-16.5,5.9c-1.3,4,1.5,7.6,3.6,10.7c1.6,2.4,2.9,4.9,2.2,7.9
	C82.2,260,80,261.8,78.1,263.9z"/>
<path class="st3" d="M86.3,275.5c-2-2.9-3.3-6.4-3.6-9.6c-0.1-0.6-1.1-0.6-1,0c0.3,3.2,1.5,6.7,3.4,9.6H86.3z"/>
<g>
	<path class="st5" d="M119.4,275.5h9.1c-0.6-0.6-1.2-1.3-1.9-1.8c-1.1-1-2.2-1.9-3.4-2.8c-1.2-0.8-2.5-1.6-3.8-2.1
		c-3.1-1.3-6.5-1.7-9.7-2.8c-2.1-0.7-4-1.7-6-2.5c-0.4-0.1-0.9-0.2-1.1,0.1c-0.2,0.3,0.1,0.7,0.3,0.9
		C107.2,269.6,113,273.5,119.4,275.5z"/>
</g>
<path class="st5" d="M247.1,275.5c-10.6-6.7-18.5-2.1-18.7-2.1c0.9,0.8,1.9,1.5,2.9,2.1H247.1z"/>
<g>
	<path class="st3" d="M226.6,275.5c2.3-8.3,6.7-16.1,12.6-22.4c-6.6,6.1-11.5,13.9-14.4,22.4H226.6z"/>
</g>
<g>
	<rect x="37.5" y="275.1" class="st6" width="300" height="0.8"/>
</g>
<g>
	<path class="st5" d="M282.1,193.3c0,0-5,13.4-9.9,17.1c-4.9,3.7-16.3,3.1-16.3,3.1l-0.7,5.2c0,0,7.2,0.6,10,0.4
		c3.2-0.2,6.4-0.6,9.3-1.7c7.3-2.9,12-14.6,12.4-17.6"/>
	<path class="st15" d="M283.1,297.5c0,0-4.2,1.7-4.7,2.6c-0.4,0.9,9.1,0.2,9.1,0.2l-0.2-2.8C285.9,297.9,284.5,297.9,283.1,297.5z"
		/>
	<g>
		<path class="st16" d="M281.2,298.4c0.2,0.1,0.3,0.4,0.3,0.6c0,0.1,0.2,0.1,0.2,0c-0.1-0.2-0.2-0.5-0.4-0.6
			C281.3,298.2,281.1,298.3,281.2,298.4L281.2,298.4z"/>
	</g>
	<g>
		<path class="st16" d="M282.9,297.7c0.2,0.1,0.3,0.4,0.3,0.6c0,0.1,0.2,0.1,0.2,0c-0.1-0.2-0.2-0.5-0.4-0.6
			C283,297.5,282.9,297.6,282.9,297.7L282.9,297.7z"/>
	</g>
	<g>
		<path class="st16" d="M282.2,298c0.2,0.1,0.3,0.4,0.3,0.6c0,0.1,0.2,0.1,0.2,0c-0.1-0.2-0.2-0.5-0.4-0.6
			C282.2,297.8,282.1,297.9,282.2,298L282.2,298z"/>
	</g>
	<path class="st17" d="M287.5,299.6v0.8c0,0-9.5,0.6-9.1-0.2c0.1-0.1,0.2-0.3,0.4-0.4l0,0C278.5,300.5,287.5,299.6,287.5,299.6z"/>
	<path class="st8" d="M288,186c0,0-1.9,1.4-4.3,3.5c-2.4,4.2-4.6,8.8-5.1,13.7c-0.2,2.5,0.6,4.8,1.3,7.2c0.8,2.6,1.9,5.2,2.4,7.9
		c0.6,3.4-0.2,6.6-0.5,11.9l-1.9,30h27.6l0,0c0,0,0.3-13,0-21.8c-0.3-8.8-1.2-16.4-1.2-16.4s-1.4-12.4-7.8-23.6S288,186,288,186z"/>
	<path class="st5" d="M281.3,210.7c-2.3-2.7-2.7-5.7-2.7-5.7l0,0c0.2,1.9,0.8,3.6,1.3,5.4c0.8,2.6,1.9,5.2,2.4,7.9
		c0.6,3.4-0.2,6.6-0.5,11.9l-0.1,1.8l0,0l3,7.3c0.3-4.2,0.6-7.3,0.6-7.3h-1.1c0,0,0.8-10.8,0.6-15.1
		C284.6,213.7,282.8,212.9,281.3,210.7"/>
	<path class="st9" d="M307.2,232c-0.4-5.8-0.9-10.1-0.9-10.1s-1.4-12.4-7.8-23.6C292.1,187.1,288,186,288,186s-1.9,1.4-4.3,3.5
		c-2.3,4.4-5.1,13.7-3.7,18.4s4.6,4.7,4.8,9c0.2,4.3-0.6,15.1-0.6,15.1L307.2,232L307.2,232z"/>
	<g>
		<path class="st15" d="M296.5,297.5c0,0-4.2,1.7-4.7,2.6c-0.4,0.9,9.1,0.2,9.1,0.2l-0.2-2.8C299.3,297.9,297.8,297.9,296.5,297.5z"
			/>
		<g>
			<path class="st16" d="M294.6,298.4c0.2,0.1,0.3,0.4,0.3,0.6c0,0.1,0.2,0.1,0.2,0c-0.1-0.2-0.2-0.5-0.4-0.6
				C294.6,298.2,294.5,298.3,294.6,298.4L294.6,298.4z"/>
		</g>
		<g>
			<path class="st16" d="M296.3,297.7c0.2,0.1,0.3,0.4,0.3,0.6c0,0.1,0.2,0.1,0.2,0c-0.1-0.2-0.2-0.5-0.4-0.6
				C296.3,297.5,296.2,297.6,296.3,297.7L296.3,297.7z"/>
		</g>
		<g>
			<path class="st16" d="M295.5,298c0.2,0.1,0.3,0.4,0.3,0.6c0,0.1,0.2,0.1,0.2,0c-0.1-0.2-0.2-0.5-0.4-0.6
				C295.6,297.8,295.4,297.9,295.5,298L295.5,298z"/>
		</g>
		<path class="st17" d="M300.8,299.6v0.8c0,0-9.5,0.6-9.1-0.2c0.1-0.1,0.2-0.3,0.4-0.4l0,0C291.8,300.5,300.8,299.6,300.8,299.6z"/>
	</g>
	<g>
		<path class="st18" d="M288.2,294.3l-0.8,2.5v0.7c-1.4,0.3-2.9,0.4-4.2,0l0.5-0.3v-2.9C285.1,294.8,286.7,294.9,288.2,294.3z"/>
	</g>
	<path class="st18" d="M296.5,297.5l0.2-0.7l-0.2-2.6c1.6,0.6,3.1,0.6,4.7,0l-0.6,2.6l0.1,0.7C299.3,297.9,297.8,297.9,296.5,297.5z
		"/>
	<g>
		<path class="st15" d="M288.2,294.3c0.6-1.9,1.3-3.8,1.9-5.7c1-3,1.8-6.1,1.9-9.3c0.1-4.7-1.6-9.8-1.2-13.6l0.3-1.3
			c1.2-4.2,2.9-8.3,4.3-12.4c2.2-6.5,4-13.2,5.2-19.9h-11.7h-3.6c0,0-2.2,28.5-2.4,31.6c-0.2,3.1-0.1,6.8-0.1,6.8l0.8,23.9
			C285.1,294.8,286.7,294.9,288.2,294.3z"/>
	</g>
	<g>
		<path class="st15" d="M301.1,294.3c0.4-1.9,0.9-3.8,1.3-5.7c0.7-3.1,1.2-6.3,1-9.4c-0.3-4.7-2.5-9.6-2.5-13.4l0.2-1.3
			c0.8-4.3,2.1-8.5,3.1-12.7c1.6-6.7,2-13.4,2.6-20.3l-10.9,1l-3.6,0.3c0,0,0.5,28.6,0.6,31.7s0.5,6.8,0.5,6.8l3,23
			C298,294.9,299.6,294.9,301.1,294.3z"/>
	</g>
	<path class="st8" d="M285.6,208c-3.7-14.8,2.3-22,2.3-22s4.1,1.1,10.5,12.3s7.8,23.6,7.8,23.6s0.9,7.6,1.2,16.4
		c0.3,8.8,0,21.8,0,21.8h-18.7c0,0,1.1-24.9-1.3-40.3C285.6,208,285.6,208,285.6,208z"/>
	<path class="st5" d="M295.2,202.3c-0.5,3.6-1.4,7.3-2.9,10.6c-0.9,1.8-1.9,3.5-3.2,5.1c-0.5,0.6-1,1.2-1.6,1.8l0,0v0.1
		c0.7,4.4,1.1,9.6,1.3,14.7l0,0C293.2,224.4,295.1,213.6,295.2,202.3z"/>
	<path class="st5" d="M284.8,203.7c0.2,1.3,0.5,2.8,0.8,4.3c0,0,0,0,0.1,0.5l0,0c1.9-4.7,2.8-10.2,2.8-13.5
		C288.5,194.9,287.4,200.4,284.8,203.7z"/>
	<path class="st18" d="M288,186l-2.4-4.2l-3.7,2c2.5,3.9,1.8,5.7,1.8,5.7c-0.5,1-1.1,2.4-1.6,3.8l0,0c0,0-1.6,4.2-0.4,4.2
		s3.2-3.7,3.2-3.7l0,0C285.7,188.6,288,186,288,186"/>
	<g>
		<g>
			<path class="st18" d="M272.8,166.4c-0.7,0.6-1.1,1.5-1.3,2.4c-0.2,0.9-0.1,1.8-0.1,2.8c0.1,1.4,0.3,2.8,0.8,4.2
				c0.2,0.6,0.6,1.2,0.9,1.8c1.1,1.9,2.3,3.8,4,5.2c1.7,1.3,4.1,2.1,6.1,1.3c0.6-0.2,1.2-0.5,1.7-0.9c0.6-0.4,1.3-0.8,1.7-1.5
				c0.3-0.5,0.4-1,0.5-1.5c0.4-2.4,0.6-4.9,0.2-7.4s-1.5-4.8-3.3-6.5c-0.5-0.5-1.9-1.4-2.5-1.7s-1.3-0.4-1.9-0.5
				C276.9,163.7,274.2,165.1,272.8,166.4z"/>
		</g>
	</g>
	<path class="st19" d="M281.9,183.8c0,0,0.8-0.2,2-0.8l1.5,0.4C285.4,183.4,284,184.4,281.9,183.8z"/>
	<g>
		<path class="st16" d="M281.9,183.8c-0.8,0.2-1.7,0-2.5-0.3c-1-0.4-2-1-2.8-1.8c-0.4-0.4-0.7-0.8-1-1.2c-0.8-1-1.5-2-2-3.1
			c-1.5-2.9-1.9-6.4-1.1-9.7c-0.2,1.2,0.1,2.5,0.8,3.5c0.7,1,1.7,1.8,2.9,2.1c2,0.5,4.4,0.7,5.6,2.6c0.7,1,0.8,2,0.9,3.2
			c0.1,1.1,0,2.5,0.7,3.4c0.3,0.3,0.6,0.5,1,0.7c1.2,0.6,2.6,0.6,3.9,0.3s2.5-1,3.5-1.8c0.8-0.7,1.6-1.4,2.2-2.3
			c0.3-0.5,0.6-1,0.7-1.5c0.1-0.2,0.1-0.5,0.1-0.7c0.1-0.7,0.2-1.3,0.1-2c-0.4-1.8-2.6-2.5-4.1-3.4c-1-0.6-1.9-1.2-2.5-2.1
			c-0.6-1-0.6-2.1-1-3.2c-0.5-1.5-1.7-2.8-3.1-3.7c-1.4-0.8-3.1-1.2-4.7-1.2c-3.7,0-7.4,2-8.6,5.6c-0.5,1.6-0.5,3.3-0.2,4.9
			c0.4,2.6,1.7,5,3.1,7.2c0.3,0.4,0.6,0.8,0.8,1.2c0.5,1.1,0.2,2.4,0.8,3.5c0.5,1,1.4,1.8,2.5,2.1c1.5,0.5,3.5-0.2,4.5-1.4
			L281.9,183.8z"/>
	</g>
	<g>
		<path class="st3" d="M275.8,199.5c-3.2-3.6-7-5.4-11.7-5.7c-4.7,0.1-10.1-0.4-14.5,1.5c-3.3,1.4-6.2,4-7.8,7.2
			c-2,4.1-2.2,8.9-1.9,13.4s1.7,8,5.1,11.1c6.4,5.9,15.6,7.9,23.7,4.4c7.4-3.2,13.3-11.1,13.4-19.4
			C282,207.3,278.9,202.9,275.8,199.5z"/>
		<path class="st20" d="M269,231.2c0.1-0.1,0.3-0.1,0.4-0.2c-3-1.5-5.5-4.3-8-6.5c-2.8-2.5-5.2-5.2-7.3-8.3c-2-3-3.9-6.2-5.1-9.6
			c-1.2-3.2-1.2-7-1.3-10.4c-0.1,0.1-0.2,0.1-0.3,0.2c0,3.4,0.1,7.1,1.3,10.3c1.3,3.6,3.4,7,5.5,10.2s4.6,5.8,7.4,8.3
			C263.9,227.2,266.3,229.7,269,231.2z"/>
		<path class="st17" d="M270,230.8c0.1-0.1,0.2-0.1,0.3-0.2c-3-1.5-5.5-4.3-7.9-6.4c-2.8-2.5-5.2-5.2-7.3-8.3c-2-3-3.9-6.2-5.1-9.6
			c-1.2-3.2-1.2-7.1-1.3-10.6c-0.1,0.1-0.2,0.1-0.3,0.2c0,3.5,0.1,7.2,1.3,10.5c1.3,3.6,3.4,7,5.5,10.2s4.6,5.8,7.4,8.3
			C264.9,226.8,267.2,229.3,270,230.8z"/>
		<path class="st20" d="M271.2,230.1c-2.9-1.6-5.3-4.2-7.7-6.4c-2.8-2.5-5.2-5.2-7.3-8.3c-2-3-3.9-6.2-5.1-9.6
			c-1.2-3.3-1.2-7.1-1.3-10.6c-0.1,0-0.1,0.1-0.2,0.1c0,0-0.1,0-0.1,0.1c0,3.5,0.1,7.3,1.3,10.6c1.3,3.6,3.4,7,5.5,10.2
			c2.1,3.2,4.6,5.8,7.4,8.3c2.3,2,4.5,4.4,7.2,5.9C270.9,230.2,271.1,230.1,271.2,230.1z"/>
		<path class="st17" d="M272,229.6c-2.8-1.6-5.2-4.2-7.5-6.2c-2.8-2.5-5.2-5.2-7.3-8.3c-2-3-3.9-6.2-5.1-9.6
			c-1.2-3.2-1.2-7.1-1.3-10.6c-0.1,0-0.2,0.1-0.3,0.1c0,3.5,0.1,7.3,1.3,10.5c1.3,3.6,3.4,7,5.5,10.2c2.1,3.2,4.6,5.8,7.4,8.3
			c2.2,1.9,4.4,4.3,7,5.8C271.8,229.7,271.9,229.6,272,229.6z"/>
		<path class="st20" d="M256.2,193.9c-3,5.2-5.3,10.8-7,16.6c-0.9,3.1-1.7,6.4-2.2,9.6c-0.5,2.8-0.8,5.7,0.2,8.4
			c0.1,0.2,0.4,0.1,0.3-0.1c-1.2-3.3-0.5-6.7,0.1-10.1c0.6-2.8,1.2-5.6,2.1-8.4c1.7-5.6,3.9-11,6.9-16.1
			C256.4,193.9,256.3,193.9,256.2,193.9z"/>
		<path class="st17" d="M257.6,193.9c-3.3,5.5-5.7,11.3-7.5,17.5c-0.9,3.1-1.7,6.4-2.2,9.6c-0.5,2.8-0.8,5.7,0.2,8.4
			c0.1,0.2,0.4,0.1,0.3-0.1c-1.2-3.3-0.5-6.7,0.1-10.1c0.6-2.8,1.2-5.6,2.1-8.4c1.7-5.9,4.1-11.5,7.3-16.8c0-0.1,0-0.2,0-0.2
			C257.8,193.9,257.7,193.9,257.6,193.9C257.7,193.9,257.6,193.9,257.6,193.9z"/>
		<path class="st20" d="M259.1,193.8c-3.4,5.7-6.1,11.7-8,18.1c-0.9,3.2-1.7,6.5-2.3,9.8c-0.5,2.8-0.8,5.5,0.1,8.2
			c0.1,0.1,0.3,0.1,0.4,0.2V230c-1.2-3.1-0.6-6.4,0-9.6c0.6-3.1,1.3-6.1,2.2-9.1c1.9-6.2,4.5-11.9,7.8-17.5v-0.1
			C259.3,193.8,259.2,193.8,259.1,193.8z"/>
		<path class="st17" d="M260.6,193.8c-3.6,5.8-6.4,11.8-8.3,18.4c-1,3.4-1.9,6.9-2.5,10.4c-0.5,2.6-0.8,5.3,0,7.8
			c0.1,0.1,0.3,0.2,0.4,0.2c-1.1-3.3-0.4-6.7,0.3-10c0.6-3.1,1.4-6.1,2.3-9.1c2-6.3,4.7-12.2,8.2-17.8
			C260.9,193.8,260.8,193.8,260.6,193.8z"/>
		<path class="st17" d="M262.6,214.7c-1.5,3.2-3.2,6.4-5.5,9c-2.2,2.5-4.8,4.6-7.5,6.6c0.1,0.1,0.2,0.1,0.3,0.2
			c2.9-2.3,5.8-4.6,8.1-7.5s4.1-6.4,5.6-9.9c2.6-6.1,3.8-13,1.4-19.3c-0.1,0-0.3,0-0.4,0C267.4,200.7,265.7,208.2,262.6,214.7z"/>
		<path class="st20" d="M263.8,215c-1.5,3.2-3.2,6.4-5.5,9c-2.2,2.6-5,4.7-7.7,6.8c0.1,0.1,0.2,0.1,0.4,0.2c3-2.3,6-4.7,8.3-7.6
			c2.3-2.9,4.1-6.4,5.6-9.9c2.7-6.2,3.8-13.1,1.3-19.5c-0.1,0-0.3,0-0.4-0.1C268.6,200.9,266.9,208.5,263.8,215z"/>
		<path class="st17" d="M264.9,215.4c-1.5,3.2-3.2,6.4-5.5,9c-2.2,2.6-5,4.7-7.7,6.8c-0.1,0-0.1,0.1-0.1,0.1c0.1,0,0.2,0.1,0.3,0.1
			l0,0c3-2.3,6.1-4.7,8.4-7.7c2.3-2.9,4.1-6.4,5.6-9.9c2.7-6.2,3.8-13.2,1.3-19.6c-0.1,0-0.3-0.1-0.4-0.1
			C269.8,201.2,268.1,208.8,264.9,215.4z"/>
		<path class="st20" d="M266.1,215.7c-1.5,3.2-3.2,6.4-5.5,9c-2.2,2.6-5,4.7-7.7,6.8c-0.2,0.1,0.1,0.4,0.2,0.2
			c3-2.3,6.1-4.7,8.4-7.7c2.3-2.9,4.1-6.4,5.6-9.9c2.7-6.2,3.8-13.2,1.3-19.6c-0.1,0-0.3-0.1-0.4-0.1
			C270.9,201.5,269.3,209.1,266.1,215.7z"/>
		<path class="st17" d="M276.1,199.7L276.1,199.7c-1.2,3.2-4.3,5.5-6.7,7.8c-2.7,2.5-5.6,4.8-8.9,6.6c-6.1,3.3-12.9,5.3-19.5,7.4
			c0,0.1,0.1,0.2,0.1,0.3c7-2.2,14.3-4.3,20.6-8c3.1-1.9,5.9-4.2,8.5-6.7c2.2-2.1,4.8-4.2,6-7.1
			C276.2,199.9,276.1,199.8,276.1,199.7z"/>
		<path class="st20" d="M276.8,200.6c-1.2,3.2-4.3,5.5-6.7,7.7c-2.7,2.5-5.6,4.8-8.9,6.6c-6.2,3.4-13.1,5.3-19.8,7.5
			c0.1,0.1,0.1,0.2,0.2,0.3c7.1-2.3,14.5-4.3,20.9-8.1c3.1-1.9,5.9-4.2,8.5-6.7c2.2-2.1,4.8-4.1,6-7
			C276.9,200.8,276.9,200.7,276.8,200.6z"/>
		<path class="st17" d="M277.5,201.4c-1.2,3.1-4.2,5.4-6.7,7.6c-2.7,2.5-5.6,4.8-8.9,6.6c-6.2,3.5-13.3,5.4-20.1,7.6
			c0.1,0.1,0.1,0.2,0.2,0.3c7.1-2.3,14.7-4.3,21.2-8.2c3.1-1.9,5.9-4.2,8.5-6.7c2.2-2.1,4.7-4.1,5.9-6.9
			C277.6,201.6,277.6,201.5,277.5,201.4z"/>
		<path class="st20" d="M242.4,224.1c0.1,0.1,0.1,0.2,0.2,0.3c7.2-2.3,14.8-4.4,21.3-8.3c3.1-1.9,5.9-4.2,8.5-6.7
			c2.2-2,4.7-4,5.9-6.8c-0.1-0.1-0.2-0.2-0.2-0.3c-1.3,3.1-4.2,5.4-6.6,7.5c-2.7,2.5-5.6,4.8-8.9,6.6
			C256.4,220,249.2,221.9,242.4,224.1z"/>
		<path class="st20" d="M261,208.2c-7.1-0.4-14.8-0.8-21.2,2.6c0,0.1,0,0.3,0,0.4c6.4-3.6,14.1-3.1,21.2-2.7
			c7.2,0.4,14.5,1.5,20.8,5.1l0,0c0-0.1,0-0.2,0-0.4C275.6,209.7,268.3,208.6,261,208.2z"/>
		<path class="st17" d="M239.8,212.3c6.5-3.7,14.3-3.2,21.4-2.8s14.3,1.4,20.6,5c0-0.1,0-0.2,0.1-0.4c-6.3-3.5-13.5-4.6-20.6-5
			c-7.2-0.4-15-0.8-21.4,2.8C239.8,212.1,239.8,212.2,239.8,212.3z"/>
		<path class="st20" d="M239.8,213.4c6.5-3.8,14.4-3.3,21.6-2.9c7,0.4,14.1,1.4,20.3,4.8c0-0.1,0-0.2,0.1-0.4
			c-6.2-3.4-13.3-4.4-20.3-4.8c-7.2-0.4-15.1-0.9-21.6,2.9C239.8,213.1,239.8,213.3,239.8,213.4z"/>
		<path class="st17" d="M239.8,214.4c6.5-3.9,14.5-3.4,21.8-3c6.9,0.4,13.8,1.4,19.9,4.6c0-0.1,0.1-0.2,0.1-0.4
			c-6.1-3.2-13.1-4.2-20-4.6c-7.3-0.4-15.2-0.9-21.8,2.9C239.8,214.2,239.8,214.3,239.8,214.4z"/>
		<path class="st20" d="M263.1,208.8c-5.8-4.1-12-8.6-19.3-9.4c-0.1,0.1-0.2,0.2-0.3,0.3c7.3,0.7,13.6,5.2,19.4,9.3
			s11.2,8.8,14.8,15c0.1-0.1,0.2-0.2,0.2-0.3C274.4,217.6,268.9,212.9,263.1,208.8z"/>
		<path class="st17" d="M262.7,209.8c-5.9-4.2-12.2-8.8-19.6-9.4c-0.1,0.1-0.2,0.2-0.2,0.3c7.4,0.6,13.8,5.1,19.7,9.3
			c5.7,4.1,11.1,8.7,14.6,14.7c0.1-0.1,0.2-0.2,0.2-0.3C273.8,218.4,268.4,213.8,262.7,209.8z"/>
		<path class="st20" d="M262.4,210.7c-5.9-4.3-12.4-8.9-19.9-9.4c-0.1,0.1-0.1,0.2-0.2,0.3c7.5,0.5,13.9,5.1,19.9,9.4
			c5.6,4,10.9,8.5,14.5,14.5c0.1-0.1,0.2-0.2,0.2-0.3C273.3,219.2,268,214.7,262.4,210.7z"/>
		<path class="st17" d="M261.8,211.9c5.5,3.9,10.7,8.4,14.3,14.1c0.1-0.1,0.2-0.2,0.3-0.3c-3.6-5.8-8.8-10.2-14.3-14.2
			c-6-4.3-12.5-8.9-20-9.4c-0.1,0.1-0.1,0.2-0.2,0.3l0,0C249.3,203,255.8,207.6,261.8,211.9z"/>
	</g>
	<path class="st8" d="M288.5,194.9c0,5.4-2.4,16.3-7.4,20.7c-4.9,4.5-16.3,5-16.3,5l-0.7,5.2c2.8,0.2,5.7,0.1,8.6-0.1
		c3.2-0.2,6.4-0.7,9.3-2.1c2.7-1.3,5.1-3.4,7-5.7c1.3-1.5,2.4-3.3,3.2-5.1c1.6-3.3,2.5-6.9,2.9-10.6"/>
	<g>
		<path class="st18" d="M264.7,222c-0.3,0-0.7-0.1-1-0.2c-2.3-0.6-4.8-0.6-7,0c-0.2,0.1-0.5,0.2-0.5,0.4c0,0.1,0,0.3,0.1,0.4
			c0.3,0.4,0.7,0.7,1.2,1c2.1,1.2,4.7,1.4,7,0.6L264.7,222z"/>
	</g>
</g>
</svg>
