<?xml version="1.0" encoding="utf-8"?>
<!-- Generator: Adobe Illustrator 22.0.0, SVG Export Plug-In . SVG Version: 6.00 Build 0)  -->
<svg version="1.1" id="Layer_1" xmlns="http://www.w3.org/2000/svg" xmlns:xlink="http://www.w3.org/1999/xlink" x="0px" y="0px"
	 viewBox="0 0 375 667" style="enable-background:new 0 0 375 667;" xml:space="preserve">
<style type="text/css">
	.st0{fill:#FFE4D6;}
	.st1{fill:#228DBF;}
	.st2{fill:#FFA77A;}
	.st3{fill:#FFC247;}
	.st4{fill:#29BED9;}
	.st5{fill:#1C739C;}
	.st6{fill:#29D9B9;}
	.st7{fill:#74D5E7;}
	.st8{fill:#FFFFFF;}
	.st9{fill:#FFF1EB;}
	.st10{fill:#FFA070;}
	.st11{fill:none;stroke:#FFFFFF;stroke-miterlimit:10;}
	.st12{fill:none;stroke:#29D9B9;stroke-miterlimit:10;}
	.st13{fill:none;stroke:#74D5E7;stroke-miterlimit:10;}
	.st14{fill:none;stroke:#1C739C;stroke-width:0.75;stroke-miterlimit:10;}
	.st15{fill:#FF925C;}
	.st16{fill:#333333;}
	.st17{fill:#FFC9AD;}
	.st18{fill:#FFBB99;}
	.st19{fill:#EB996E;}
	.st20{fill:#FF7733;}
</style>
<rect class="st0" width="375" height="667"/>
<path class="st1" d="M96.6,226.9c-3,0-5.5,2.5-5.5,5.5c0,3,2.5,5.5,5.5,5.5c3,0,5.5-2.5,5.5-5.5C102.1,229.4,99.6,226.9,96.6,226.9z
	"/>
<g>
	<path class="st2" d="M92.6,279.7c0.2,5.7,0.3,11.5,1.4,17.2h1c-1.3-6.8-1.1-13.9-1.5-20.8c-0.5-7.9-2-15.2-6.1-22
		c-0.3-0.6-1.2,0-0.9,0.5C91.2,262.4,92.3,270.7,92.6,279.7z"/>
	<g>
		<path class="st2" d="M92.2,271.5c-4.1,0.6-8.5-3.6-10.5-6.8c-0.3-0.5-1.2,0-0.9,0.5c2.3,3.6,6.9,7.9,11.6,7.2
			C93.1,272.4,92.8,271.4,92.2,271.5L92.2,271.5z"/>
	</g>
	<g>
		<path class="st2" d="M98.1,284.6c0.1,3.6-1.4,6.8-4.2,9c-0.5,0.4,0.2,1.1,0.7,0.7c3-2.4,4.6-5.9,4.5-9.8
			C99.1,283.9,98.1,283.9,98.1,284.6L98.1,284.6z"/>
	</g>
</g>
<g>
	<g>
		<g>
			<path class="st3" d="M140.6,293.2c0,0,0-0.1,0-0.1c0,0,0.1-0.1,0.1-0.1L140.6,293.2z"/>
		</g>
		<g>
			<path class="st4" d="M118.4,246.8c0.6-0.2,1.1,0.3,1.4,0.8c1.8,2.8,3.3,5.8,5.2,8.6c2.9,4.3,6.8,7.8,9.5,12.3
				c1.2,1.9,2.1,4,2.9,6.1c0.7,2.1,1.3,4.3,1.7,6.5c0.4,2.2,0.7,4.5,1,6.8c0.1,1,0.2,1.9,0.3,2.9c0,0.5,0.1,1,0.1,1.4
				c0,0.2,0,0.5,0.1,0.7c0,0.3,0.1,0.6-0.1,0.8c-0.1,0.1-0.2,0.1-0.3,0.2c-0.1,0-0.2,0.1-0.3,0.1c-0.3,0-0.3-0.4-0.4-0.7
				c-0.1-0.3-0.1-0.5-0.2-0.8c-0.1-0.5-0.3-1-0.5-1.5c-0.4-1-0.9-1.9-1.4-2.8c-1.1-1.8-2.4-3.5-3.8-5.1c-1.1-1.3-2.3-2.7-3.4-4
				c-7.1-8.8-11.4-19.7-12.3-31C117.9,247.7,117.9,247,118.4,246.8z"/>
		</g>
	</g>
	<g>
		<g>
			<path class="st3" d="M135.5,298.6C135.5,298.6,135.5,298.6,135.5,298.6c0-0.1,0-0.2,0-0.2L135.5,298.6z"/>
		</g>
		<g>
			<path class="st4" d="M106.1,264.8c0.4-0.3,1,0,1.4,0.4c2.2,1.9,4.1,4.1,6.4,6c3.5,2.9,7.5,5,10.9,8c1.4,1.3,2.7,2.8,3.8,4.4
				c1.1,1.6,2.1,3.3,3,5.1c0.9,1.8,1.7,3.6,2.4,5.4c0.3,0.8,0.6,1.6,0.9,2.4c0.1,0.4,0.3,0.8,0.4,1.2c0.1,0.2,0.2,0.4,0.2,0.6
				c0.1,0.2,0.2,0.4,0.1,0.7c0,0.1-0.1,0.1-0.2,0.2c-0.1,0.1-0.2,0.1-0.3,0.1c-0.3,0-0.4-0.3-0.5-0.5c-0.1-0.2-0.2-0.4-0.3-0.6
				c-0.2-0.4-0.5-0.7-0.8-1.1c-0.6-0.7-1.2-1.4-1.8-2c-1.3-1.3-2.8-2.3-4.4-3.4c-1.3-0.9-2.5-1.7-3.8-2.6
				c-8-5.7-14.2-13.9-17.6-23.1C105.9,265.6,105.8,265.1,106.1,264.8z"/>
		</g>
	</g>
	<g>
		<path class="st3" d="M131.6,301C131.6,301,131.6,301,131.6,301c0-0.1,0-0.1,0-0.2L131.6,301z"/>
	</g>
</g>
<g>
	<g>
		<path class="st5" d="M243.3,308.7C243.3,308.7,243.3,308.6,243.3,308.7c0-0.1,0-0.2,0-0.2L243.3,308.7z"/>
		<path class="st5" d="M250.3,309.8C250.3,309.8,250.3,309.8,250.3,309.8c0-0.1,0-0.1,0-0.2L250.3,309.8z"/>
		<g>
			<path class="st5" d="M250.6,313.3C250.6,313.3,250.6,313.3,250.6,313.3c0.1-0.1,0.1-0.1,0.1-0.1L250.6,313.3z"/>
		</g>
	</g>
	<path class="st6" d="M247.6,296.8c1.5-3.6,3.3-7.1,5.9-10c2.7-3,6-5.3,8.9-8c1.5-1.3,2.9-2.8,4.2-4.3c0.8-0.9,3.3-4.8,4.7-4.9
		c0.5,1.4-1.1,4.7-1.6,5.8c-0.8,2.1-1.7,4.2-2.8,6.2c-1.9,3.6-4.2,6.9-6.8,9.9c-1.7,1.9-3.5,3.7-5.4,5.3h1.6
		c2.5-2.3,4.9-4.8,6.9-7.6c2.6-3.5,4.8-7.2,6.5-11.2c0.8-1.8,1.4-3.6,2-5.5c0.4-1.2,1-2.5,0.3-3.6c0-0.1-0.1-0.3-0.3-0.3
		c-0.9-0.2-1.3,0.1-1.9,0.7c-1.6,1.4-2.8,3.3-4.2,4.9c-2.7,3-5.8,5.5-8.8,8.1c-4.8,4.1-8,9-10.3,14.6H247.6z"/>
	<path class="st6" d="M260.7,296.8c0.3-0.2,0.6-0.5,0.9-0.7c2.9-2.1,6.2-3.4,9.4-4.9c1.6-0.7,3.1-1.6,4.5-2.5c1-0.6,3.3-2.8,4.7-2.8
		c-0.1,1.3-2.1,3.5-2.7,4.4c-1.1,1.4-2.3,2.8-3.5,4.1c-0.9,0.9-1.8,1.7-2.7,2.5h1.5c1.2-1.1,2.4-2.3,3.5-3.5
		c1.3-1.4,2.4-2.9,3.5-4.5c0.7-1.1,1.7-2.2,1.5-3.5c0-0.2-0.2-0.3-0.3-0.3c0,0,0,0,0,0c0,0,0,0,0,0c0,0,0,0,0,0
		c-1.4-0.4-2.5,0.7-3.7,1.5c-1.9,1.3-3.8,2.5-5.8,3.6c-3.8,1.9-7.7,3.2-11,5.9c-0.4,0.3-0.7,0.6-1.1,0.9H260.7z"/>
	<g>
		<g>
			<path class="st7" d="M218.5,222c4.6,0.4,9-4.2,11-7.9c0.3-0.6-0.5-1.1-0.9-0.5c-1.9,3.3-5.9,7.7-10.2,7.4
				C217.8,220.9,217.8,221.9,218.5,222L218.5,222z"/>
		</g>
		<g>
			<path class="st7" d="M216.7,253.8c8-1.2,13-10.3,13.2-17.7c0-0.6-1-0.6-1,0c-0.3,7-5,15.7-12.5,16.8
				C215.8,253,216.1,253.9,216.7,253.8L216.7,253.8z"/>
		</g>
		<g>
			<path class="st7" d="M204.2,241.7c-1.4,8.4,0.9,16.9,6.3,23.5c0.4,0.5,1.1-0.2,0.7-0.7c-5.2-6.3-7.4-14.5-6-22.5
				C205.3,241.4,204.3,241.1,204.2,241.7L204.2,241.7z"/>
		</g>
		<g>
			<path class="st7" d="M198.6,282.5c5,0.8,9.7-0.7,14.2-2.7c4.1-1.8,7.6-4.5,9.2-8.8c0.2-0.6-0.7-0.9-1-0.3
				c-1.6,4.2-5.2,6.6-9.1,8.3c-4.2,1.8-8.5,3.3-13.1,2.5C198.3,281.4,198,282.4,198.6,282.5L198.6,282.5z"/>
		</g>
		<g>
			<path class="st7" d="M191.1,293.9c-1.5-5.9-0.4-12,3-17.1c0.4-0.5-0.5-1-0.9-0.5c-3.6,5.3-4.6,11.7-3.1,17.8
				C190.3,294.8,191.2,294.5,191.1,293.9L191.1,293.9z"/>
		</g>
		<g>
			<path class="st7" d="M212.4,234.4c0.1,3.9,2,7.3,5.1,9.6c0.5,0.4,1-0.5,0.5-0.9c-2.9-2-4.5-5.2-4.6-8.7
				C213.4,233.8,212.4,233.8,212.4,234.4L212.4,234.4z"/>
		</g>
	</g>
	<path class="st7" d="M177.9,296.8c0.7-1.7,1.8-3.2,3.1-4.5c1.5-1.5,3.2-2.8,4.1-4.7c0.8-1.7,0.8-3.5,0.7-5.3
		c-0.2-3.3,0-6.2,2.3-8.8c3.1-3.6,7.7-5.4,10.6-9.2c2.4-3.1,2.7-7,1.5-10.7c-0.6-1.8-1.5-3.5-2.7-5c-2-2.6-4.3-4.7-2.5-8.2
		c2.4-4.8,8.6-5.3,12.6-8.1c3-2.1,4.4-5.1,4-8.8c-0.5-4.3-3.2-8.8-1.7-13.2c1.5-4.4,6-6.2,10.3-6.3c4-0.1,11,0.9,12.1,5.5
		c1.3,5.4-4.5,9.4-5.2,14.5c-0.6,4.1,2,7.1,4.8,9.7c2.6,2.4,4.2,5.2,3.3,8.8c-0.6,2.5-2.3,4.3-4,6.1c-3.3,3.3-4.5,6.4-3.4,11.1
		c0.7,3.1,2.2,6.1,2.2,9.4c-0.1,3.3-1.7,6.4-4,8.8c-4,4.3-9.7,6-14,9.7c-2.8,2.4-3.5,5.8-3.7,9.2h1c0.1-1.6,0.2-3.1,0.7-4.6
		c1.2-3.6,4.4-5.2,7.5-7c4.4-2.6,9.1-5.4,11.7-9.9c2.7-4.8,1.5-9.2,0-14.3c-0.9-3.3-1.4-6.8,0.8-9.7c1.3-1.7,3-3,4.3-4.6
		c2.7-3.6,3-8.6,0-12.1c-1.7-2-4-3.4-5.3-5.8c-1.8-3.5-0.5-6.7,1.3-9.8c2.1-3.5,4.8-8.2,1.8-12c-2.4-3-7.1-3.9-10.7-4
		c-7.9-0.3-14.2,4.7-12.5,13.1c1.1,5.7,3.9,11.6-2.1,15.6c-4.1,2.7-9.8,3.3-12.4,8c-0.8,1.4-1.2,3.1-0.9,4.7
		c0.6,2.5,2.9,4.1,4.2,6.1c1.6,2.5,2.6,5.5,2.2,8.5c-0.4,3.4-2.6,5.8-5.1,7.8c-3.6,2.9-8.3,5.3-9.6,10.1c-0.7,2.4,0,4.9-0.1,7.4
		c-0.2,3.7-3.1,5.5-5.3,8.1c-1.2,1.3-2.1,2.8-2.7,4.4H177.9z"/>
	<path class="st7" d="M190,296.8c0.7-1.5,1.5-3,2.3-4.4c3.7-6.5,8.5-12.4,12.9-18.4c4.3-5.8,8.4-11.8,10.9-18.6
		c2.8-7.5,2.8-15.4,2.6-23.3c-0.2-9.9-0.1-19.4,4.6-28.4c0.3-0.6-0.6-1.1-0.9-0.5c-3.7,7.2-4.8,14.7-4.8,22.7c0,9,1,18.1-1.6,26.8
		c-4.6,15.3-17.4,26.1-24.9,39.8c-0.7,1.3-1.4,2.7-2.1,4.2H190z"/>
	<path class="st3" d="M250.4,231.7l4.8,0.9c0.1,0,0.1,0.2,0,0.3l-4.8,0.9c-0.1,0-0.1,0.1-0.1,0.1l-0.9,4.8c0,0.1-0.2,0.1-0.3,0
		l-0.9-4.8c0-0.1-0.1-0.1-0.1-0.1l-4.8-0.9c-0.1,0-0.1-0.2,0-0.3l4.8-0.9c0.1,0,0.1-0.1,0.1-0.1l0.9-4.8c0-0.1,0.2-0.1,0.3,0
		l0.9,4.8C250.3,231.6,250.3,231.7,250.4,231.7z"/>
	<g>
		<path class="st4" d="M252,285.7c-10.2-5.2-17.8,0.7-18.3,1.2C240,290.1,246.1,289.7,252,285.7z"/>
		<path class="st4" d="M239.9,278.4c0.4-0.1,6.9-7.4,18-2.6C252.1,279.5,246.1,280.3,239.9,278.4z"/>
		<path class="st4" d="M257.8,259c-0.2,0-12.8,1.2-16.8,13.7C250,271.5,255.6,266.9,257.8,259z"/>
		<path class="st4" d="M239.7,254.5c0,0,3.8,11.5-4.6,19.8C231.9,267.9,233.6,260,239.7,254.5z"/>
		<path class="st4" d="M224.1,262.5c0,0-3.2,12.3,6.4,17.1C231.5,272.1,229.3,266.4,224.1,262.5z"/>
		<path class="st4" d="M218.9,274.4c0,0,6.7,3.2,7.1,11.2C221.5,284,219.2,280.1,218.9,274.4z"/>
		<path class="st4" d="M214.8,285c0,0,7.7-0.6,9.4,6.6C219.2,291.9,216.3,289.4,214.8,285z"/>
	</g>
</g>
<g>
	<path class="st8" d="M67.9,105.9c0.2-2.6,4.4-5.4,6.3-6.6c4.2-2.6,9.3-3.5,14.1-1.8c4.8,1.7,9,5.6,14.3,5.4
		c2.9-0.1,5.5-1.6,8.4-1.5c3.6,0.1,6.7,2,8.7,4.9c0.1-0.3,0.3-0.5,0.4-0.8c-15.4-0.1-30.8-0.1-46.2-0.2c-2.2,0-4.4,0-6.5,0
		c-0.6,0-0.6,1,0,1c15.4,0.1,30.8,0.1,46.2,0.2c2.2,0,4.4,0,6.5,0c0.4,0,0.6-0.4,0.4-0.8c-3.5-5.2-9-6-14.7-4.6
		c-4.6,1.1-7.9,0-11.9-2.1c-2.7-1.4-5.2-2.8-8.3-3.3c-4.8-0.8-9.6,0.7-13.4,3.5c-1.9,1.4-5.2,3.9-5.4,6.5
		C66.8,106.5,67.8,106.5,67.9,105.9z"/>
</g>
<g>
	<path class="st9" d="M196.2,158.5c-0.1,0.1-0.2,0.2-0.4,0.3"/>
</g>
<path class="st6" d="M145.9,93.9c-36.4,0.3-65.5,30.4-65.5,66.8v19.3l-12.7,33.3c-1.2,3.2,1.1,6.6,4.5,6.6h8.7
	c2.9,21.6,21.4,38.3,43.8,38.3c3.4,0,6.6-0.1,9.5-0.4l-7,39.1h85.1v-137C212.3,123.2,182.5,93.6,145.9,93.9z"/>
<path class="st5" d="M134.3,257.7c6-0.3,12.2-1.2,17.9-3.5c-5.4,2.8-12,4.3-18.2,5.1L134.3,257.7z"/>
<circle class="st8" cx="147" cy="154.3" r="47"/>
<g>
	<path class="st10" d="M177.3,146.6c0.1-2.2,0.1-4.3-0.2-6.5c-0.9-7.6-6-12.3-13.4-13.6c-0.9-0.2-1.8-0.3-2.8-0.4
		c0-1.2-0.2-2.3-0.8-3.4c-1.8-2.9-5.9-3.4-8.9-3.7c-1.7-0.2-3.5-0.1-5.2,0.1c-1.1-0.1-2.2,0-3.3,0.2c-3.8,0.7-7.6,1.6-11.1,3.1
		c-2.7,1.1-14.9,8.3-9.4,12.1c0.9,0.6,2.2,0.8,3.3,0.8c0.5,0,1,0,1.6,0c-0.2,0.3-0.5,0.6-0.7,0.9c-0.5,0-1,0.1-1.5,0.3
		c-4.3,1.2-7,5-7.8,9.2c-2.6,0.1-4.8,2-5.5,4.8c-0.8,3.1,0.2,6.6,1,9.6c0.9,3.2,1.9,6.5,3.4,9.5c1.7,3.4,4.4,5.8,7.7,6.9
		c1.8,1.9,4,3.3,6.5,4.2c-0.3,0.1-0.6,0.3-0.9,0.5c-2.9,2.2-1.4,6.7,2.4,5.7c2.5-0.7,3.7-2.8,4.1-5.2c1.1,0.1,2.2,0.1,3.3,0
		c0.8-0.1,1.6-0.2,2.3-0.3c0.9,0.2,1.7,0.3,2.5,0.5c0.4,0.1,0.8,0.2,1.2,0.3c1.3,4.1,4.9,7.2,9.6,5.7c3-0.9,5.3-2.7,6.9-5.1
		c0.6,0,1.3-0.1,2-0.3c6.8-1.8,9.2-8.6,10.4-14.9c1.7-1.9,3.5-3.7,4.7-6C181.1,156.9,179.5,151.4,177.3,146.6z M174,133.8
		c2,3.3,2.5,7.1,2.4,11c-0.2-0.5-0.5-0.9-0.7-1.4c-2.9-5.5-7.2-10.5-13-12.9c-0.5-0.4-1-0.8-1.6-1.1c-0.2-0.2-0.5-0.3-0.7-0.4
		c0.2-0.6,0.3-1.2,0.4-1.8C166.1,127.6,171.2,129.4,174,133.8z M172,168.2c-0.2-0.8-0.4-1.5-0.8-2.2c-0.4-0.9-1-1.7-1.6-2.5
		c0.8-1.1,1.5-2.3,2.1-3.6c3.1-6.5,2.1-13.6-1.1-19.7c-0.1-0.6-0.3-1.2-0.6-1.8c-0.5-1.1-1.2-1.8-2.1-2.4c-0.7-0.9-1.4-1.8-2.2-2.6
		c4.2,3,7.5,7.5,9.7,12c0.2,0.5,0.4,0.9,0.7,1.4c-0.3,3.2-0.9,6.3-1.4,9.2c-0.6,3.7-1.2,7.5-1.9,11.2
		C172.6,167.5,172.3,167.9,172,168.2z M168.5,175.4c0.6-1.8,1.6-3.3,2.7-4.7C171.3,172.6,170.6,174.5,168.5,175.4z M160.6,181.9
		c-0.8,0-1.6-0.2-2.3-0.5c2.3-2.3,3.7-5.7,4.5-8.6c0.3-1,0.2-1.8-0.1-2.5c0.2-0.1,0.3-0.3,0.5-0.4
		C163.8,174.1,162.9,178.4,160.6,181.9z M137.5,180.2c-0.6,0-1.2-0.1-1.8-0.1c0-1.6-0.4-3.1-1-4.3c1.9-0.9,3.6-2.1,5.1-3.5
		c1.4,1.5,3.2,2.6,5.1,3.1c-0.4,1.4-0.6,2.8-0.5,4.3c-1.1,0.4-2.3,0.7-3.5,0.9C139.8,180.4,138.6,180.2,137.5,180.2z M124.4,175.9
		c-1.9-2-3.2-4.5-3.9-7.5c-0.7-3-0.8-6.3-0.4-9.4c1.8,2.8,4,5.3,6.2,7.7c2.4,2.6,5.2,5.2,7,8.4C130.4,176.3,127.3,176.7,124.4,175.9
		z M121.4,159.2c-0.4-0.6-0.7-1.2-1.1-1.8c0.4-2.1,0.9-4.2,1.7-6.2c1.1,8,7.3,14.3,15,16.7c0,0.1,0.1,0.2,0.1,0.4
		c0.5,1.2,1.2,2.3,2,3.3c-1.5,1.3-3.1,2.4-5,3.3C131.1,168.8,125.1,164.7,121.4,159.2z M117.8,146.8c1.4,0.3,2.8,1.2,4.1,2.4
		c0,0,0,0.1,0,0.1c-1,2.2-1.7,4.5-2.2,6.9C118.3,153.2,117.5,149.9,117.8,146.8z M126.8,137.5c1.2,0,2.4,0.3,3.4,0.8
		c-2.9,2.4-5.3,5.3-7.1,8.7C123.5,143.5,124.8,140.4,126.8,137.5z M138.4,122.2c2.3-1,4.8-1.7,7.3-1.9c1.2,0.2,2.1,0.9,2.5,2.1
		c0.4,1.4,0.2,2.7-0.5,3.8c-0.5,0.2-1.1,0.4-1.6,0.7c0-0.1,0-0.3,0-0.4c-0.2-1.2-0.5-2.3-1.6-2.8c-0.1,0-0.1-0.1-0.2-0.1
		c-4.4-1.2-7.5,1-10.3,3.8C133.4,124.9,136.3,123.1,138.4,122.2z M157.2,128.2c0.7,0.3,1.3,0.7,2,1c0,0,0,0,0,0.1
		c-4.6-1-9.4,0-13.1,3c0.1-1,0.2-2.1,0.2-3.1c0.4-0.3,0.7-0.6,1-0.9c1-0.3,2.1-0.6,3.2-0.8c1.1-0.2,2.3-0.3,3.5-0.4
		C155.2,127.4,156.2,127.8,157.2,128.2z M156.8,127c1,0,2,0,3,0.1c-0.1,0.4-0.2,0.9-0.3,1.3C158.6,127.8,157.7,127.4,156.8,127z
		 M166,134.9c-0.6-0.2-1.2-0.4-1.8-0.5c-1.9-0.4-3.8-0.8-5.8-1.1c0.3-0.5,0.5-1,0.8-1.5c0.2-0.4,0.5-0.9,0.7-1.4
		c0.8,0.2,1.5,0.5,2.2,0.8C163.5,132.3,164.8,133.6,166,134.9z M169.8,140.5c0.5,2.7-0.3,5.7-1.2,8.1c-1,2.8-2.4,5.4-4.1,7.7
		c-0.4-0.8-0.7-1.6-0.9-2.5c-0.4-1.9-0.1-3.8-0.7-5.7c0-0.1-0.1-0.2-0.1-0.3c0.7-0.4,1.2-0.8,1.4-1.2c0.9-1.4,0.9-3.4,0-4.7
		c-1.2-1.7-3.3-1.5-5.1-1.1c-4.6,1-8.9,4-8,9.2c0.4,2.2,1.5,4,2.8,5.6c-0.8,0-1.7,0.1-2.6,0.6c-1.7,0.8-3.1,2.4-4.2,4
		c-0.8-2.6-1.5-5.3-2-8c2.4-2.8,4.5-5.7,6.6-8.7c2-3,4.2-6,6-9.2c0.6,0.1,1.2,0.2,1.8,0.3c2.4,0.4,5.6,0.6,7.8,2
		C168.3,137.9,169.1,139.1,169.8,140.5z M157.3,167.5c-2-0.2-4-0.1-5.2,0.3c-0.7,0.2-1.3,0.5-1.9,0.8c-0.1-0.2-0.2-0.4-0.3-0.7
		c3.2-0.9,6.1-2.3,8.8-4.3c-0.1,0.9-0.4,1.9-0.8,2.7C157.8,166.8,157.6,167.1,157.3,167.5z M151.9,173c-0.5-1.2-0.9-2.3-1.3-3.5
		c0.2-0.1,0.4-0.2,0.6-0.3c1.2-0.6,3.4-0.9,5.6-0.8C155.5,170.2,153.8,171.9,151.9,173z M158,168.5c1.5,0.2,2.8,0.7,3.4,1.7
		c-2,1.5-4.2,2.9-6.3,4.2c-0.7,0.4-1.4,0.8-2.1,1.3c-0.3-0.5-0.5-1.1-0.8-1.7C154.5,172.7,156.5,170.7,158,168.5z M139.5,170.3
		c-0.5-0.7-0.9-1.4-1.2-2.1c1.1,0.3,2.2,0.5,3.4,0.6c-0.5,0.6-1,1.2-1.6,1.8c-0.1,0.1-0.2,0.2-0.2,0.2
		C139.7,170.6,139.6,170.5,139.5,170.3z M141.1,131.5c0.1,0,0.2,0,0.3-0.1c-0.4,0.6-0.7,1.2-1.1,1.8c-0.7,0.2-1.3,0.3-2,0.6
		C139.3,132.9,140.2,132.2,141.1,131.5z M133.3,140.9c0-0.1,0.1-0.1,0.1-0.1c1.9,2.4,2.5,5.9,0.2,9.2c-1.3,1.9-2.7,2.6-4,2.6
		c0.1-0.5,0.2-1,0.3-1.5C130.5,147.5,131.6,144.1,133.3,140.9z M129.4,153.5c4.4-0.1,7-5.5,6.5-9.5c-0.2-1.7-0.9-3.2-2-4.4
		c0.9-1.6,2-3.1,3.1-4.4c0.2-0.1,0.4-0.1,0.6-0.2c0.6,0,1.2,0,1.8,0c-1.6,3.6-2.4,7.7-3,11.3c-0.6,4-1.2,8.6-1.1,13
		c-2.4,0.9-5.1,0.2-5.9-2.6C129.3,155.7,129.3,154.6,129.4,153.5z M144.8,133.6c-0.1,0.1-0.3,0.3-0.4,0.4c-0.1,0.2-0.3,0.4-0.5,0.6
		c-0.9-0.2-1.9-0.4-2.8-0.4c0,0,0-0.1,0.1-0.1C142.4,133.8,143.6,133.6,144.8,133.6C144.8,133.5,144.8,133.6,144.8,133.6z
		 M145.5,136.2c0.9,0.5,1.8,1.1,2.5,1.9c1.8,2.2,1.7,6.1-1.6,7c-0.7,0.2-1.3,0.1-1.9-0.2c0-0.5,0-1,0-1.5
		C144.7,141.1,145.1,138.6,145.5,136.2z M143.6,143.5c0,0.2,0,0.4,0,0.6c-0.6-0.7-0.9-1.6-1-2.5c-0.1-1.3,0.2-2.6,0.7-3.8
		c0.3-0.7,0.7-1.4,1.1-2.1c0,0,0.1,0,0.1,0C144.1,138.3,143.7,140.9,143.6,143.5z M139.4,138.4c0.4-1.1,0.8-2.2,1.3-3.3
		c0.9,0.1,1.8,0.2,2.7,0.4c-1.8,3.1-3.1,8.4,0.1,10.2c0,2.1,0.2,4.2,0.6,6.3c-2.1,2.5-4.5,5.3-7.5,6.8
		C136.7,151.9,137.2,144.8,139.4,138.4z M144.6,146.1c0.1,0,0.2,0.1,0.4,0.1c2,0.4,3.9-0.9,4.8-2.6c1.1-2,0.4-4.4-1-6.1
		c-0.9-1-1.9-1.7-3.1-2.3c0.1-0.5,0.1-0.9,0.2-1.4c0.1-0.1,0.3-0.3,0.4-0.4c3.5-0.1,7,0.2,10.4,0.7c-1.3,2.2-2.8,4.2-4.1,6.3
		c-2.4,3.6-4.9,7.1-7.6,10.5C144.8,149.3,144.6,147.7,144.6,146.1z M147.7,132.4c1.8-1.2,3.8-2,5.9-2.3c1.8-0.3,3.6-0.2,5.2,0.1
		c-0.4,1-0.9,2-1.5,3C154.1,132.7,150.9,132.4,147.7,132.4z M142.3,132.8c-0.2,0-0.4,0.1-0.5,0.1c0.4-0.7,0.8-1.3,1.3-2
		c0.8-0.3,1.5-0.6,2.3-1.1c-0.1,1-0.3,1.9-0.4,2.6C144.1,132.6,143.2,132.7,142.3,132.8z M133.2,138.9c-0.4-0.3-0.8-0.7-1.2-0.9
		c0.9-0.7,1.9-1.2,2.9-1.8C134.3,137.1,133.8,138,133.2,138.9z M132.6,140c-1.4,2.7-2.5,5.5-3.3,8.4c-0.3,1.3-0.7,2.7-0.9,4.1
		c-1.8-0.5-3.6-2-5.4-3.5c1.9-4,4.6-7.5,8-10.2C131.6,139.1,132.2,139.5,132.6,140z M128.1,153.4c0.1,0,0.2,0,0.3,0
		c-0.1,1.4,0,2.8,0.5,4.1c1,2.4,3.4,3.6,5.9,3c0.3-0.1,0.5-0.2,0.8-0.2c0.1,2.3,0.5,4.5,1.1,6.5c-6.4-2-11.4-7.3-13.2-13.8
		c-0.3-1-0.4-2-0.5-2.9C124.7,151.6,126.4,153,128.1,153.4z M136.7,159.9c2.7-1.3,5-3.7,6.9-5.9c0.2-0.3,0.5-0.6,0.7-0.8
		c0.5,2.7,1.2,5.4,2.1,8.1c-0.1,0.2-0.2,0.3-0.3,0.5c-1.3,2.1-2.4,4.2-3.8,6.1c-1.5-0.1-3-0.3-4.5-0.7
		C137,164.9,136.7,162.3,136.7,159.9z M146.8,162.3c0.6,1.7,1.2,3.4,1.8,5c-1.7,0.4-3.4,0.6-5.1,0.6
		C144.5,166.3,145.6,164.2,146.8,162.3z M142.6,169.3c0.1-0.1,0.2-0.3,0.3-0.4c0.4,0,0.8,0,1.3,0c1.7,0,3.3-0.3,4.8-0.6
		c0.1,0.3,0.2,0.6,0.4,0.9c-1.9,1.3-3.3,3.1-4.1,5.2c-1.8-0.4-3.4-1.4-4.7-2.8C141.3,170.8,141.9,170.1,142.6,169.3z M149.7,170.1
		c0.2,0.4,0.3,0.8,0.5,1.1c0.3,0.7,0.6,1.5,0.9,2.2c-0.6,0.3-1.2,0.6-1.8,0.8c-1.1,0.3-2.1,0.4-3.1,0.3
		C147,172.8,148.2,171.2,149.7,170.1z M149.6,167.1c-0.7-1.9-1.5-3.9-2.1-5.9c2-2.9,4.4-5.2,7.4-4.4c1.2,1.3,2.5,2.5,3.7,3.8
		c0.2,0.6,0.2,1.2,0.3,1.8C156.1,164.5,153,166.1,149.6,167.1z M160.1,160.5c-0.2-0.3-0.5-0.6-0.8-0.8c-0.7-1.7-2-3-3.6-3.7
		c-1.5-1.6-2.8-3.3-3.3-5.5c-1.3-4.8,2.8-8,7.1-8.7c1.9-0.3,4-0.2,4.5,1.9c0.2,1.2-0.2,2.2-1,3c-0.1,0.1-0.2,0.2-0.4,0.3
		c-0.6-1.1-1.6-2-2.8-2.2c-1.5-0.2-3.2,1-3.2,2.6c-0.1,2.6,3.2,2.1,5.6,0.9c0.1,0.2,0.2,0.5,0.2,0.7c0.3,1,0.2,2.2,0.3,3.2
		c0.1,1.5,0.4,2.9,1,4.2c0.1,0.3,0.2,0.5,0.4,0.7c-1.1,1.3-2.2,2.6-3.5,3.7C160.3,160.8,160.2,160.6,160.1,160.5z M161.6,147.5
		c-0.7,0.3-1.5,0.5-2.3,0.6c-0.2,0-1.1,0.1-1.3,0.1c-0.5-0.1-0.6-0.6-0.6-1c0.2-1.3,1.8-1.3,2.8-0.9c0.4,0,0.7,0.3,1.2,1
		C161.6,147.4,161.6,147.5,161.6,147.5z M144.1,124.5c0.9,0.4,1.2,1.5,1.3,2.8c-0.3,0.2-0.5,0.4-0.8,0.6c-0.3,0.3-0.6,0.5-0.9,0.8
		c-1.1,0.6-2.3,1.2-3.3,2c-0.1,0-0.2,0-0.3,0c-2,0.1-4.4-0.4-5.5-2.2c-0.1-0.1-0.1-0.2-0.2-0.3C137.1,125.5,140.3,123.5,144.1,124.5
		z M138.6,131.6c0.2,0,0.4,0,0.6,0c-0.9,0.8-1.7,1.5-2.5,2.4c-2.5,0-5.1,0.2-7.6,0.3c0.1-0.1,0.2-0.2,0.3-0.3
		c1.3-1.5,2.7-3.4,4.2-5.1C134.7,130.5,136.8,131.4,138.6,131.6z M132.9,135.2c0.7,0,1.4-0.1,2.1-0.1c-1.3,0.7-2.6,1.4-3.8,2.3
		c-1.1-0.6-2.4-1-3.7-1.1c0.2-0.3,0.5-0.6,0.7-1C129.8,135.4,131.4,135.3,132.9,135.2z M145.6,176.4c0.1-0.3,0.2-0.6,0.2-0.9
		c1.1,0.1,2.2,0.1,3.4-0.2c0.8-0.2,1.5-0.5,2.3-0.9c0.3,0.6,0.5,1.1,0.8,1.7c-2.2,1.3-4.5,2.4-6.9,3.2
		C145.3,178.3,145.4,177.3,145.6,176.4z M152.8,177c1,1.8,2.2,3.5,3.8,4.6c-2.7,2.1-5.7,1.3-9.1,0.3c-0.6-0.2-1.2-0.3-1.8-0.5
		c-0.1-0.3-0.1-0.7-0.2-1C148,179.5,150.5,178.3,152.8,177z M155.8,179.8c-0.9-0.9-1.7-2-2.3-3.2c1.7-1,3.3-2,4.9-3.1
		c1.1-0.8,2.3-1.5,3.4-2.4c0.1,0.4,0.2,0.9,0.1,1.5c-0.4,2.7-2.4,6-4.2,8c-0.1,0.1-0.2,0.2-0.3,0.3
		C156.8,180.6,156.3,180.2,155.8,179.8z M162.3,169.6c-0.8-0.9-2.3-1.5-3.8-1.9c0.8-1.5,1.4-3.1,1.5-4.7c0-0.1,0-0.1,0-0.2
		c0.1-0.1,0.3-0.2,0.4-0.3c0.7,0.9,1.3,1.9,1.8,3c0.5,1.1,0.8,2.2,1,3.3C162.8,169.1,162.6,169.3,162.3,169.6z M161.1,161.8
		c1.2-1.1,2.4-2.3,3.4-3.6c1.2,1.9,2.6,3.5,4,5.2c-1.3,1.8-2.9,3.4-4.6,4.8C163.3,165.9,162.4,163.7,161.1,161.8z M166,158.7
		c-0.3-0.4-0.6-0.9-0.9-1.4c2.5-3.4,4.3-7.2,5.3-11.3c0.3-1,0.4-2.2,0.5-3.3c2.5,5.9,2.4,12.6-0.9,18.2c-0.3,0.5-0.7,1.1-1,1.6
		C168,161.3,167,160.1,166,158.7z M152,120.3c2.3,0.3,4.9,0.7,6.6,2.4c1,1,1.3,2.2,1.3,3.5c-1.9-0.2-3.8-0.2-5.8,0
		c-1.7-0.4-3.4-0.5-5-0.2c0.5-1.3,0.6-2.7,0-4.3c-0.3-0.6-0.6-1.1-1-1.5C149.3,120.1,150.6,120.1,152,120.3z M125.1,134.4
		c-0.5,0-1-0.1-1.4-0.2c-1.3-0.4-1.3-0.6-1.3-1.9c-0.1-2.3,2-4.1,3.7-5.5c3-2.4,6.6-3.9,10.3-4.9c0.2-0.1,0.5-0.2,0.8-0.2
		c-2.2,1.1-4.6,2.8-4.2,5.5c0,0.4,0.1,0.7,0.3,1.1c-0.6,0.6-1.1,1.2-1.7,1.8c-1.3,1.4-2.5,2.8-3.8,4.3
		C126.9,134.4,126,134.5,125.1,134.4z M121.8,139.3c1.2-1,2.4-1.5,3.7-1.7c-1.7,2.7-3,5.6-3.4,8.8c-0.1,0.5-0.1,1-0.1,1.5
		c-0.7-0.6-1.4-1-2-1.4c-0.6-0.3-1.3-0.6-1.9-0.7C118.4,143.4,119.5,141.2,121.8,139.3z M113.8,161.3c-1.2-4-3.5-10.9,0.9-13.9
		c0.7-0.5,1.4-0.7,2.1-0.7c-0.1,0.7-0.1,1.5-0.1,2.2c0.1,3.2,1.2,6.2,2.7,8.9c0,0.3-0.1,0.6-0.1,0.9c-0.7,5.5-0.3,11.8,3.1,16.5
		c-1-0.5-2-1.2-3-2C116.3,170.1,114.9,165.3,113.8,161.3z M125.7,177.1c1.1,0.2,2.2,0.2,3.4,0.1c1.7-0.1,3.2-0.5,4.7-1.1
		c0,0.1,0.1,0.1,0.1,0.2c0.5,1.2,0.8,2.5,0.9,3.7c-1,0-2,0-3,0.2C129.4,179.6,127.4,178.5,125.7,177.1z M134.4,182.4
		c-0.3,1.2-1.1,2.4-2.1,3.1c-1.2,0.8-2.5,0.4-3.1-0.2c-0.6-0.6-1.1-1.8,0-2.9c0.5-0.3,1.1-0.6,1.6-1c0.3-0.1,0.6-0.2,0.9-0.2
		c0.9,0.2,1.9,0.4,2.9,0.5C134.5,182,134.5,182.2,134.4,182.4z M143.6,180.9c0.3-0.1,0.6-0.2,1-0.3c0,0.2,0,0.3,0.1,0.5
		C144.2,181.1,143.9,181,143.6,180.9z M159.5,183.4c-2.2,2.5-5.9,4.9-9.4,3.7c-2.1-0.7-3.4-2.5-4.1-4.5c2.6,0.8,5.2,1.8,7.8,1.4
		c1.4-0.2,2.7-0.9,3.8-1.8c0.7,0.4,1.5,0.6,2.4,0.7C159.8,183,159.6,183.2,159.5,183.4z M167.4,179.3c-1.5,1.3-3.4,2.2-5.4,2.5
		c2.1-3.6,2.7-8.2,2-12.4c1.8-1.5,3.5-3.2,5-5.1c0.1,0.1,0.2,0.3,0.3,0.4c0.8,1.2,1.5,2.8,1.8,4.5c-1.7,2-3.2,4.2-3.9,6.8
		c-0.1,0.4,0.2,0.7,0.6,0.6c1.1-0.3,2-0.8,2.6-1.5C169.8,176.7,168.8,178.1,167.4,179.3z M172.3,170.2c0-0.2,0-0.5,0-0.7
		c0.1-0.1,0.2-0.2,0.3-0.3C172.4,169.5,172.3,169.8,172.3,170.2z M174.2,165.8c0-0.3,0.1-0.5,0.1-0.8c0.9-5.2,2.2-10.8,2.8-16.3
		c1.5,3.5,2.6,7.4,1.2,10.9C177.4,162.1,175.8,164,174.2,165.8z"/>
</g>
<g>
	<path class="st10" d="M160,126.9c13.8-2.4,28.2-0.5,40.8,5.7c11.7,5.7,22.4,15.2,25.6,28.3c3.5,14.5-1.4,29.2-3.6,43.5
		c-1.4,9.3-1.6,19.4,1.6,28.4c3.3,9.3,10.7,14.6,20.6,14.5c0.6,0,0.6-1,0-1c-5.2,0.1-10.4-1.2-14.2-4.9c-3-2.9-4.9-6.8-6.1-10.8
		c-3.3-11.3-1.7-23.1,0.5-34.4c2.5-13,5.6-26.9,0.8-39.7c-4.2-11.3-14.2-19.6-24.8-24.8c-12.8-6.3-27.5-8.3-41.5-5.8
		C159.1,126.1,159.4,127,160,126.9L160,126.9z"/>
</g>
<g>
	<path class="st8" d="M218,65.1c0-3.4,14.8-19.8,32.1-11.5c5.7,2.6,11.1,6.9,17.4,6.6c3.3-0.1,6.5-1.6,9.8-2
		c5.8-0.7,11.9,2.2,15,7.2L218,65.1z"/>
</g>
<g>
	<path class="st8" d="M312.5,154.4c0-1.6,0.3-3,0.9-4.2c0.6-1.1,1.5-2.4,2.6-3.7c0.9-1,1.5-1.9,1.9-2.6c0.4-0.7,0.6-1.5,0.6-2.4
		c0-1-0.4-1.8-1.1-2.4c-0.7-0.6-1.7-0.9-3-0.9s-2.6,0.3-4.1,0.9c-1.4,0.6-2.8,1.4-4.2,2.4l-1.9-4.2c1.2-1.1,2.8-2,4.8-2.6
		c1.9-0.7,3.9-1,5.8-1c1.8,0,3.4,0.3,4.8,0.9c1.4,0.6,2.5,1.5,3.3,2.6c0.8,1.1,1.2,2.4,1.2,3.8c0,1.6-0.4,2.9-1.1,4.1
		c-0.7,1.2-1.8,2.5-3.2,3.9c-1.2,1.3-2.1,2.4-2.8,3.2c-0.6,0.8-1,1.8-1.1,2.9l-0.2,1.2h-3.3V154.4z M311.1,165.6v-6.2h6.3v6.2H311.1
		z"/>
</g>
<circle class="st11" cx="63" cy="249.1" r="4"/>
<path class="st2" d="M239.7,114.2c0,3,2.5,5.5,5.5,5.5c3,0,5.5-2.5,5.5-5.5c0-3-2.5-5.5-5.5-5.5
	C242.2,108.7,239.7,111.1,239.7,114.2z M247.3,114.2c0,1.2-1,2.2-2.2,2.2c-1.2,0-2.2-1-2.2-2.2s1-2.2,2.2-2.2
	C246.3,111.9,247.3,112.9,247.3,114.2z"/>
<g>
	<path class="st7" d="M41.9,156.2c1.6,0.4,3.2,1,4.5,2.1c2.4,1.9,3.6,5.1,3.7,8.1c0.1,2-0.3,4.2,0.8,6c0.8,1.3,2.3,2.1,3.7,2.7
		l-1.5,4.6c0,0-4.4-1.5-5.9-4.2c-1.3-2.5-1.6-4.9-1.3-7.5c0.2-1.7-0.2-3.6-1.2-5c-0.8-1.1-2.5-2.4-4-2.5L41.9,156.2z"/>
</g>
<path class="st12" d="M226.2,113.3h7.1c0,0-0.4-9.8,10.1-9.9v-6.7C231.7,97.3,226.5,103.2,226.2,113.3z"/>
<g>
	<path class="st7" d="M319.3,69.3c0.1,1.6,0,3.2-0.9,4.5c-1.1,1.7-3.3,2.3-5.1,3.2c-1.6,0.8-3.1,2-4.2,3.5c1.1,1,2.2,1.9,3.3,2.9
		c0,0,0-0.1,0-0.1c0.8-1.5,2.4-2.6,4-3.2c2.5-0.9,4.6-2.1,6.3-4.4c1.9-2.5,1.4-7.1,1.4-7.1L319.3,69.3z"/>
</g>
<g>
	<path class="st13" d="M133.3,61.2l-6.8,0c-0.3,0-0.6-0.3-0.6-0.6v-4.9l0-1.5c0.1,0,0.2,0,0.2,0.1c0.4,0.2,0.8,0.4,1.2,0.7
		c0.7,0.6,1.5,0.9,2.4,0.8c1.5-0.1,2.3-1.2,2.4-3.3c0-1.3-0.2-2.3-0.8-2.9c-0.4-0.4-1-0.6-1.7-0.6c-0.8,0-1.6,0.3-2.2,0.8
		c-0.3,0.3-0.8,0.6-1.2,0.7c-0.1,0-0.2,0-0.2,0.1l0-1.5v-4.4c0-0.3,0.3-0.6,0.6-0.6h6.8c0.3,0,0.6-0.1,0.7-0.4
		c0.2-0.2,0.2-0.5,0.1-0.8c-0.2-0.6-0.5-1.1-0.9-1.6c-0.6-0.6-0.8-1.4-0.8-2.2c0-0.7,0.2-1.3,0.6-1.7c0.6-0.6,1.6-0.9,2.9-0.8
		c2.1,0.1,3.2,0.9,3.3,2.4c0,0.9-0.3,1.7-0.8,2.4c-0.4,0.5-0.7,1-0.9,1.6c-0.1,0.3,0,0.6,0.1,0.8c0.2,0.2,0.4,0.4,0.7,0.4h2.8l4,0
		c0.3,0,0.6,0.3,0.6,0.6v5c0,0.3,0.1,0.6,0.4,0.7c0.2,0.2,0.5,0.2,0.8,0.1c0.6-0.2,1.1-0.5,1.6-0.9c0.6-0.6,1.4-0.8,2.2-0.8
		c0.7,0,1.3,0.2,1.7,0.6c0.6,0.6,0.9,1.6,0.8,2.9c-0.1,2.1-0.9,3.2-2.4,3.3c-0.9,0-1.7-0.3-2.4-0.8c-0.5-0.4-1-0.7-1.6-0.9
		c-0.3-0.1-0.6,0-0.8,0.1c-0.2,0.2-0.4,0.4-0.4,0.7v5.5c0,0.3-0.3,0.6-0.6,0.6h-6.8c-0.3,0-0.6,0.1-0.7,0.4
		c-0.2,0.2-0.2,0.5-0.1,0.8c0.2,0.6,0.5,1.1,0.9,1.6c0.6,0.6,0.8,1.4,0.8,2.2c0,0.7-0.2,1.3-0.6,1.7c-0.6,0.6-1.6,0.9-2.9,0.8
		c-2.1-0.1-3.2-0.9-3.3-2.4c0-0.9,0.3-1.7,0.8-2.4c0.4-0.5,0.7-1,0.9-1.6C134.4,61.6,134.1,61.2,133.3,61.2z"/>
</g>
<path class="st6" d="M52,296.8h1.5c-2.3-2-3.9-4.7-5-7.9c2.2,0.4,8.7,2,13,7.9h1.2c-5.4-8.2-14.8-9-14.9-9c0,0,0,0,0,0l-0.6,0
	l0.2,0.6C48.3,291.8,49.9,294.6,52,296.8z"/>
<line class="st14" x1="37.5" y1="296.8" x2="337.5" y2="296.8"/>
<g>
	<path class="st4" d="M282.1,214.6c0,0-5,13.4-9.9,17.1c-4.9,3.7-16.3,3.1-16.3,3.1l-0.7,5.2c0,0,7.2,0.6,10,0.4
		c3.2-0.2,6.4-0.6,9.3-1.7c7.3-2.9,12-14.6,12.4-17.6"/>
	<path class="st15" d="M283.1,318.8c0,0-4.2,1.7-4.7,2.6c-0.4,0.9,9.1,0.2,9.1,0.2l-0.2-2.8C285.9,319.2,284.5,319.2,283.1,318.8z"
		/>
	<g>
		<path class="st16" d="M281.2,319.7c0.2,0.1,0.3,0.4,0.3,0.6c0,0.1,0.2,0.1,0.2,0c-0.1-0.2-0.2-0.5-0.4-0.6
			C281.3,319.5,281.1,319.6,281.2,319.7L281.2,319.7z"/>
	</g>
	<g>
		<path class="st16" d="M282.9,319c0.2,0.1,0.3,0.4,0.3,0.6c0,0.1,0.2,0.1,0.2,0c-0.1-0.2-0.2-0.5-0.4-0.6
			C283,318.8,282.9,318.9,282.9,319L282.9,319z"/>
	</g>
	<g>
		<path class="st16" d="M282.2,319.3c0.2,0.1,0.3,0.4,0.3,0.6c0,0.1,0.2,0.1,0.2,0c-0.1-0.2-0.2-0.5-0.4-0.6
			C282.2,319.1,282.1,319.2,282.2,319.3L282.2,319.3z"/>
	</g>
	<path class="st17" d="M287.5,320.9l0,0.8c0,0-9.5,0.6-9.1-0.2c0.1-0.1,0.2-0.3,0.4-0.4l0,0C278.5,321.8,287.5,320.9,287.5,320.9z"
		/>
	<path class="st7" d="M288,207.3c0,0-1.9,1.4-4.3,3.5c-2.4,4.2-4.6,8.8-5.1,13.7c-0.2,2.5,0.6,4.8,1.3,7.2c0.8,2.6,1.9,5.2,2.4,7.9
		c0.6,3.4-0.2,6.6-0.5,11.9l-1.9,30h27.6v0c0,0,0.3-13,0-21.8c-0.3-8.8-1.2-16.4-1.2-16.4s-1.4-12.4-7.8-23.6S288,207.3,288,207.3z"
		/>
	<path class="st4" d="M281.3,232c-2.3-2.7-2.7-5.7-2.7-5.7l0,0c0.2,1.9,0.8,3.6,1.3,5.4c0.8,2.6,1.9,5.2,2.4,7.9
		c0.6,3.4-0.2,6.6-0.5,11.9l-0.1,1.8l0,0l3,7.3c0.3-4.2,0.6-7.3,0.6-7.3h-1.1c0,0,0.8-10.8,0.6-15.1
		C284.6,235,282.8,234.2,281.3,232"/>
	<path class="st8" d="M307.2,253.3c-0.4-5.8-0.9-10.1-0.9-10.1s-1.4-12.4-7.8-23.6c-6.4-11.2-10.5-12.3-10.5-12.3s-1.9,1.4-4.3,3.5
		c-2.3,4.4-5.1,13.7-3.7,18.4s4.6,4.7,4.8,9c0.2,4.3-0.6,15.1-0.6,15.1H307.2z"/>
	<g>
		<path class="st15" d="M296.5,318.8c0,0-4.2,1.7-4.7,2.6c-0.4,0.9,9.1,0.2,9.1,0.2l-0.2-2.8C299.3,319.2,297.8,319.2,296.5,318.8z"
			/>
		<g>
			<path class="st16" d="M294.6,319.7c0.2,0.1,0.3,0.4,0.3,0.6c0,0.1,0.2,0.1,0.2,0c-0.1-0.2-0.2-0.5-0.4-0.6
				C294.6,319.5,294.5,319.6,294.6,319.7L294.6,319.7z"/>
		</g>
		<g>
			<path class="st16" d="M296.3,319c0.2,0.1,0.3,0.4,0.3,0.6c0,0.1,0.2,0.1,0.2,0c-0.1-0.2-0.2-0.5-0.4-0.6
				C296.3,318.8,296.2,318.9,296.3,319L296.3,319z"/>
		</g>
		<g>
			<path class="st16" d="M295.5,319.3c0.2,0.1,0.3,0.4,0.3,0.6c0,0.1,0.2,0.1,0.2,0c-0.1-0.2-0.2-0.5-0.4-0.6
				C295.6,319.1,295.4,319.2,295.5,319.3L295.5,319.3z"/>
		</g>
		<path class="st17" d="M300.8,320.9l0,0.8c0,0-9.5,0.6-9.1-0.2c0.1-0.1,0.2-0.3,0.4-0.4l0,0C291.8,321.8,300.8,320.9,300.8,320.9z"
			/>
	</g>
	<g>
		<path class="st18" d="M288.2,315.6l-0.8,2.5l0,0.7c-1.4,0.3-2.9,0.4-4.2,0l0.5-0.3v-2.9C285.1,316.1,286.7,316.2,288.2,315.6z"/>
	</g>
	<path class="st18" d="M296.5,318.8l0.2-0.7l-0.2-2.6c1.6,0.6,3.1,0.6,4.7,0l-0.6,2.6l0.1,0.7C299.3,319.2,297.8,319.2,296.5,318.8z
		"/>
	<g>
		<path class="st15" d="M288.2,315.6c0.6-1.9,1.3-3.8,1.9-5.7c1-3,1.8-6.1,1.9-9.3c0.1-4.7-1.6-9.8-1.2-13.6l0.3-1.3
			c1.2-4.2,2.9-8.3,4.3-12.4c2.2-6.5,4-13.2,5.2-19.9h-11.7h-3.6c0,0-2.2,28.5-2.4,31.6c-0.2,3.1-0.1,6.8-0.1,6.8l0.8,23.9
			C285.1,316.1,286.7,316.2,288.2,315.6z"/>
	</g>
	<g>
		<path class="st15" d="M301.1,315.6c0.4-1.9,0.9-3.8,1.3-5.7c0.7-3.1,1.2-6.3,1-9.4c-0.3-4.7-2.5-9.6-2.5-13.4l0.2-1.3
			c0.8-4.3,2.1-8.5,3.1-12.7c1.6-6.7,2-13.4,2.6-20.3l-10.9,1l-3.6,0.3c0,0,0.5,28.6,0.6,31.7s0.5,6.8,0.5,6.8l3,23
			C298,316.2,299.6,316.2,301.1,315.6z"/>
	</g>
	<path class="st7" d="M285.6,229.3c-3.7-14.8,2.3-22,2.3-22s4.1,1.1,10.5,12.3s7.8,23.6,7.8,23.6s0.9,7.6,1.2,16.4
		c0.3,8.8,0,21.8,0,21.8h-18.7c0,0,1.1-24.9-1.3-40.3C285.6,229.3,285.6,229.3,285.6,229.3z"/>
	<path class="st4" d="M295.2,223.6c-0.5,3.6-1.4,7.3-2.9,10.6c-0.9,1.8-1.9,3.5-3.2,5.1c-0.5,0.6-1,1.2-1.6,1.8l0,0c0,0,0,0.1,0,0.1
		c0.7,4.4,1.1,9.6,1.3,14.7l0,0C293.2,245.7,295.1,234.9,295.2,223.6z"/>
	<path class="st4" d="M284.8,225c0.2,1.3,0.5,2.8,0.8,4.3c0,0,0,0,0.1,0.5l0,0c1.9-4.7,2.8-10.2,2.8-13.5
		C288.5,216.2,287.4,221.7,284.8,225z"/>
	<path class="st18" d="M288,207.3l-2.4-4.2l-3.7,2c2.5,3.9,1.8,5.7,1.8,5.7c-0.5,1-1.1,2.4-1.6,3.8l0,0c0,0-1.6,4.2-0.4,4.2
		s3.2-3.7,3.2-3.7l0,0C285.7,209.9,288,207.3,288,207.3"/>
	<g>
		<g>
			<path class="st18" d="M272.8,187.7c-0.7,0.6-1.1,1.5-1.3,2.4c-0.2,0.9-0.1,1.8-0.1,2.8c0.1,1.4,0.3,2.8,0.8,4.2
				c0.2,0.6,0.6,1.2,0.9,1.8c1.1,1.9,2.3,3.8,4,5.2c1.7,1.3,4.1,2.1,6.1,1.3c0.6-0.2,1.2-0.5,1.7-0.9c0.6-0.4,1.3-0.8,1.7-1.5
				c0.3-0.5,0.4-1,0.5-1.5c0.4-2.4,0.6-4.9,0.2-7.4s-1.5-4.8-3.3-6.5c-0.5-0.5-1.9-1.4-2.5-1.7c-0.6-0.3-1.3-0.4-1.9-0.5
				C276.9,185,274.2,186.4,272.8,187.7z"/>
		</g>
	</g>
	<path class="st19" d="M281.9,205.1c0,0,0.8-0.2,2-0.8l1.5,0.4C285.4,204.7,284,205.7,281.9,205.1z"/>
	<g>
		<path class="st16" d="M281.9,205.1c-0.8,0.2-1.7,0-2.5-0.3c-1-0.4-2-1-2.8-1.8c-0.4-0.4-0.7-0.8-1-1.2c-0.8-1-1.5-2-2-3.1
			c-1.5-2.9-1.9-6.4-1.1-9.7c-0.2,1.2,0.1,2.5,0.8,3.5c0.7,1,1.7,1.8,2.9,2.1c2,0.5,4.4,0.7,5.6,2.6c0.7,1,0.8,2,0.9,3.2
			c0.1,1.1,0,2.5,0.7,3.4c0.3,0.3,0.6,0.5,1,0.7c1.2,0.6,2.6,0.6,3.9,0.3c1.3-0.3,2.5-1,3.5-1.8c0.8-0.7,1.6-1.4,2.2-2.3
			c0.3-0.5,0.6-1,0.7-1.5c0.1-0.2,0.1-0.5,0.1-0.7c0.1-0.7,0.2-1.3,0.1-2c-0.4-1.8-2.6-2.5-4.1-3.4c-1-0.6-1.9-1.2-2.5-2.1
			c-0.6-1-0.6-2.1-1-3.2c-0.5-1.5-1.7-2.8-3.1-3.7c-1.4-0.8-3.1-1.2-4.7-1.2c-3.7,0-7.4,2-8.6,5.6c-0.5,1.6-0.5,3.3-0.2,4.9
			c0.4,2.6,1.7,5,3.1,7.2c0.3,0.4,0.6,0.8,0.8,1.2c0.5,1.1,0.2,2.4,0.8,3.5c0.5,1,1.4,1.8,2.5,2.1c1.5,0.5,3.5-0.2,4.5-1.4
			L281.9,205.1z"/>
	</g>
	<g>
		<path class="st2" d="M275.8,220.8c-3.2-3.6-7-5.4-11.7-5.7c-4.7,0.1-10.1-0.4-14.5,1.5c-3.3,1.4-6.2,4-7.8,7.2
			c-2,4.1-2.2,8.9-1.9,13.4c0.3,4.5,1.7,8,5.1,11.1c6.4,5.9,15.6,7.9,23.7,4.4c7.4-3.2,13.3-11.1,13.4-19.4
			C282,228.6,278.9,224.2,275.8,220.8z"/>
		<path class="st20" d="M269,252.5c0.1-0.1,0.3-0.1,0.4-0.2c-3-1.5-5.5-4.3-8-6.5c-2.8-2.5-5.2-5.2-7.3-8.3c-2-3-3.9-6.2-5.1-9.6
			c-1.2-3.2-1.2-7-1.3-10.4c-0.1,0.1-0.2,0.1-0.3,0.2c0,3.4,0.1,7.1,1.3,10.3c1.3,3.6,3.4,7,5.5,10.2c2.1,3.2,4.6,5.8,7.4,8.3
			C263.9,248.5,266.3,251,269,252.5z"/>
		<path class="st17" d="M270,252.1c0.1-0.1,0.2-0.1,0.3-0.2c-3-1.5-5.5-4.3-7.9-6.4c-2.8-2.5-5.2-5.2-7.3-8.3c-2-3-3.9-6.2-5.1-9.6
			c-1.2-3.2-1.2-7.1-1.3-10.6c-0.1,0.1-0.2,0.1-0.3,0.2c0,3.5,0.1,7.2,1.3,10.5c1.3,3.6,3.4,7,5.5,10.2c2.1,3.2,4.6,5.8,7.4,8.3
			C264.9,248.1,267.2,250.6,270,252.1z"/>
		<path class="st20" d="M271.2,251.4c-2.9-1.6-5.3-4.2-7.7-6.4c-2.8-2.5-5.2-5.2-7.3-8.3c-2-3-3.9-6.2-5.1-9.6
			c-1.2-3.3-1.2-7.1-1.3-10.6c-0.1,0-0.1,0.1-0.2,0.1c0,0-0.1,0-0.1,0.1c0,3.5,0.1,7.3,1.3,10.6c1.3,3.6,3.4,7,5.5,10.2
			c2.1,3.2,4.6,5.8,7.4,8.3c2.3,2,4.5,4.4,7.2,5.9C270.9,251.5,271.1,251.4,271.2,251.4z"/>
		<path class="st17" d="M272,250.9c-2.8-1.6-5.2-4.2-7.5-6.2c-2.8-2.5-5.2-5.2-7.3-8.3c-2-3-3.9-6.2-5.1-9.6
			c-1.2-3.2-1.2-7.1-1.3-10.6c-0.1,0-0.2,0.1-0.3,0.1c0,3.5,0.1,7.3,1.3,10.5c1.3,3.6,3.4,7,5.5,10.2c2.1,3.2,4.6,5.8,7.4,8.3
			c2.2,1.9,4.4,4.3,7,5.8C271.8,251,271.9,250.9,272,250.9z"/>
		<path class="st20" d="M256.2,215.2c-3,5.2-5.3,10.8-7,16.6c-0.9,3.1-1.7,6.4-2.2,9.6c-0.5,2.8-0.8,5.7,0.2,8.4
			c0.1,0.2,0.4,0.1,0.3-0.1c-1.2-3.3-0.5-6.7,0.1-10.1c0.6-2.8,1.2-5.6,2.1-8.4c1.7-5.6,3.9-11,6.9-16.1
			C256.4,215.2,256.3,215.2,256.2,215.2z"/>
		<path class="st17" d="M257.6,215.2c-3.3,5.5-5.7,11.3-7.5,17.5c-0.9,3.1-1.7,6.4-2.2,9.6c-0.5,2.8-0.8,5.7,0.2,8.4
			c0.1,0.2,0.4,0.1,0.3-0.1c-1.2-3.3-0.5-6.7,0.1-10.1c0.6-2.8,1.2-5.6,2.1-8.4c1.7-5.9,4.1-11.5,7.3-16.8c0-0.1,0-0.2,0-0.2
			C257.8,215.2,257.7,215.2,257.6,215.2C257.7,215.2,257.6,215.2,257.6,215.2z"/>
		<path class="st20" d="M259.1,215.1c-3.4,5.7-6.1,11.7-8,18.1c-0.9,3.2-1.7,6.5-2.3,9.8c-0.5,2.8-0.8,5.5,0.1,8.2
			c0.1,0.1,0.3,0.1,0.4,0.2c0,0,0-0.1,0-0.1c-1.2-3.1-0.6-6.4,0-9.6c0.6-3.1,1.3-6.1,2.2-9.1c1.9-6.2,4.5-11.9,7.8-17.5
			c0,0,0-0.1,0-0.1C259.3,215.1,259.2,215.1,259.1,215.1z"/>
		<path class="st17" d="M260.6,215.1c-3.6,5.8-6.4,11.8-8.3,18.4c-1,3.4-1.9,6.9-2.5,10.4c-0.5,2.6-0.8,5.3,0,7.8
			c0.1,0.1,0.3,0.2,0.4,0.2c-1.1-3.3-0.4-6.7,0.3-10c0.6-3.1,1.4-6.1,2.3-9.1c2-6.3,4.7-12.2,8.2-17.8
			C260.9,215.1,260.8,215.1,260.6,215.1z"/>
		<path class="st17" d="M262.6,236c-1.5,3.2-3.2,6.4-5.5,9c-2.2,2.5-4.8,4.6-7.5,6.6c0.1,0.1,0.2,0.1,0.3,0.2
			c2.9-2.3,5.8-4.6,8.1-7.5c2.3-2.9,4.1-6.4,5.6-9.9c2.6-6.1,3.8-13,1.4-19.3c-0.1,0-0.3,0-0.4,0C267.4,222,265.7,229.5,262.6,236z"
			/>
		<path class="st20" d="M263.8,236.3c-1.5,3.2-3.2,6.4-5.5,9c-2.2,2.6-5,4.7-7.7,6.8c0.1,0.1,0.2,0.1,0.4,0.2c3-2.3,6-4.7,8.3-7.6
			c2.3-2.9,4.1-6.4,5.6-9.9c2.7-6.2,3.8-13.1,1.3-19.5c-0.1,0-0.3,0-0.4-0.1C268.6,222.2,266.9,229.8,263.8,236.3z"/>
		<path class="st17" d="M264.9,236.7c-1.5,3.2-3.2,6.4-5.5,9c-2.2,2.6-5,4.7-7.7,6.8c-0.1,0-0.1,0.1-0.1,0.1c0.1,0,0.2,0.1,0.3,0.1
			c0,0,0,0,0,0c3-2.3,6.1-4.7,8.4-7.7c2.3-2.9,4.1-6.4,5.6-9.9c2.7-6.2,3.8-13.2,1.3-19.6c-0.1,0-0.3-0.1-0.4-0.1
			C269.8,222.5,268.1,230.1,264.9,236.7z"/>
		<path class="st20" d="M266.1,237c-1.5,3.2-3.2,6.4-5.5,9c-2.2,2.6-5,4.7-7.7,6.8c-0.2,0.1,0.1,0.4,0.2,0.2c3-2.3,6.1-4.7,8.4-7.7
			c2.3-2.9,4.1-6.4,5.6-9.9c2.7-6.2,3.8-13.2,1.3-19.6c-0.1,0-0.3-0.1-0.4-0.1C270.9,222.8,269.3,230.4,266.1,237z"/>
		<path class="st17" d="M276.1,221C276.1,221,276.1,221,276.1,221c-1.2,3.2-4.3,5.5-6.7,7.8c-2.7,2.5-5.6,4.8-8.9,6.6
			c-6.1,3.3-12.9,5.3-19.5,7.4c0,0.1,0.1,0.2,0.1,0.3c7-2.2,14.3-4.3,20.6-8c3.1-1.9,5.9-4.2,8.5-6.7c2.2-2.1,4.8-4.2,6-7.1
			C276.2,221.2,276.1,221.1,276.1,221z"/>
		<path class="st20" d="M276.8,221.9c-1.2,3.2-4.3,5.5-6.7,7.7c-2.7,2.5-5.6,4.8-8.9,6.6c-6.2,3.4-13.1,5.3-19.8,7.5
			c0.1,0.1,0.1,0.2,0.2,0.3c7.1-2.3,14.5-4.3,20.9-8.1c3.1-1.9,5.9-4.2,8.5-6.7c2.2-2.1,4.8-4.1,6-7
			C276.9,222.1,276.9,222,276.8,221.9z"/>
		<path class="st17" d="M277.5,222.7c-1.2,3.1-4.2,5.4-6.7,7.6c-2.7,2.5-5.6,4.8-8.9,6.6c-6.2,3.5-13.3,5.4-20.1,7.6
			c0.1,0.1,0.1,0.2,0.2,0.3c7.1-2.3,14.7-4.3,21.2-8.2c3.1-1.9,5.9-4.2,8.5-6.7c2.2-2.1,4.7-4.1,5.9-6.9
			C277.6,222.9,277.6,222.8,277.5,222.7z"/>
		<path class="st20" d="M242.4,245.4c0.1,0.1,0.1,0.2,0.2,0.3c7.2-2.3,14.8-4.4,21.3-8.3c3.1-1.9,5.9-4.2,8.5-6.7
			c2.2-2,4.7-4,5.9-6.8c-0.1-0.1-0.2-0.2-0.2-0.3c-1.3,3.1-4.2,5.4-6.6,7.5c-2.7,2.5-5.6,4.8-8.9,6.6
			C256.4,241.3,249.2,243.2,242.4,245.4z"/>
		<path class="st20" d="M261,229.5c-7.1-0.4-14.8-0.8-21.2,2.6c0,0.1,0,0.3,0,0.4c6.4-3.6,14.1-3.1,21.2-2.7
			c7.2,0.4,14.5,1.5,20.8,5.1c0,0,0,0,0,0c0-0.1,0-0.2,0-0.4C275.6,231,268.3,229.9,261,229.5z"/>
		<path class="st17" d="M239.8,233.6c6.5-3.7,14.3-3.2,21.4-2.8c7.1,0.4,14.3,1.4,20.6,5c0-0.1,0-0.2,0.1-0.4
			c-6.3-3.5-13.5-4.6-20.6-5c-7.2-0.4-15-0.8-21.4,2.8C239.8,233.4,239.8,233.5,239.8,233.6z"/>
		<path class="st20" d="M239.8,234.7c6.5-3.8,14.4-3.3,21.6-2.9c7,0.4,14.1,1.4,20.3,4.8c0-0.1,0-0.2,0.1-0.4
			c-6.2-3.4-13.3-4.4-20.3-4.8c-7.2-0.4-15.1-0.9-21.6,2.9C239.8,234.4,239.8,234.6,239.8,234.7z"/>
		<path class="st17" d="M239.8,235.7c6.5-3.9,14.5-3.4,21.8-3c6.9,0.4,13.8,1.4,19.9,4.6c0-0.1,0.1-0.2,0.1-0.4
			c-6.1-3.2-13.1-4.2-20-4.6c-7.3-0.4-15.2-0.9-21.8,2.9C239.8,235.5,239.8,235.6,239.8,235.7z"/>
		<path class="st20" d="M263.1,230.1c-5.8-4.1-12-8.6-19.3-9.4c-0.1,0.1-0.2,0.2-0.3,0.3c7.3,0.7,13.6,5.2,19.4,9.3
			c5.8,4.1,11.2,8.8,14.8,15c0.1-0.1,0.2-0.2,0.2-0.3C274.4,238.9,268.9,234.2,263.1,230.1z"/>
		<path class="st17" d="M262.7,231.1c-5.9-4.2-12.2-8.8-19.6-9.4c-0.1,0.1-0.2,0.2-0.2,0.3c7.4,0.6,13.8,5.1,19.7,9.3
			c5.7,4.1,11.1,8.7,14.6,14.7c0.1-0.1,0.2-0.2,0.2-0.3C273.8,239.7,268.4,235.1,262.7,231.1z"/>
		<path class="st20" d="M262.4,232c-5.9-4.3-12.4-8.9-19.9-9.4c-0.1,0.1-0.1,0.2-0.2,0.3c7.5,0.5,13.9,5.1,19.9,9.4
			c5.6,4,10.9,8.5,14.5,14.5c0.1-0.1,0.2-0.2,0.2-0.3C273.3,240.5,268,236,262.4,232z"/>
		<path class="st17" d="M261.8,233.2c5.5,3.9,10.7,8.4,14.3,14.1c0.1-0.1,0.2-0.2,0.3-0.3c-3.6-5.8-8.8-10.2-14.3-14.2
			c-6-4.3-12.5-8.9-20-9.4c-0.1,0.1-0.1,0.2-0.2,0.3c0,0,0,0,0,0C249.3,224.3,255.8,228.9,261.8,233.2z"/>
	</g>
	<path class="st7" d="M288.5,216.2c0,5.4-2.4,16.3-7.4,20.7c-4.9,4.5-16.3,5-16.3,5l-0.7,5.2c2.8,0.2,5.7,0.1,8.6-0.1
		c3.2-0.2,6.4-0.7,9.3-2.1c2.7-1.3,5.1-3.4,7-5.7c1.3-1.5,2.4-3.3,3.2-5.1c1.6-3.3,2.5-6.9,2.9-10.6"/>
	<g>
		<path class="st18" d="M264.7,243.3c-0.3,0-0.7-0.1-1-0.2c-2.3-0.6-4.8-0.6-7,0c-0.2,0.1-0.5,0.2-0.5,0.4c0,0.1,0,0.3,0.1,0.4
			c0.3,0.4,0.7,0.7,1.2,1c2.1,1.2,4.7,1.4,7,0.6L264.7,243.3z"/>
	</g>
</g>
<g>
	<path class="st2" d="M326.1,256.6c-2.5,0-4.6-2-4.6-4.6s2-4.6,4.6-4.6c2.5,0,4.6,2,4.6,4.6S328.6,256.6,326.1,256.6z M326.1,248.4
		c-2,0-3.6,1.6-3.6,3.6s1.6,3.6,3.6,3.6c2,0,3.6-1.6,3.6-3.6S328,248.4,326.1,248.4z"/>
</g>
<path class="st6" d="M66.7,296.8c-1.9-5.2-1-10.2-0.5-12.1c3.5,3.4,5.4,7.8,5.4,12.1h1c0-4.8-2.2-9.7-6.3-13.4l-0.6-0.5l-0.2,0.7
	c0,0.1-2.1,6.5,0.2,13.2H66.7z"/>
<path class="st2" d="M78.1,285.2c-2.5,2.8-3.3,6.3-2,9.8c0.3,0.7,0.6,1.3,1,1.8h1.2c-0.7-0.9-1.3-2-1.6-3.2c-0.7-3.1,0.2-5.7,2.3-8
	c1.3-1.4,2.7-2.7,3.7-4.3c1.6-2.7,1.6-5.7,0.3-8.5c-2-4.3-8.3-9.8-3.8-14.6c2.5-2.6,7.1-3.5,10.6-3.5c3.5,0,7.3,1,9.4,3.9
	c2.7,3.7,1.2,8.1,0.4,12.1c-0.5,2.8-0.7,5.9,0.9,8.4c1.9,2.9,5.3,4.2,8.5,5.3c2.5,0.9,5.3,1.9,7.1,4c2.4,2.8,1.6,5.5-0.4,8.2
	c0,0.1-0.1,0.1-0.1,0.2h1.3c0.5-0.7,1-1.3,1.3-2.1c1.3-2.9-0.1-6.1-2.4-8c-3.4-2.9-8.2-3.2-11.8-5.6c-5.1-3.4-3.6-8.6-2.6-13.6
	c0.6-3.2,0.8-6.4-1.1-9.2c-1.5-2.3-4-3.7-6.7-4.3c-5-1.1-14.6,0.1-16.5,5.9c-1.3,4,1.5,7.6,3.6,10.7c1.6,2.4,2.9,4.9,2.2,7.9
	C82.2,281.3,80,283.1,78.1,285.2z"/>
<path class="st2" d="M86.3,296.8c-2-2.9-3.3-6.4-3.6-9.6c-0.1-0.6-1.1-0.6-1,0c0.3,3.2,1.5,6.7,3.4,9.6H86.3z"/>
<g>
	<path class="st4" d="M119.4,296.8h9.1c-0.6-0.6-1.2-1.3-1.9-1.8c-1.1-1-2.2-1.9-3.4-2.8c-1.2-0.8-2.5-1.6-3.8-2.1
		c-3.1-1.3-6.5-1.7-9.7-2.8c-2.1-0.7-4-1.7-6-2.5c-0.4-0.1-0.9-0.2-1.1,0.1c-0.2,0.3,0.1,0.7,0.3,0.9
		C107.2,290.9,113,294.8,119.4,296.8z"/>
</g>
<path class="st4" d="M247.1,296.8c-10.6-6.7-18.5-2.1-18.7-2.1c0.9,0.8,1.9,1.5,2.9,2.1H247.1z"/>
<g>
	<path class="st2" d="M226.6,296.8c2.3-8.3,6.7-16.1,12.6-22.4c-6.6,6.1-11.5,13.9-14.4,22.4H226.6z"/>
</g>
</svg>
