<svg xmlns="http://www.w3.org/2000/svg" width="38" height="38" viewBox="0 0 38 38">
  <circle id="Ellipse_13" data-name="Ellipse 13" cx="19" cy="19" r="19" fill="#333"/>
  <path id="Path_4" data-name="Path 4" d="M36.635,705.5l5.182-5.239a.768.768,0,0,0,0-1.081l-.456-.458a.749.749,0,0,0-1.07,0l-6.17,6.235a.754.754,0,0,0-.22.544.778.778,0,0,0,.22.544l6.161,6.229a.749.749,0,0,0,1.07,0l.453-.458a.774.774,0,0,0,0-1.084l-5.171-5.23Z" transform="translate(-20 -686.5)" fill="#fff" fill-rule="evenodd"/>
</svg>
