<svg xmlns="http://www.w3.org/2000/svg" width="45.179" height="18.662" viewBox="0 0 45.179 18.662">
  <path id="Path_2" data-name="Path 2" d="M133.81,409.87c.53,1.088.993,2.166,1.39,3.132l.055-.044c.386-.944.838-1.988,1.357-3.043.143-.3.287-.589.441-.877a16.109,16.109,0,0,1,6.388-7.8,12.113,12.113,0,0,1,2.317-1.133,12.318,12.318,0,0,1,3.8-.744c.419-.022.849-.033,1.28-.022a13.267,13.267,0,0,1,2.206.211,7.851,7.851,0,0,1,2.471.888A6.033,6.033,0,0,1,157.258,402a6.7,6.7,0,0,1,1.037,2.2,10.161,10.161,0,0,1,.342,2.765V417.62h-4.06v-.844a8.1,8.1,0,0,1-8.517.022,5.426,5.426,0,0,1-2.692-4.542c0-3.176,3.1-5.753,6.928-5.753a7.8,7.8,0,0,1,4.347,1.266c.011-.511,0-.866,0-.866a4.109,4.109,0,0,0-4.435-4.331,9.787,9.787,0,0,0-6.189,2.31,19.912,19.912,0,0,0-4.413,6.441,55.173,55.173,0,0,0-2.582,6.43h-3.652a51.383,51.383,0,0,0-2.582-6.43c-2.107-4.331-3.916-6.2-5.163-7a10.34,10.34,0,0,0-5.042-1.7c-1.589,0-2.5.744-2.5,1.8v.067c0,.044.011.078.011.122v.033c0,.022.011.056.011.078s.011.033.011.044a.242.242,0,0,0,.022.067.085.085,0,0,1,.011.044.242.242,0,0,0,.022.067c.011.023.011.033.022.044a.243.243,0,0,1,.033.056.084.084,0,0,0,.022.044c.011.022.022.033.033.056a.139.139,0,0,0,.033.044.2.2,0,0,1,.044.056.153.153,0,0,0,.033.044c.011.022.033.033.044.056a.153.153,0,0,0,.033.044l.055.056c.011.011.033.022.044.033a.241.241,0,0,0,.055.044.152.152,0,0,1,.044.033.344.344,0,0,0,.066.044.152.152,0,0,1,.044.033.344.344,0,0,0,.066.044c.022.011.033.022.055.033s.044.033.066.044.033.022.055.033.055.033.077.044.033.022.055.033a.477.477,0,0,0,.077.044c.022.011.033.022.055.033a.657.657,0,0,0,.088.044,21.947,21.947,0,0,0,2.747,1c2.593.822,5.538,2.01,5.538,5.242v.067c0,3.776-2.912,5.653-6.63,5.653a12.511,12.511,0,0,1-7.568-2.688l1.842-2.788a9.974,9.974,0,0,0,5.847,2.21c1.754,0,2.769-.755,2.769-1.944v-.067c0-1.4-1.9-1.877-3.994-2.521-2.637-.755-5.582-1.844-5.582-5.275v-.067c0-3.4,2.8-5.475,6.343-5.453h.309c.066,0,.132.011.2.011s.143.011.21.011a1.191,1.191,0,0,1,.2.011c.066.011.143.011.21.022s.132.011.2.022l.21.033c.077.011.143.022.21.033l.21.033.2.033c.066.011.143.033.21.044l.408.1a1.148,1.148,0,0,1,.188.044c.077.022.143.044.221.067s.121.033.188.056.143.044.221.067a1.073,1.073,0,0,1,.177.056c.077.022.143.056.221.078.055.022.121.044.177.067.077.033.143.056.221.089s.121.044.177.067c.077.033.143.067.221.1.055.022.11.056.165.078.077.033.154.067.221.1s.11.056.165.078.143.078.21.111a1.619,1.619,0,0,1,.154.089,1.925,1.925,0,0,1,.21.111c.055.033.1.056.154.089.077.044.143.078.21.122.011.011.022.011.033.022a12.2,12.2,0,0,1,3.431,3.076A29.889,29.889,0,0,1,133.81,409.87Zm20.63,1.033.033-.267a4.735,4.735,0,0,0-2.284-1.055,5.659,5.659,0,0,0-1.092-.133,3.069,3.069,0,0,0-3.3,2.81,2.6,2.6,0,0,0,2.9,2.354,3.611,3.611,0,0,0,3.475-2.7,6.112,6.112,0,0,0,.268-1.012Z" transform="translate(-113.459 -399.335)" fill="#333" fill-rule="evenodd"/>
</svg>
